<?xml version="1.0" standalone="no"?>
<!DOCTYPE svg PUBLIC "-//W3C//DTD SVG 1.1//EN" "http://www.w3.org/Graphics/SVG/1.1/DTD/svg11.dtd" >
<svg xmlns="http://www.w3.org/2000/svg" xmlns:xlink="http://www.w3.org/1999/xlink" version="1.1">
<metadata>
Created by FontForge 20170731 at Wed Dec 16 19:18:34 2020
 By Aleksey,,,
copyright missing
</metadata>
<defs>
<font id="Champion-ExtraBoldClean" horiz-adv-x="1056" >
  <font-face 
    font-family="Champion ExtraBoldClean"
    font-weight="800"
    font-stretch="normal"
    units-per-em="2048"
    panose-1="0 0 9 0 0 0 0 0 0 0"
    ascent="1638"
    descent="-410"
    x-height="1024"
    cap-height="1434"
    bbox="-553 -512 2310 2310"
    underline-thickness="102"
    underline-position="-307"
    unicode-range="U+0020-FB02"
  />
<missing-glyph horiz-adv-x="1024" 
d="M840 1638v-2048h-650v2048h650zM682 1501h-338v-67h133v-76h-135v-68h340v68h-135v76h135v67zM547 1237h-205v-213h340v70h-135v143zM477 1167v-73h-67v73h67zM682 969h-340v-68h135v-76h-135v-67h205v143h135v68zM682 846h-68v-135h-272v-70h340v205zM682 596h-205v-115
h70v47h67v-96h-204v164h-68v-231h340v231zM682 242h-340v-232h340v232zM614 174v-96h-204v96h204zM682 -37h-340v-67h143l-143 -97v-67h340v67h-209l143 97h66v67z" />
    <glyph glyph-name="fi" unicode="fi" horiz-adv-x="1226" 
d="M680 0l61 143v654h-221v-654l64 -143h-506l61 143v654h-129v86l127 141h2v254l197 238h446l92 -302l-200 35l-127 -30l-27 -54v-141h441l161 41v-922l64 -143h-506z" />
    <glyph glyph-name="fl" unicode="fl" horiz-adv-x="1267" 
d="M721 0l61 143v1084l-149 22l-86 -30l-27 -54v-141h150v-190l-41 -37h-109v-654l64 -143h-506l61 143v654h-129v86l127 141h2v254l197 238h827v-1373l64 -143h-506z" />
    <glyph glyph-name="ff" unicode="ff" horiz-adv-x="1396" 
d="M1155 1165v-141h238v-190l-41 -37h-197v-654l64 -143h-506l61 143v654h-254v-654l64 -143h-506l61 143v654h-129v86l127 141h2v256l197 238h350l115 -207l170 205h364l92 -302l-159 35l-86 -30zM520 1024h254v219l-141 47l-86 -28l-27 -54v-184z" />
    <glyph glyph-name="f_f_i" unicode="ffi" horiz-adv-x="1880" 
d="M1333 0l62 143v654h-240v-654l64 -143h-506l61 143v654h-254v-654l64 -143h-506l61 143v654h-129v86l127 141h2v256l197 238h350l115 -207l170 205h467l92 -302l-262 35l-86 -30l-27 -54v-141h459l162 41v-922l63 -143h-506zM520 1024h254v219l-141 47l-86 -28l-27 -54
v-184z" />
    <glyph glyph-name="f_f_l" unicode="ffl" horiz-adv-x="1902" 
d="M1356 0l61 143v1084l-149 22l-86 -30l-27 -54v-141h197v-190l-41 -37h-156v-654l64 -143h-506l61 143v654h-254v-654l64 -143h-506l61 143v654h-129v86l127 141h2v256l197 238h350l115 -207l170 205h827v-1373l64 -143h-506zM774 1024v219l-141 47l-86 -28l-27 -54v-184
h254z" />
    <glyph glyph-name="f_t" unicode="ft" horiz-adv-x="1431" 
d="M1214 281l187 45l-96 -326h-410l-156 197v600h-219v-654l64 -143h-506l61 143v654h-129v86l127 141h2v254l197 238h364l93 -302l-160 35l-86 -30l-27 -54v-141h219v123l381 205v-328h254v-190l-41 -37h-213v-408l19 -80z" />
    <glyph glyph-name=".notdef" horiz-adv-x="1024" 
d="M840 1638v-2048h-650v2048h650zM682 1501h-338v-67h133v-76h-135v-68h340v68h-135v76h135v67zM547 1237h-205v-213h340v70h-135v143zM477 1167v-73h-67v73h67zM682 969h-340v-68h135v-76h-135v-67h205v143h135v68zM682 846h-68v-135h-272v-70h340v205zM682 596h-205v-115
h70v47h67v-96h-204v164h-68v-231h340v231zM682 242h-340v-232h340v232zM614 174v-96h-204v96h204zM682 -37h-340v-67h143l-143 -97v-67h340v67h-209l143 97h66v67z" />
    <glyph glyph-name=".null" horiz-adv-x="0" 
 />
    <glyph glyph-name="nonmarkingreturn" horiz-adv-x="682" 
 />
    <glyph glyph-name="space" unicode=" " horiz-adv-x="512" 
 />
    <glyph glyph-name="exclam" unicode="!" horiz-adv-x="645" 
d="M180 584l-74 540v310l82 82h279l82 -82v-310l-80 -540h-289zM563 381v-287l-94 -94h-293l-94 94v291l94 90h293z" />
    <glyph glyph-name="quotedbl" unicode="&#x22;" horiz-adv-x="1060" 
d="M137 963l-55 593h379l47 -40l-64 -553h-307zM608 963l-55 593h379l47 -47l-64 -546h-307z" />
    <glyph glyph-name="numbersign" unicode="#" horiz-adv-x="1513" 
d="M1423 850h-186l-53 -221h147l33 -45l-70 -267h-186l-68 -280l-57 -37h-244l-39 41l66 276h-211l-66 -266l-57 -51h-242l-34 49l63 268h-166l-33 52l64 260h207l51 221h-117l-73 57l55 254h209l63 275l51 41h242l51 -60l-63 -256h203l61 264l61 52h256l35 -58l-63 -258
h131l49 -67zM838 629l51 221h-205l-53 -221h207z" />
    <glyph glyph-name="dollar" unicode="$" horiz-adv-x="1110" 
d="M905 786l144 -143v-397l-226 -246h-145v-293h-268v293h-283l-78 485l275 -147l116 -37l107 37l57 65v35l-41 41l-354 162l-123 143v404l225 246h142v282h206l58 -41v-241h250l75 -457l-251 104l-119 27l-103 -27l-61 -69v-49l41 -48z" />
    <glyph glyph-name="percent" unicode="%" horiz-adv-x="1634" 
d="M709 1157l-197 -190h-258l-213 196v271l199 188h258l211 -207v-258zM1008 1522h426l-945 -1522h-417zM274 1245l56 -57h92l55 57v101l-55 55h-92l-56 -55v-101zM868 180v279l201 180h260l203 -180v-279l-184 -180h-297zM1100 268l55 -53h92l56 53v103l-56 53h-92l-55 -53
v-103z" />
    <glyph glyph-name="ampersand" unicode="&#x26;" horiz-adv-x="1329" 
d="M1296 827l-39 -286h-149v-295l-225 -246h-555l-267 266v256l138 135l-117 127v383l266 267h615l75 -457l-252 104l-118 27l-103 -27l-61 -82v-170zM737 395l-10 146h-217v-146l20 -61l93 -41l94 41z" />
    <glyph glyph-name="quotesingle" unicode="'" horiz-adv-x="589" 
d="M137 963l-55 593h381l45 -40l-64 -553h-307z" />
    <glyph glyph-name="parenleft" unicode="(" horiz-adv-x="751" 
d="M668 -350h-301l-174 139l-111 367l-21 559v2l21 559l111 366l174 140h301l55 -312h-127l-59 -49l-52 -200l-22 -504l22 -506l52 -201l59 -47h135z" />
    <glyph glyph-name="parenright" unicode=")" horiz-adv-x="751" 
d="M125 1782h301l174 -140l111 -366l20 -559v-2l-20 -559l-111 -367l-174 -139h-301l-55 311h127l59 49l51 201l23 504l-23 506l-51 200l-59 47h-136z" />
    <glyph glyph-name="asterisk" unicode="*" horiz-adv-x="702" 
d="M715 1139l-41 -84l-119 -51l63 -113l-12 -94l-74 -54l-92 15l-88 94l-86 -92l-94 -19l-72 56l-16 92l66 115l-117 49l-45 86l28 86l84 43l125 -25l15 123l67 68h90l68 -68l14 -125l123 25l86 -41z" />
    <glyph glyph-name="plus" unicode="+" horiz-adv-x="1222" 
d="M1141 842v-301h-377v-367h-303v367h-316l-63 57v244h381v327l57 64h244v-391h377z" />
    <glyph glyph-name="comma" unicode="," horiz-adv-x="645" 
d="M469 475l94 -94v-307l-71 -172l-175 -127h-139v61l88 66l41 98h-131l-94 94v271l102 110h285z" />
    <glyph glyph-name="hyphen" unicode="-" horiz-adv-x="940" 
d="M745 500h-684v331h799l-39 -274z" />
    <glyph glyph-name="period" unicode="." horiz-adv-x="645" 
d="M563 381v-287l-94 -94h-293l-94 94v291l94 90h293z" />
    <glyph glyph-name="slash" unicode="/" horiz-adv-x="868" 
d="M469 -303h-469l408 1941h460z" />
    <glyph glyph-name="zero" unicode="0" horiz-adv-x="1228" 
d="M881 1434l266 -267v-901l-266 -266h-533l-266 266v901l266 267h533zM520 1128l-69 -69v-527l266 590l-6 6l-97 46zM711 305l67 70v405l-219 -493l55 -27z" />
    <glyph glyph-name="one" unicode="1" horiz-adv-x="731" 
d="M606 1434v-1250l64 -184h-527l62 184v881h-185l236 369h350z" />
    <glyph glyph-name="two" unicode="2" horiz-adv-x="1017" 
d="M907 0h-825l-72 207l496 694v111l-62 69l-122 27l-119 -27l-170 -104l76 457h573l266 -246v-322l-387 -481h230l217 76z" />
    <glyph glyph-name="three" unicode="3" horiz-adv-x="1042" 
d="M981 266l-266 -266h-635l-57 496l262 -168l118 -37l117 37l53 65v107l-77 82l-140 -21l-22 291h160l61 63v107l-41 70l-143 26l-140 -26l-211 -105l76 447h594l266 -267v-260l-141 -139l166 -125v-377z" />
    <glyph glyph-name="four" unicode="4" horiz-adv-x="1202" 
d="M1141 227h-121v-43l61 -184h-485l63 184v45l-505 4l-164 265l602 936h489l-61 -185v-733h182zM659 516v455l-262 -455h262z" />
    <glyph glyph-name="five" unicode="5" horiz-adv-x="1081" 
d="M811 852l229 -209v-418l-225 -225h-696l-78 475l311 -153h213l60 69v111l-86 86h-129l-125 -43l-215 139l2 750h915l-61 -375h-514v-258l106 51h293z" />
    <glyph glyph-name="six" unicode="6" horiz-adv-x="1122" 
d="M854 852l207 -188v-439l-225 -225h-531l-223 240v927l266 267h615l55 -426l-150 63l-149 33l-154 -33l-94 -98l-4 -197l156 76h231zM715 387v117l-92 90h-136l-22 -8l-4 -213l49 -58h141z" />
    <glyph glyph-name="seven" unicode="7" horiz-adv-x="999" 
d="M979 1182l-391 -1016l4 -166h-498l432 1077h-350l-176 -76l115 433h753z" />
    <glyph glyph-name="eight" unicode="8" horiz-adv-x="1228" 
d="M881 1434l225 -246v-336l-123 -123l164 -123v-340l-266 -266h-533l-266 266v340l164 123l-123 123v336l225 246h533zM741 1114l-123 35l-122 -35l-27 -96l27 -96l122 -35l123 35l27 96zM754 532l-136 37l-135 -37l-30 -116l30 -115l135 -37l136 37l30 115z" />
    <glyph glyph-name="nine" unicode="9" horiz-adv-x="1144" 
d="M819 1434l244 -260v-887l-287 -287h-594l-76 406l191 -84l129 -27l133 27l109 98l4 155l-135 -65h-226l-250 209v489l226 226h532zM610 788l68 58l6 215l-53 61h-148l-65 -75v-187l74 -72h118z" />
    <glyph glyph-name="colon" unicode=":" horiz-adv-x="645" 
d="M563 1012v-287l-94 -94h-293l-94 94v291l94 90h293zM563 381v-287l-94 -94h-293l-94 94v291l94 90h293z" />
    <glyph glyph-name="semicolon" unicode=";" horiz-adv-x="645" 
d="M469 1106l94 -94v-287l-94 -94h-293l-94 94v291l94 90h293zM184 475h285l94 -94v-307l-71 -172l-175 -127h-139v61l88 66l41 98h-131l-94 94v271z" />
    <glyph glyph-name="less" unicode="&#x3c;" horiz-adv-x="1144" 
d="M1063 1051v188h-385l-637 -561l637 -565h385v163l-465 404z" />
    <glyph glyph-name="equal" unicode="=" horiz-adv-x="1222" 
d="M145 684l-63 57v244h1059v-301h-996zM1077 565l64 -57v-244h-1059v301h995z" />
    <glyph glyph-name="greater" unicode="&#x3e;" horiz-adv-x="1144" 
d="M82 301v-188h385l637 561l-637 565h-385v-164l465 -403z" />
    <glyph glyph-name="question" unicode="?" horiz-adv-x="1017" 
d="M664 705l157 79l156 203v344l-246 205h-614l-76 -457l252 105l119 26l102 -26l61 -64v-61l-61 -84l-248 -101v-163l62 -107h295zM702 381v-287l-94 -94h-293l-94 94v291l94 90h293z" />
    <glyph glyph-name="at" unicode="@" horiz-adv-x="2187" 
d="M1772 0h-545l-47 117l-41 -58l-140 -59h-190l-221 219v586l219 219h233l138 -137v82l381 96v-782h86l79 86l72 219l-82 432l-225 164l-402 82l-372 -82l-246 -246l-82 -412l82 -458l225 -218l414 -81l369 73l-2 -274l-367 -80l-555 102l-369 349l-102 587l82 443l20 98
l410 369l493 102l527 -102l389 -287l102 -561l-118 -352zM971 336l35 -66l63 -28l64 28l45 101v245l-64 115l-67 29l-62 -29l-14 -43v-352z" />
    <glyph glyph-name="A" unicode="A" horiz-adv-x="1286" 
d="M283 1270l-39 164h798l-47 -164l187 -1004l94 -266h-524l43 266h-299l39 -266h-525l94 266zM684 1112h-61l-103 -551h254z" />
    <glyph glyph-name="B" unicode="B" horiz-adv-x="1222" 
d="M844 1434l266 -267v-280l-143 -133l204 -154v-334l-266 -266h-844l62 184v1065l-62 185h783zM700 1098l-84 39h-98v-303h98l84 59l43 94zM723 545l-84 41h-121v-307h121l84 40l43 111z" />
    <glyph glyph-name="C" unicode="C" horiz-adv-x="1093" 
d="M1073 954l-258 138l-141 20l-103 -41l-61 -61v-586l61 -62l103 -40h121l278 116l-82 -438h-651l-258 266v901l258 267h651z" />
    <glyph glyph-name="D" unicode="D" horiz-adv-x="1224" 
d="M877 1434l266 -267v-901l-266 -266h-816l41 184v1045l-41 205h816zM745 1034l-20 62l-82 41h-143v-861h143l82 41l20 62v655z" />
    <glyph glyph-name="E" unicode="E" horiz-adv-x="1075" 
d="M797 307l258 62l-99 -369h-895l58 170v1094l-58 170h895l58 -367l-254 61h-225v-227h208l156 29l-4 -350l-152 32h-208v-305h262z" />
    <glyph glyph-name="F" unicode="F" horiz-adv-x="1017" 
d="M539 881h188l156 28l-4 -350l-152 33h-188v-408l82 -184h-560l62 184v1069l-57 181h895l77 -387l-217 61h-282v-227z" />
    <glyph glyph-name="G" unicode="G" horiz-adv-x="1239" 
d="M676 793h522l-41 -115v-412l-225 -266h-584l-266 266v901l266 267h701l81 -471l-333 157h-113l-86 -33l-59 -65v-627l20 -61l78 -41l80 41l20 61v275z" />
    <glyph glyph-name="H" unicode="H" horiz-adv-x="1335" 
d="M563 1434l-41 -185v-381h291v381l-43 185h504l-41 -185v-1065l41 -184h-504l43 184v348h-291v-348l41 -184h-502l41 184v1065l-41 185h502z" />
    <glyph glyph-name="I" unicode="I" horiz-adv-x="657" 
d="M594 1434l-62 -185v-1065l64 -184h-535l62 184v1065l-62 185h533z" />
    <glyph glyph-name="J" unicode="J" horiz-adv-x="935" 
d="M813 266l-260 -266h-481l-103 389l189 -55h129l90 82v829l-82 189h579l-61 -185v-983z" />
    <glyph glyph-name="K" unicode="K" horiz-adv-x="1302" 
d="M662 563l-121 -184v-107l61 -272h-541l62 184v1065l-41 185h500l-41 -226v-389l258 463l-15 152h508l-73 -144l-232 -442l232 -705l94 -143h-479z" />
    <glyph glyph-name="L" unicode="L" horiz-adv-x="1042" 
d="M1094 438l-146 -438h-887l62 184v1065l-62 185h533l-62 -185v-907h232z" />
    <glyph glyph-name="M" unicode="M" horiz-adv-x="1638" 
d="M809 0l-305 819v-635l61 -184h-504l62 184v1065l-62 185h547l221 -603l201 603h547l-61 -185v-1065l61 -184h-506l64 184v635l-310 -819h-16z" />
    <glyph glyph-name="N" unicode="N" horiz-adv-x="1333" 
d="M510 727v-543l41 -184h-469l41 184v1063l-62 187h459l352 -772v577l-49 195h449l-41 -191v-1243h-379z" />
    <glyph glyph-name="O" unicode="O" horiz-adv-x="1265" 
d="M918 1434l266 -267v-901l-266 -266h-570l-266 266v901l266 267h570zM756 1044l-35 62l-90 41l-86 -41l-35 -62v-675l41 -62l80 -41l84 41l41 62v675z" />
    <glyph glyph-name="P" unicode="P" horiz-adv-x="1214" 
d="M907 1434l267 -267v-436l-234 -246l-82 -34h-315v-261l41 -190h-502l41 184v1065l-62 185h846zM727 782l41 162l-41 152l-82 41h-102v-396h102z" />
    <glyph glyph-name="Q" unicode="Q" horiz-adv-x="1265" 
d="M1184 1167v-901l-158 -157l143 -168l-319 -140l-160 199h-342l-266 266v901l266 267h570zM551 307l80 -41l84 41l41 62v675l-35 62l-90 41l-86 -41l-35 -62v-675z" />
    <glyph glyph-name="R" unicode="R" horiz-adv-x="1296" 
d="M1171 143l115 -143h-508l-112 451h-123v-261l41 -190h-502l41 184v1065l-62 185h846l267 -267v-497l-132 -150zM543 1137v-396h102l82 41l41 162l-41 152l-82 41h-102z" />
    <glyph glyph-name="S" unicode="S" horiz-adv-x="1044" 
d="M78 0l-78 477l274 -147l117 -37l107 37l57 65v43l-41 41l-348 162l-123 143v383l266 267h609l75 -449l-252 105l-118 26l-103 -26l-61 -70v-57l41 -48l350 -129l143 -143v-377l-266 -266h-649z" />
    <glyph glyph-name="T" unicode="T" horiz-adv-x="1118" 
d="M1040 1434l68 -414l-135 76l-78 26h-129v-938l61 -184h-532l61 184v938h-129l-82 -20l-135 -82l74 414h956z" />
    <glyph glyph-name="U" unicode="U" horiz-adv-x="1249" 
d="M711 1434h497l-41 -185v-983l-245 -266h-594l-246 266v983l-41 185h498l-33 -185v-884l45 -62l78 -37l78 37l45 62v884z" />
    <glyph glyph-name="V" unicode="V" horiz-adv-x="1265" 
d="M530 1434l-41 -226l150 -778l147 778l-43 226h512l-354 -1434h-549l-342 1434h520z" />
    <glyph glyph-name="W" unicode="W" horiz-adv-x="1875" 
d="M1399 1434h467l-234 -1434h-528l-162 813l-162 -813h-536l-234 1434h484l-23 -226l90 -757l195 983h389l190 -983l82 757z" />
    <glyph glyph-name="X" unicode="X" horiz-adv-x="1419" 
d="M391 770l-330 664h545l-26 -138l141 -301l100 297l-28 142h538l-325 -699l403 -735h-594l12 145l-137 340l-108 -342l28 -141h-600z" />
    <glyph glyph-name="Y" unicode="Y" horiz-adv-x="1327" 
d="M868 518v-252l123 -266h-659l123 266v254l-445 914h568l-29 -144l121 -444l127 444l-31 144h551z" />
    <glyph glyph-name="Z" unicode="Z" horiz-adv-x="1062" 
d="M1010 1182l-453 -795h279l217 76l-101 -463h-846l-86 223l486 824h-258l-238 -97l176 484h713z" />
    <glyph glyph-name="bracketleft" unicode="[" horiz-adv-x="677" 
d="M442 -61h215l-49 -287h-465l-82 143v1823l82 164h443l63 -287h-207v-1556z" />
    <glyph glyph-name="backslash" unicode="\" horiz-adv-x="868" 
d="M399 -303l-399 1941h461l407 -1941h-469z" />
    <glyph glyph-name="bracketright" unicode="]" horiz-adv-x="677" 
d="M236 1495h-216l50 287h465l81 -144v-1822l-81 -164h-443l-63 287h207v1556z" />
    <glyph glyph-name="underscore" unicode="_" horiz-adv-x="1351" 
d="M-2 -332v332h1356v-332h-1356z" />
    <glyph glyph-name="grave" unicode="`" horiz-adv-x="876" 
d="M815 1147h-348l-242 348h461z" />
    <glyph glyph-name="a" unicode="a" horiz-adv-x="1087" 
d="M963 225l104 -225h-481v123l-80 -80l-125 -43h-160l-170 141v248l123 121l412 82v49l-56 66l-155 22l-144 -20l-143 -74l119 389h526l230 -229v-570zM420 272l57 -34l72 30l37 62v92l-166 -41v-109z" />
    <glyph glyph-name="b" unicode="b" horiz-adv-x="1136" 
d="M846 1024l219 -219v-586l-242 -219h-170l-139 59l-49 72l-33 -131h-381l41 143v1229l-41 144h422v-633l78 90l123 51h172zM682 336v352l-14 43l-62 29l-67 -29l-66 -119v-237l47 -105l64 -28l63 28z" />
    <glyph glyph-name="c" unicode="c" horiz-adv-x="964" 
d="M72 817l209 207h575l57 -446l-180 129l-129 14l-108 -31l-47 -43v-266l47 -43l108 -31l129 12l180 121l-57 -440h-575l-209 209v608z" />
    <glyph glyph-name="d" unicode="d" horiz-adv-x="1136" 
d="M1085 0h-405l-10 127l-47 -68l-140 -59h-170l-241 219v586l219 219h233l138 -49v397l-41 144h421v-1373zM616 270l46 101v368l-111 52l-96 -103v-352l34 -66l64 -28z" />
    <glyph glyph-name="e" unicode="e" 
d="M862 412l-428 2v-37l55 -74l103 -33l145 13l219 84l-65 -367h-610l-209 199v626l198 199h531l184 -184v-305zM469 739l-35 -53v-86h197v86l-35 53l-64 29z" />
    <glyph glyph-name="f" unicode="f" horiz-adv-x="761" 
d="M520 1165v-141h191v-190l-41 -37h-150v-654l64 -143h-506l61 143v654h-129v86l127 141h2v254l197 238h364l93 -302l-160 35l-86 -30z" />
    <glyph glyph-name="g" unicode="g" horiz-adv-x="1083" 
d="M662 969l380 96v-1155l-258 -320h-489l-133 62l-49 325l196 -106h266l87 109v135l-39 -56l-140 -59h-170l-241 219v586l219 219h233l138 -137v82zM616 270l46 101v245l-64 115l-68 29l-61 -29l-14 -43v-352l34 -66l64 -28z" />
    <glyph glyph-name="h" unicode="h" horiz-adv-x="1148" 
d="M643 0l39 137v543l-14 43l-62 29l-67 -29l-66 -119v-461l43 -143h-465l41 143v1229l-41 144h422v-633l78 90l123 51h213l178 -158v-723l43 -143h-465z" />
    <glyph glyph-name="i" unicode="i" horiz-adv-x="577" 
d="M41 1245v197l129 127h203l129 -127v-197l-129 -129h-203zM473 1065v-922l64 -143h-506l61 143v656l-61 164z" />
    <glyph glyph-name="j" unicode="j" horiz-adv-x="536" 
d="M367 1569l129 -129v-197l-129 -127h-203l-129 127v197l129 129h203zM66 799l-103 143l483 123v-1217l-217 -258h-307l-96 326l145 -45l76 29l19 100v799z" />
    <glyph glyph-name="k" unicode="k" horiz-adv-x="1183" 
d="M592 371l-98 -119v-109l63 -143h-506l62 143v1209l-62 164h443v-877l190 240l-6 145h465l-285 -338l229 -563l117 -123h-463z" />
    <glyph glyph-name="l" unicode="l" horiz-adv-x="598" 
d="M494 143l63 -143h-506l62 143v1209l-62 164h443v-1373z" />
    <glyph glyph-name="m" unicode="m" horiz-adv-x="1695" 
d="M1200 0l29 135v545l-15 43l-71 29l-66 -29l-35 -57v-523l33 -143h-444l28 135v545l-14 43l-72 29l-65 -29l-35 -57v-523l23 -143h-445l41 143v656l-61 164l442 102v-121l199 80h172l198 -100l189 100h203l178 -158v-723l43 -143h-455z" />
    <glyph glyph-name="n" unicode="n" horiz-adv-x="1148" 
d="M643 0l39 137v543l-14 43l-82 29l-68 -29l-45 -57v-523l23 -143h-445l41 143v656l-61 164l442 102v-129l201 88h213l178 -158v-723l43 -143h-465z" />
    <glyph glyph-name="o" unicode="o" horiz-adv-x="1095" 
d="M72 825l198 199h555l199 -199v-626l-199 -199h-555l-198 199v626zM463 328l35 -66l57 -22l57 22l35 66v372l-35 64l-57 22l-57 -22l-35 -64v-372z" />
    <glyph glyph-name="p" unicode="p" horiz-adv-x="1116" 
d="M846 1024l198 -158v-667l-200 -199h-271l-98 70v-336l23 -144h-447l41 144v1065l-61 164l444 102v-133l160 92h211zM684 356v312l-55 71h-88l-66 -65v-314l43 -69l64 -29l63 29z" />
    <glyph glyph-name="q" unicode="q" horiz-adv-x="1085" 
d="M557 -410l105 226v299l-39 -56l-140 -59h-170l-241 219v586l219 219h172l123 -51l76 -88v84l380 96l2 -1475h-487zM616 270l46 101v245l-64 115l-68 29l-61 -29l-14 -43v-352l34 -66l64 -28z" />
    <glyph glyph-name="r" unicode="r" horiz-adv-x="931" 
d="M825 1044l107 -96v-268l-178 -139l-189 170l-92 -107v-461l23 -143h-445l41 143v656l-61 164l442 102v-182l119 161h233z" />
    <glyph glyph-name="s" unicode="s" horiz-adv-x="890" 
d="M440 354l-315 105l-88 90v285l190 190h545l53 -317l-159 55l-117 18l-105 -18l-43 -49v-27l29 -33l318 -82l102 -112v-269l-191 -190h-573l-55 348l190 -86l101 -24l106 24l43 47v17z" />
    <glyph glyph-name="t" unicode="t" horiz-adv-x="808" 
d="M592 281l186 45l-96 -326h-410l-155 197v600h-127v86l127 141v123l381 205v-328h254v-190l-41 -37h-213v-408l18 -80z" />
    <glyph glyph-name="u" unicode="u" horiz-adv-x="1150" 
d="M1110 0h-446l2 121l-148 -121h-266l-178 158v723l-43 143h426v-639l35 -43l61 -29l68 29l45 43v496l-43 143h424v-881z" />
    <glyph glyph-name="v" unicode="v" horiz-adv-x="1058" 
d="M436 1024l-20 -137l119 -463l116 463l-30 137h458l-364 -1024h-404l-331 1024h456z" />
    <glyph glyph-name="w" unicode="w" horiz-adv-x="1417" 
d="M1024 1024h414l-236 -1024h-414l-75 440l-84 -440h-414l-235 1024h417l-28 -106l71 -527l129 633h295l117 -621l66 515z" />
    <glyph glyph-name="x" unicode="x" horiz-adv-x="1058" 
d="M1079 0h-489l24 109l-98 219l-65 -226l28 -100h-499l258 553l-222 469h482l-27 -96l70 -230l61 246l-29 80h471l-241 -498z" />
    <glyph glyph-name="y" unicode="y" horiz-adv-x="1058" 
d="M612 1024h467l-403 -1356l-98 -78h-297l147 410h-164l-284 1024h469l-56 -137l135 -551l142 551z" />
    <glyph glyph-name="z" unicode="z" horiz-adv-x="874" 
d="M829 848l-335 -543h225l155 53l-71 -358h-729l-64 160l361 565h-211l-170 -70l125 373h635z" />
    <glyph glyph-name="braceleft" unicode="{" horiz-adv-x="909" 
d="M774 -37h135l-63 -313h-301l-174 139l-125 721l-82 102l-103 27v152l103 28l82 144l125 679l174 140h301l47 -314h-119l-59 -47l-78 -520l-76 -125l-115 -33v-47l115 -34l76 -132l78 -520z" />
    <glyph glyph-name="bar" unicode="|" horiz-adv-x="626" 
d="M504 -410h-381v2147l59 65h322v-2212z" />
    <glyph glyph-name="braceright" unicode="}" horiz-adv-x="909" 
d="M135 1468h-135l63 314h302l174 -140l125 -720l81 -103l103 -26v-152l-103 -29l-81 -143l-125 -680l-174 -139h-302l-47 313h119l60 47l77 520l76 125l115 33v47l-115 35l-76 131l-77 520z" />
    <glyph glyph-name="asciitilde" unicode="~" horiz-adv-x="1232" 
d="M293 535l-211 -89l6 265l131 118l170 33l504 -96h88l211 88l-6 -264l-131 -119l-170 -33l-504 97h-88z" />
    <glyph glyph-name="exclamdown" unicode="&#xa1;" horiz-adv-x="645" 
d="M563 725l-94 -94h-293l-94 90v291l94 94h293l94 -94v-287zM180 522h289l80 -540v-310l-82 -82h-279l-82 82v310z" />
    <glyph glyph-name="cent" unicode="&#xa2;" horiz-adv-x="950" 
d="M582 422l104 12l203 101l-66 -392h-161v-217h-304v217h-67l-209 209v609l209 206h67v260h248l56 -41v-219h161l66 -399l-203 109l-104 16l-101 -33l-47 -47v-309l47 -49z" />
    <glyph glyph-name="sterling" unicode="&#xa3;" horiz-adv-x="1228" 
d="M1049 313l178 41v-299l-37 -35l-14 -20h-1106v158l143 155l61 226v4h-233v221h233v403l267 267h594l75 -416l-252 84l-118 26l-103 -26l-61 -70v-268h446v-221h-446l-62 -230h435z" />
    <glyph glyph-name="currency" unicode="&#xa4;" horiz-adv-x="1202" 
d="M1026 498l-39 -62l187 -190l-242 -187l-133 183l-203 -70l-195 68l-131 -181l-250 189l187 182l-41 68v223l53 84l-199 194l250 189l152 -207l174 59l168 -57l168 205l250 -189l-213 -190l57 -88v-223zM729 573v68l-43 70l-90 30l-90 -30l-45 -70v-68l45 -71l90 -31
l90 31z" />
    <glyph glyph-name="yen" unicode="&#xa5;" horiz-adv-x="1388" 
d="M1368 1434l-401 -639h250v-222h-314v-86h314v-221h-314v-82l62 -184h-545l61 184v82h-305v221h305v86h-305v222h242l-398 639h576l-29 -144l133 -301l140 301l-31 144h559z" />
    <glyph glyph-name="brokenbar" unicode="&#xa6;" horiz-adv-x="626" 
d="M131 817v918l55 67h326v-985h-381zM512 537v-947h-381v947h381z" />
    <glyph glyph-name="section" unicode="&#xa7;" horiz-adv-x="1120" 
d="M1059 664v-234l-139 -143l129 -129v-301l-267 -267h-643l-78 473l295 -147l90 -37l107 37l57 66v47l-41 41l-348 161l-123 144v239l125 113l-155 174v266l266 267h602l76 -445l-252 105l-154 26l-123 -43v-94l41 -47l391 -129zM446 502l211 -92l31 51v74l-215 86l-27 -41
v-78z" />
    <glyph glyph-name="dieresis" unicode="&#xa8;" horiz-adv-x="1040" 
d="M174 1518h168l113 -113v-174l-113 -113h-168l-113 113v174zM698 1518h168l113 -113v-174l-113 -113h-168l-112 113v174z" />
    <glyph glyph-name="guillemotleft" unicode="&#xab;" horiz-adv-x="1476" 
d="M807 137l-311 469l311 490l-55 82h-320l-350 -525v-82l350 -520h311zM1395 1092l-64 86h-309l-352 -521v-82l352 -524h317l56 82l-312 490z" />
    <glyph glyph-name="uni00AD" unicode="&#xad;" horiz-adv-x="940" 
d="M745 500h-684v331h799l-39 -274z" />
    <glyph glyph-name="macron" unicode="&#xaf;" horiz-adv-x="1058" 
d="M913 1137h-770l-20 317h813z" />
    <glyph glyph-name="degree" unicode="&#xb0;" horiz-adv-x="692" 
d="M117 940l-97 234l91 212l243 105l221 -90l97 -227l-90 -220l-228 -104zM276 1096l78 -27l76 33l27 72l-33 73l-70 27l-84 -31l-26 -69z" />
    <glyph glyph-name="plusminus" unicode="&#xb1;" horiz-adv-x="1228" 
d="M764 1047h377v-302h-377v-305h-303v305h-316l-63 58v244h381v266l57 63h244v-329zM82 362h995l64 -57v-244h-1059v301z" />
    <glyph glyph-name="acute" unicode="&#xb4;" horiz-adv-x="876" 
d="M61 1147l150 348h461l-262 -348h-349z" />
    <glyph glyph-name="uni00B5" unicode="&#xb5;" horiz-adv-x="1150" 
d="M455 -266l22 -144h-444l41 144v1147l-43 143h426v-639l35 -43l61 -29l68 29l45 43v496l-43 143h424v-881l63 -143h-446l2 121l-148 -121h-63v-266z" />
    <glyph glyph-name="paragraph" unicode="&#xb6;" horiz-adv-x="1540" 
d="M1561 1434l-76 -301h-68v-990l64 -143h-506l61 143v990h-166v-949l41 -184h-469l41 190v302h-178l-233 219v477l286 246h1203z" />
    <glyph glyph-name="periodcentered" unicode="&#xb7;" horiz-adv-x="595" 
d="M391 362h-186l-123 123v193l123 123h186l123 -123v-193z" />
    <glyph glyph-name="cedilla" unicode="&#xb8;" horiz-adv-x="1351" 
d="M471 -489l-78 77v146l51 -29h160l37 41l-37 45h-160l-57 76l47 78l101 55h174l-50 -53h97l114 -105v-219l-125 -112h-274z" />
    <glyph glyph-name="guillemotright" unicode="&#xbb;" horiz-adv-x="1476" 
d="M82 137l63 -86h310l352 520v82l-352 525h-318l-55 -82l311 -490zM670 1092l311 -469l-311 -490l55 -82h319l351 524v82l-351 521h-311z" />
    <glyph glyph-name="questiondown" unicode="&#xbf;" horiz-adv-x="1017" 
d="M315 745v287l95 94h292l95 -94v-291l-95 -90h-292zM354 422l-157 -80l-156 -203v-344l246 -205h614l76 457l-252 -104l-119 -27l-102 27l-62 63v62l62 84l248 100v164l-62 106h-295z" />
    <glyph glyph-name="Agrave" unicode="&#xc0;" horiz-adv-x="1286" 
d="M852 1552h-348l-242 349h461zM283 1270l-39 164h798l-47 -164l187 -1004l94 -266h-524l43 266h-299l39 -266h-525l94 266zM684 1112h-61l-103 -551h254z" />
    <glyph glyph-name="Aacute" unicode="&#xc1;" horiz-adv-x="1286" 
d="M451 1552l149 349h461l-262 -349h-348zM283 1270l-39 164h798l-47 -164l187 -1004l94 -266h-524l43 266h-299l39 -266h-525l94 266zM684 1112h-61l-103 -551h254z" />
    <glyph glyph-name="Acircumflex" unicode="&#xc2;" horiz-adv-x="1286" 
d="M221 1552l217 349h453l225 -349h-334l-114 103l-113 -103h-334zM283 1270l-39 164h798l-47 -164l187 -1004l94 -266h-524l43 266h-299l39 -266h-525l94 266zM684 1112h-61l-103 -551h254z" />
    <glyph glyph-name="Atilde" unicode="&#xc3;" horiz-adv-x="1286" 
d="M883 1837l153 88l-4 -256l-96 -119l-123 -32l-297 96h-63l-154 -88l4 256l96 119l123 32l297 -96h64zM283 1270l-39 164h798l-47 -164l187 -1004l94 -266h-524l43 266h-299l39 -266h-525l94 266zM684 1112h-61l-103 -551h254z" />
    <glyph glyph-name="Adieresis" unicode="&#xc4;" horiz-adv-x="1286" 
d="M305 1923h168l113 -113v-174l-113 -112h-168l-112 112v174zM829 1923h168l113 -113v-174l-113 -112h-168l-112 112v174zM283 1270l-39 164h798l-47 -164l187 -1004l94 -266h-524l43 266h-299l39 -266h-525l94 266zM684 1112h-61l-103 -551h254z" />
    <glyph glyph-name="Aring" unicode="&#xc5;" horiz-adv-x="1286" 
d="M395 1651v227l150 150h250l153 -150v-227l-157 -150h-246zM590 1724l43 -43h72l43 43v80l-43 43h-72l-43 -43v-80zM283 1270l-39 164h798l-47 -164l187 -1004l94 -266h-524l43 266h-299l39 -266h-525l94 266zM684 1112h-61l-103 -551h254z" />
    <glyph glyph-name="AE" unicode="&#xc6;" horiz-adv-x="1832" 
d="M1554 309l258 103l-77 -412h-942l57 264v2h-328l33 -266h-545l123 266l283 1004l-23 164h1280l99 -371l-254 61h-246v-223h168l155 29l-4 -350l-151 32h-168v-303h282zM588 561h262v557h-80z" />
    <glyph glyph-name="Ccedilla" unicode="&#xc7;" horiz-adv-x="1093" 
d="M674 322h121l278 116l-82 -438h-297l-49 -53h96l115 -105v-219l-125 -112h-274l-78 77v146l51 -29h160l37 41l-37 45h-160l-57 76l47 78l100 55h-180l-258 266v901l258 267h651l82 -480l-258 138l-141 20l-103 -41l-61 -61v-586l61 -62z" />
    <glyph glyph-name="Egrave" unicode="&#xc8;" horiz-adv-x="1075" 
d="M719 1552h-348l-242 349h461zM797 307l258 62l-99 -369h-895l58 170v1094l-58 170h895l58 -367l-254 61h-225v-227h208l156 29l-4 -350l-152 32h-208v-305h262z" />
    <glyph glyph-name="Eacute" unicode="&#xc9;" horiz-adv-x="1075" 
d="M928 1901l-262 -349h-349l150 349h461zM797 307l258 62l-99 -369h-895l58 170v1094l-58 170h895l58 -367l-254 61h-225v-227h208l156 29l-4 -350l-152 32h-208v-305h262z" />
    <glyph glyph-name="Ecircumflex" unicode="&#xca;" horiz-adv-x="1075" 
d="M535 1655l-113 -103h-334l217 349h453l225 -349h-334zM797 307l258 62l-99 -369h-895l58 170v1094l-58 170h895l58 -367l-254 61h-225v-227h208l156 29l-4 -350l-152 32h-208v-305h262z" />
    <glyph glyph-name="Edieresis" unicode="&#xcb;" horiz-adv-x="1075" 
d="M340 1524h-168l-113 112v174l113 113h168l113 -113v-174zM864 1524h-168l-112 112v174l112 113h168l113 -113v-174zM797 307l258 62l-99 -369h-895l58 170v1094l-58 170h895l58 -367l-254 61h-225v-227h208l156 29l-4 -350l-152 32h-208v-305h262z" />
    <glyph glyph-name="Igrave" unicode="&#xcc;" horiz-adv-x="657" 
d="M514 1552h-348l-242 349h461zM594 1434l-62 -185v-1065l64 -184h-535l62 184v1065l-62 185h533z" />
    <glyph glyph-name="Iacute" unicode="&#xcd;" horiz-adv-x="657" 
d="M113 1552l149 349h461l-262 -349h-348zM594 1434l-62 -185v-1065l64 -184h-535l62 184v1065l-62 185h533z" />
    <glyph glyph-name="Icircumflex" unicode="&#xce;" horiz-adv-x="657" 
d="M-117 1552l217 349h453l225 -349h-334l-114 103l-113 -103h-334zM594 1434l-62 -185v-1065l64 -184h-535l62 184v1065l-62 185h533z" />
    <glyph glyph-name="Idieresis" unicode="&#xcf;" horiz-adv-x="657" 
d="M-33 1923h168l113 -113v-174l-113 -112h-168l-112 112v174zM492 1923h167l113 -113v-174l-113 -112h-167l-113 112v174zM594 1434l-62 -185v-1065l64 -184h-535l62 184v1065l-62 185h533z" />
    <glyph glyph-name="Eth" unicode="&#xd0;" horiz-adv-x="1245" 
d="M897 1434l266 -267v-901l-266 -266h-815l41 184v375h-103v332h103v338l-41 205h815zM766 379v655l-21 62l-81 41h-144v-246h160l-33 -275l-61 -57h-66v-283h144l81 41z" />
    <glyph glyph-name="Ntilde" unicode="&#xd1;" horiz-adv-x="1333" 
d="M874 1837l154 88l-4 -256l-96 -119l-123 -32l-297 96h-64l-153 -88l4 256l96 119l123 32l297 -96h63zM510 727v-543l41 -184h-469l41 184v1063l-62 187h459l352 -772v577l-49 195h449l-41 -191v-1243h-379z" />
    <glyph glyph-name="Ograve" unicode="&#xd2;" horiz-adv-x="1265" 
d="M825 1552h-348l-241 349h460zM918 1434l266 -267v-901l-266 -266h-570l-266 266v901l266 267h570zM756 1044l-35 62l-90 41l-86 -41l-35 -62v-675l41 -62l80 -41l84 41l41 62v675z" />
    <glyph glyph-name="Oacute" unicode="&#xd3;" horiz-adv-x="1265" 
d="M424 1552l149 349h461l-262 -349h-348zM918 1434l266 -267v-901l-266 -266h-570l-266 266v901l266 267h570zM756 1044l-35 62l-90 41l-86 -41l-35 -62v-675l41 -62l80 -41l84 41l41 62v675z" />
    <glyph glyph-name="Ocircumflex" unicode="&#xd4;" horiz-adv-x="1265" 
d="M195 1552l217 349h452l226 -349h-334l-115 103l-113 -103h-333zM918 1434l266 -267v-901l-266 -266h-570l-266 266v901l266 267h570zM756 1044l-35 62l-90 41l-86 -41l-35 -62v-675l41 -62l80 -41l84 41l41 62v675z" />
    <glyph glyph-name="Otilde" unicode="&#xd5;" horiz-adv-x="1265" 
d="M856 1837l154 88l-4 -256l-97 -119l-123 -32l-297 96h-63l-154 -88l4 256l97 119l123 32l297 -96h63zM918 1434l266 -267v-901l-266 -266h-570l-266 266v901l266 267h570zM756 1044l-35 62l-90 41l-86 -41l-35 -62v-675l41 -62l80 -41l84 41l41 62v675z" />
    <glyph glyph-name="Odieresis" unicode="&#xd6;" horiz-adv-x="1265" 
d="M279 1923h167l113 -113v-174l-113 -112h-167l-113 112v174zM803 1923h168l112 -113v-174l-112 -112h-168l-113 112v174zM918 1434l266 -267v-901l-266 -266h-570l-266 266v901l266 267h570zM756 1044l-35 62l-90 41l-86 -41l-35 -62v-675l41 -62l80 -41l84 41l41 62v675z
" />
    <glyph glyph-name="multiply" unicode="&#xd7;" horiz-adv-x="1222" 
d="M831 696l269 -268l-172 -172l-86 4l-224 223l-258 -260l-215 215l261 260l-267 267l213 211l266 -267l277 277l172 -172l-4 -84z" />
    <glyph glyph-name="Oslash" unicode="&#xd8;" horiz-adv-x="1263" 
d="M1346 1608l-261 -342l99 -99v-901l-266 -266h-570l-108 -137h-322l246 321l-82 82v901l266 267h565l136 174h297zM756 369v675l-35 62l-90 41l-86 -41l-35 -62v-675l41 -62l80 -41l84 41z" />
    <glyph glyph-name="Ugrave" unicode="&#xd9;" horiz-adv-x="1249" 
d="M807 1552h-348l-242 349h461zM711 1434h497l-41 -185v-983l-245 -266h-594l-246 266v983l-41 185h498l-33 -185v-884l45 -62l78 -37l78 37l45 62v884z" />
    <glyph glyph-name="Uacute" unicode="&#xda;" horiz-adv-x="1249" 
d="M1016 1901l-262 -349h-348l149 349h461zM711 1434h497l-41 -185v-983l-245 -266h-594l-246 266v983l-41 185h498l-33 -185v-884l45 -62l78 -37l78 37l45 62v884z" />
    <glyph glyph-name="Ucircumflex" unicode="&#xdb;" horiz-adv-x="1249" 
d="M623 1655l-113 -103h-334l217 349h453l225 -349h-334zM711 1434h497l-41 -185v-983l-245 -266h-594l-246 266v983l-41 185h498l-33 -185v-884l45 -62l78 -37l78 37l45 62v884z" />
    <glyph glyph-name="Udieresis" unicode="&#xdc;" horiz-adv-x="1249" 
d="M428 1524h-168l-113 112v174l113 113h168l113 -113v-174zM952 1524h-168l-112 112v174l112 113h168l113 -113v-174zM711 1434h497l-41 -185v-983l-245 -266h-594l-246 266v983l-41 185h498l-33 -185v-884l45 -62l78 -37l78 37l45 62v884z" />
    <glyph glyph-name="Yacute" unicode="&#xdd;" horiz-adv-x="1327" 
d="M1063 1901l-262 -349h-348l149 349h461zM868 518v-252l123 -266h-659l123 266v254l-445 914h568l-29 -144l121 -444l127 444l-31 144h551z" />
    <glyph glyph-name="Thorn" unicode="&#xde;" horiz-adv-x="1234" 
d="M928 1217l266 -267v-436l-266 -281h-369v-49l64 -184h-541l61 184v1065l-82 185h560l-62 -164v-53h369zM750 565l41 162l-41 152l-82 41h-109v-396h109z" />
    <glyph glyph-name="germandbls" unicode="&#xdf;" horiz-adv-x="1099" 
d="M936 621l113 -132v-346l-164 -143h-324l-55 240l125 53l41 110l-41 95h-123l154 247h-209v-1011l43 -144h-465l41 144v1618l-62 164h443v-492h481l104 -113l-192 -290h90z" />
    <glyph glyph-name="agrave" unicode="&#xe0;" horiz-adv-x="1087" 
d="M713 1147h-348l-242 348h461zM963 225l104 -225h-481v123l-80 -80l-125 -43h-160l-170 141v248l123 121l412 82v49l-56 66l-155 22l-144 -20l-143 -74l119 389h526l230 -229v-570zM420 272l57 -34l72 30l37 62v92l-166 -41v-109z" />
    <glyph glyph-name="aacute" unicode="&#xe1;" horiz-adv-x="1087" 
d="M311 1147l150 348h461l-263 -348h-348zM963 225l104 -225h-481v123l-80 -80l-125 -43h-160l-170 141v248l123 121l412 82v49l-56 66l-155 22l-144 -20l-143 -74l119 389h526l230 -229v-570zM420 272l57 -34l72 30l37 62v92l-166 -41v-109z" />
    <glyph glyph-name="acircumflex" unicode="&#xe2;" horiz-adv-x="1087" 
d="M82 1147l217 348h453l225 -348h-334l-115 102l-112 -102h-334zM963 225l104 -225h-481v123l-80 -80l-125 -43h-160l-170 141v248l123 121l412 82v49l-56 66l-155 22l-144 -20l-143 -74l119 389h526l230 -229v-570zM420 272l57 -34l72 30l37 62v92l-166 -41v-109z" />
    <glyph glyph-name="atilde" unicode="&#xe3;" horiz-adv-x="1087" 
d="M743 1432l154 88l-4 -256l-96 -119l-123 -33l-297 96h-64l-153 -88l4 256l96 119l123 33l297 -96h63zM963 225l104 -225h-481v123l-80 -80l-125 -43h-160l-170 141v248l123 121l412 82v49l-56 66l-155 22l-144 -20l-143 -74l119 389h526l230 -229v-570zM420 272l57 -34
l72 30l37 62v92l-166 -41v-109z" />
    <glyph glyph-name="adieresis" unicode="&#xe4;" horiz-adv-x="1087" 
d="M166 1518h168l112 -113v-174l-112 -113h-168l-113 113v174zM690 1518h168l113 -113v-174l-113 -113h-168l-112 113v174zM963 225l104 -225h-481v123l-80 -80l-125 -43h-160l-170 141v248l123 121l412 82v49l-56 66l-155 22l-144 -20l-143 -74l119 389h526l230 -229v-570z
M420 272l57 -34l72 30l37 62v92l-166 -41v-109z" />
    <glyph glyph-name="aring" unicode="&#xe5;" horiz-adv-x="1087" 
d="M256 1245v228l150 149h249l154 -149v-228l-158 -149h-245zM451 1319l43 -43h71l43 43v80l-43 43h-71l-43 -43v-80zM963 225l104 -225h-481v123l-80 -80l-125 -43h-160l-170 141v248l123 121l412 82v49l-56 66l-155 22l-144 -20l-143 -74l119 389h526l230 -229v-570z
M420 272l57 -34l72 30l37 62v92l-166 -41v-109z" />
    <glyph glyph-name="ae" unicode="&#xe6;" horiz-adv-x="1562" 
d="M1368 412l-405 2v-54l55 -73l100 -33l125 12l227 101l-65 -367h-635l-123 123l-80 -80l-145 -43h-180l-191 170v227l144 133l391 82v39l-56 66l-135 22l-155 -20l-144 -53l119 358h518l53 -51l52 51h469l184 -184v-305zM1061 793l-64 -29l-34 -64v-100h196v100l-35 64z
M586 348v51l-187 -43v-71l47 -45l113 41z" />
    <glyph glyph-name="ccedilla" unicode="&#xe7;" horiz-adv-x="964" 
d="M604 307l129 12l180 121l-57 -440h-260l-49 -53h96l115 -105v-219l-125 -112h-275l-77 77v146l51 -29h160l36 41l-36 45h-160l-58 76l48 78l100 55h-141l-209 209v608l209 207h575l57 -446l-180 129l-129 14l-108 -31l-47 -43v-266l47 -43z" />
    <glyph glyph-name="egrave" unicode="&#xe8;" 
d="M721 1147h-348l-242 348h461zM862 412l-428 2v-37l55 -74l103 -33l145 13l219 84l-65 -367h-610l-209 199v626l198 199h531l184 -184v-305zM469 739l-35 -53v-86h197v86l-35 53l-64 29z" />
    <glyph glyph-name="eacute" unicode="&#xe9;" 
d="M930 1495l-262 -348h-349l150 348h461zM862 412l-428 2v-37l55 -74l103 -33l145 13l219 84l-65 -367h-610l-209 199v626l198 199h531l184 -184v-305zM469 739l-35 -53v-86h197v86l-35 53l-64 29z" />
    <glyph glyph-name="ecircumflex" unicode="&#xea;" 
d="M537 1249l-113 -102h-334l217 348h453l225 -348h-334zM270 1024h531l184 -184v-305l-123 -123l-428 2v-37l55 -74l103 -33l145 13l219 84l-65 -367h-610l-209 199v626zM631 600v86l-35 53l-64 29l-63 -29l-35 -53v-86h197z" />
    <glyph glyph-name="edieresis" unicode="&#xeb;" 
d="M342 1118h-168l-113 113v174l113 113h168l113 -113v-174zM866 1118h-168l-112 113v174l112 113h168l113 -113v-174zM862 412l-428 2v-37l55 -74l103 -33l145 13l219 84l-65 -367h-610l-209 199v626l198 199h531l184 -184v-305zM469 739l-35 -53v-86h197v86l-35 53l-64 29
z" />
    <glyph glyph-name="igrave" unicode="&#xec;" horiz-adv-x="577" 
d="M475 1147h-348l-242 348h461zM473 143l64 -143h-506l61 143v656l-61 164l442 102v-922z" />
    <glyph glyph-name="iacute" unicode="&#xed;" horiz-adv-x="577" 
d="M74 1147l149 348h461l-262 -348h-348zM473 143l64 -143h-506l61 143v656l-61 164l442 102v-922z" />
    <glyph glyph-name="icircumflex" unicode="&#xee;" horiz-adv-x="577" 
d="M-156 1147l217 348h453l225 -348h-333l-115 102l-113 -102h-334zM473 143l64 -143h-506l61 143v656l-61 164l442 102v-922z" />
    <glyph glyph-name="idieresis" unicode="&#xef;" horiz-adv-x="577" 
d="M-72 1518h168l113 -113v-174l-113 -113h-168l-112 113v174zM453 1518h168l112 -113v-174l-112 -113h-168l-113 113v174zM473 143l64 -143h-506l61 143v656l-61 164l442 102v-922z" />
    <glyph glyph-name="eth" unicode="&#xf0;" horiz-adv-x="1110" 
d="M1069 1352l-141 -82l55 -123v-948l-199 -199h-514l-198 199v585l178 158h256l127 -94v250l-174 -101l-105 164l140 82l-125 27l-240 -62l57 308h355l272 -84l148 86zM598 252l35 45v356l-103 76l-94 -65v-367l35 -45l64 -29z" />
    <glyph glyph-name="ntilde" unicode="&#xf1;" horiz-adv-x="1148" 
d="M422 1208h-64l-153 -88l4 256l96 119l123 33l297 -96h63l154 88l-4 -256l-96 -119l-123 -33zM643 0l39 137v543l-14 43l-82 29l-68 -29l-45 -57v-523l23 -143h-445l41 143v656l-61 164l442 102v-129l201 88h213l178 -158v-723l43 -143h-465z" />
    <glyph glyph-name="ograve" unicode="&#xf2;" horiz-adv-x="1095" 
d="M737 1147h-348l-242 348h461zM72 825l198 199h555l199 -199v-626l-199 -199h-555l-198 199v626zM463 328l35 -66l57 -22l57 22l35 66v372l-35 64l-57 22l-57 -22l-35 -64v-372z" />
    <glyph glyph-name="oacute" unicode="&#xf3;" horiz-adv-x="1095" 
d="M336 1147l149 348h461l-262 -348h-348zM72 825l198 199h555l199 -199v-626l-199 -199h-555l-198 199v626zM463 328l35 -66l57 -22l57 22l35 66v372l-35 64l-57 22l-57 -22l-35 -64v-372z" />
    <glyph glyph-name="ocircumflex" unicode="&#xf4;" horiz-adv-x="1095" 
d="M106 1147l218 348h452l225 -348h-333l-115 102l-113 -102h-334zM72 825l198 199h555l199 -199v-626l-199 -199h-555l-198 199v626zM463 328l35 -66l57 -22l57 22l35 66v372l-35 64l-57 22l-57 -22l-35 -64v-372z" />
    <glyph glyph-name="otilde" unicode="&#xf5;" horiz-adv-x="1095" 
d="M768 1432l154 88l-4 -256l-97 -119l-123 -33l-297 96h-63l-154 -88l4 256l97 119l123 33l297 -96h63zM72 825l198 199h555l199 -199v-626l-199 -199h-555l-198 199v626zM463 328l35 -66l57 -22l57 22l35 66v372l-35 64l-57 22l-57 -22l-35 -64v-372z" />
    <glyph glyph-name="odieresis" unicode="&#xf6;" horiz-adv-x="1095" 
d="M190 1518h168l113 -113v-174l-113 -113h-168l-112 113v174zM715 1518h168l112 -113v-174l-112 -113h-168l-113 113v174zM72 825l198 199h555l199 -199v-626l-199 -199h-555l-198 199v626zM463 328l35 -66l57 -22l57 22l35 66v372l-35 64l-57 22l-57 -22l-35 -64v-372z
" />
    <glyph glyph-name="divide" unicode="&#xf7;" horiz-adv-x="1228" 
d="M682 913h-186l-123 123v193l123 123h186l123 -123v-193zM117 516l-64 57v244h1059v-301h-995zM811 119l-123 -123h-192l-123 123v186l123 123h192l123 -123v-186z" />
    <glyph glyph-name="oslash" unicode="&#xf8;" horiz-adv-x="927" 
d="M811 913l76 -75l12 -639l-199 -199h-372l-90 -137h-310l152 243l-92 93v626l198 199h389l107 168h317zM543 319v373l-35 66l-64 28l-63 -28l-35 -66v-373l35 -63l63 -29l64 29z" />
    <glyph glyph-name="ugrave" unicode="&#xf9;" horiz-adv-x="1150" 
d="M727 1147h-348l-242 348h461zM1110 0h-446l2 121l-148 -121h-266l-178 158v723l-43 143h426v-639l35 -43l61 -29l68 29l45 43v496l-43 143h424v-881z" />
    <glyph glyph-name="uacute" unicode="&#xfa;" horiz-adv-x="1150" 
d="M936 1495l-262 -348h-348l149 348h461zM1110 0h-446l2 121l-148 -121h-266l-178 158v723l-43 143h426v-639l35 -43l61 -29l68 29l45 43v496l-43 143h424v-881z" />
    <glyph glyph-name="ucircumflex" unicode="&#xfb;" horiz-adv-x="1150" 
d="M543 1249l-113 -102h-334l217 348h453l225 -348h-334zM1110 0h-446l2 121l-148 -121h-266l-178 158v723l-43 143h426v-639l35 -43l61 -29l68 29l45 43v496l-43 143h424v-881z" />
    <glyph glyph-name="udieresis" unicode="&#xfc;" horiz-adv-x="1150" 
d="M348 1118h-168l-112 113v174l112 113h168l113 -113v-174zM872 1118h-167l-113 113v174l113 113h167l113 -113v-174zM1110 0h-446l2 121l-148 -121h-266l-178 158v723l-43 143h426v-639l35 -43l61 -29l68 29l45 43v496l-43 143h424v-881z" />
    <glyph glyph-name="yacute" unicode="&#xfd;" horiz-adv-x="1058" 
d="M922 1495l-263 -348h-348l150 348h461zM612 1024h467l-403 -1356l-98 -78h-297l147 410h-164l-284 1024h469l-56 -137l135 -551l142 551z" />
    <glyph glyph-name="thorn" unicode="&#xfe;" horiz-adv-x="1116" 
d="M846 1024l198 -158v-667l-200 -199h-293l-98 70v-336l22 -144h-444l41 144v1618l-62 164h443v-584l159 92h234zM662 336v352l-56 72h-88l-65 -66v-354l43 -70l63 -28l64 28z" />
    <glyph glyph-name="ydieresis" unicode="&#xff;" horiz-adv-x="1058" 
d="M334 1118h-168l-113 113v174l113 113h168l112 -113v-174zM858 1118h-168l-112 113v174l112 113h168l113 -113v-174zM612 1024h467l-403 -1356l-98 -78h-297l147 410h-164l-284 1024h469l-56 -137l135 -551l142 551z" />
    <glyph glyph-name="Amacron" unicode="&#x100;" horiz-adv-x="1286" 
d="M1057 1542h-770l-21 318h813zM283 1270l-39 164h798l-47 -164l187 -1004l94 -266h-524l43 266h-299l39 -266h-525l94 266zM684 1112h-61l-103 -551h254z" />
    <glyph glyph-name="amacron" unicode="&#x101;" horiz-adv-x="1087" 
d="M918 1137h-771l-20 317h813zM963 225l104 -225h-481v123l-80 -80l-125 -43h-160l-170 141v248l123 121l412 82v49l-56 66l-155 22l-144 -20l-143 -74l119 389h526l230 -229v-570zM420 272l57 -34l72 30l37 62v92l-166 -41v-109z" />
    <glyph glyph-name="Abreve" unicode="&#x102;" horiz-adv-x="1286" 
d="M1032 1896l-8 -137l-76 -121l-112 -86l-168 -41l-168 41l-129 86l-72 121l-8 137h274l25 -75l78 -37l77 37l23 75h264zM283 1270l-39 164h798l-47 -164l187 -1004l94 -266h-524l43 266h-299l39 -266h-525l94 266zM684 1112h-61l-103 -551h254z" />
    <glyph glyph-name="abreve" unicode="&#x103;" horiz-adv-x="1087" 
d="M893 1491l-8 -137l-76 -121l-113 -86l-168 -41l-168 41l-129 86l-71 121l-8 137h274l25 -76l77 -37l78 37l23 76h264zM963 225l104 -225h-481v123l-80 -80l-125 -43h-160l-170 141v248l123 121l412 82v49l-56 66l-155 22l-144 -20l-143 -74l119 389h526l230 -229v-570z
M420 272l57 -34l72 30l37 62v92l-166 -41v-109z" />
    <glyph glyph-name="Aogonek" unicode="&#x104;" horiz-adv-x="1286" 
d="M897 -16l-57 -90l-35 -68l35 -62l63 -40h66v-136l-78 -77h-275l-145 133v198l84 92l199 84l41 248h-299l39 -266h-525l94 266l179 1004l-39 164h798l-47 -164l187 -1004l94 -266h-246zM520 561h254l-90 551h-61z" />
    <glyph glyph-name="aogonek" unicode="&#x105;" horiz-adv-x="1087" 
d="M745 -16l-57 -90l-35 -68l35 -62l64 -40h65v-136l-78 -77h-274l-146 133v198l84 92l183 76v113l-80 -80l-125 -43h-160l-170 141v248l123 121l412 82v49l-56 66l-155 22l-144 -20l-143 -74l119 389h526l230 -229v-570l104 -225h-188zM549 268l37 62v92l-166 -41v-109
l57 -34z" />
    <glyph glyph-name="Cacute" unicode="&#x106;" horiz-adv-x="1093" 
d="M426 1552l149 349h461l-262 -349h-348zM1073 954l-258 138l-141 20l-103 -41l-61 -61v-586l61 -62l103 -40h121l278 116l-82 -438h-651l-258 266v901l258 267h651z" />
    <glyph glyph-name="cacute" unicode="&#x107;" horiz-adv-x="964" 
d="M317 1147l150 348h461l-262 -348h-349zM72 817l209 207h575l57 -446l-180 129l-129 14l-108 -31l-47 -43v-266l47 -43l108 -31l129 12l180 121l-57 -440h-575l-209 209v608z" />
    <glyph glyph-name="Ccircumflex" unicode="&#x108;" horiz-adv-x="1093" 
d="M197 1552l217 349h452l226 -349h-334l-115 103l-113 -103h-333zM1073 954l-258 138l-141 20l-103 -41l-61 -61v-586l61 -62l103 -40h121l278 116l-82 -438h-651l-258 266v901l258 267h651z" />
    <glyph glyph-name="ccircumflex" unicode="&#x109;" horiz-adv-x="964" 
d="M88 1147l217 348h453l225 -348h-334l-114 102l-113 -102h-334zM72 817l209 207h575l57 -446l-180 129l-129 14l-108 -31l-47 -43v-266l47 -43l108 -31l129 12l180 121l-57 -440h-575l-209 209v608z" />
    <glyph glyph-name="Cdotaccent" unicode="&#x10a;" horiz-adv-x="1093" 
d="M422 1630v187l123 122h192l123 -122v-187l-123 -123h-192zM1073 954l-258 138l-141 20l-103 -41l-61 -61v-586l61 -62l103 -40h121l278 116l-82 -438h-651l-258 266v901l258 267h651z" />
    <glyph glyph-name="cdotaccent" unicode="&#x10b;" horiz-adv-x="964" 
d="M313 1225v186l123 123h193l123 -123v-186l-123 -123h-193zM72 817l209 207h575l57 -446l-180 129l-129 14l-108 -31l-47 -43v-266l47 -43l108 -31l129 12l180 121l-57 -440h-575l-209 209v608z" />
    <glyph glyph-name="Ccaron" unicode="&#x10c;" horiz-adv-x="1093" 
d="M207 1901h334l112 -103l115 103h334l-225 -349h-453zM1073 954l-258 138l-141 20l-103 -41l-61 -61v-586l61 -62l103 -40h121l278 116l-82 -438h-651l-258 266v901l258 267h651z" />
    <glyph glyph-name="ccaron" unicode="&#x10d;" horiz-adv-x="964" 
d="M98 1495h334l113 -102l114 102h334l-225 -348h-453zM72 817l209 207h575l57 -446l-180 129l-129 14l-108 -31l-47 -43v-266l47 -43l108 -31l129 12l180 121l-57 -440h-575l-209 209v608z" />
    <glyph glyph-name="Dcaron" unicode="&#x10e;" horiz-adv-x="1224" 
d="M115 1901h334l112 -103l115 103h334l-226 -349h-452zM877 1434l266 -267v-901l-266 -266h-816l41 184v1045l-41 205h816zM745 1034l-20 62l-82 41h-143v-861h143l82 41l20 62v655z" />
    <glyph glyph-name="dcaron" unicode="&#x10f;" horiz-adv-x="1136" 
d="M1085 0h-405l-10 127l-47 -68l-140 -59h-170l-241 219v586l219 219h233l138 -49v397l-41 144h421v-1373zM569 1106h-250l-98 410h350zM616 270l46 101v368l-111 52l-96 -103v-352l34 -66l64 -28z" />
    <glyph glyph-name="Dcroat" unicode="&#x110;" horiz-adv-x="1245" 
d="M897 1434l266 -267v-901l-266 -266h-815l41 184v375h-103v332h103v338l-41 205h815zM766 379v655l-21 62l-81 41h-144v-246h160l-33 -275l-61 -57h-66v-283h144l81 41z" />
    <glyph glyph-name="dcroat" unicode="&#x111;" horiz-adv-x="1153" 
d="M1122 1147h-80v-1004l43 -143h-405l-10 127l-47 -68l-140 -59h-170l-241 219v586l219 219h233l138 -49v172h-220l-41 227h261l-41 142h421v-142h121zM616 270l46 101v368l-111 52l-96 -103v-352l34 -66l64 -28z" />
    <glyph glyph-name="Emacron" unicode="&#x112;" horiz-adv-x="1075" 
d="M924 1542h-770l-21 318h813zM797 307l258 62l-99 -369h-895l58 170v1094l-58 170h895l58 -367l-254 61h-225v-227h208l156 29l-4 -350l-152 32h-208v-305h262z" />
    <glyph glyph-name="emacron" unicode="&#x113;" 
d="M926 1137h-770l-21 317h813zM862 412l-428 2v-37l55 -74l103 -33l145 13l219 84l-65 -367h-610l-209 199v626l198 199h531l184 -184v-305zM469 739l-35 -53v-86h197v86l-35 53l-64 29z" />
    <glyph glyph-name="Ebreve" unicode="&#x114;" horiz-adv-x="1075" 
d="M238 1638l-72 121l-8 137h274l25 -75l78 -37l77 37l23 75h264l-8 -137l-76 -121l-113 -86l-167 -41l-168 41zM797 307l258 62l-99 -369h-895l58 170v1094l-58 170h895l58 -367l-254 61h-225v-227h208l156 29l-4 -350l-152 32h-208v-305h262z" />
    <glyph glyph-name="ebreve" unicode="&#x115;" 
d="M240 1233l-72 121l-8 137h274l25 -76l78 -37l77 37l23 76h264l-8 -137l-76 -121l-112 -86l-168 -41l-168 41zM862 412l-428 2v-37l55 -74l103 -33l145 13l219 84l-65 -367h-610l-209 199v626l198 199h531l184 -184v-305zM469 739l-35 -53v-86h197v86l-35 53l-64 29z" />
    <glyph glyph-name="Edotaccent" unicode="&#x116;" horiz-adv-x="1075" 
d="M629 1507h-193l-123 123v187l123 122h193l123 -122v-187zM797 307l258 62l-99 -369h-895l58 170v1094l-58 170h895l58 -367l-254 61h-225v-227h208l156 29l-4 -350l-152 32h-208v-305h262z" />
    <glyph glyph-name="edotaccent" unicode="&#x117;" 
d="M631 1102h-193l-123 123v186l123 123h193l123 -123v-186zM862 412l-428 2v-37l55 -74l103 -33l145 13l219 84l-65 -367h-610l-209 199v626l198 199h531l184 -184v-305zM469 739l-35 -53v-86h197v86l-35 53l-64 29z" />
    <glyph glyph-name="Eogonek" unicode="&#x118;" horiz-adv-x="1116" 
d="M911 -236l64 -40h65v-136l-77 -77h-275l-145 133v198l84 92l159 66h-704l57 170v1094l-57 170h895l57 -367l-254 61h-225v-227h147l156 29l-4 -350l-152 32h-147v-305h262l258 62l-98 -369l-100 -174z" />
    <glyph glyph-name="eogonek" unicode="&#x119;" 
d="M862 412l-428 2v-37l55 -74l103 -33l145 13l219 84l-65 -367h-10l-133 -16l-58 -90l-35 -68l35 -62l64 -40h65v-136l-78 -77h-274l-145 133v198l84 92l157 66h-282l-209 199v626l198 199h531l184 -184v-305zM469 739l-35 -53v-86h197v86l-35 53l-64 29z" />
    <glyph glyph-name="Ecaron" unicode="&#x11a;" horiz-adv-x="1075" 
d="M768 1552h-453l-217 349h334l113 -103l114 103h334zM797 307l258 62l-99 -369h-895l58 170v1094l-58 170h895l58 -367l-254 61h-225v-227h208l156 29l-4 -350l-152 32h-208v-305h262z" />
    <glyph glyph-name="ecaron" unicode="&#x11b;" 
d="M770 1147h-453l-217 348h334l113 -102l115 102h333zM270 1024h531l184 -184v-305l-123 -123l-428 2v-37l55 -74l103 -33l145 13l219 84l-65 -367h-610l-209 199v626zM631 600v86l-35 53l-64 29l-63 -29l-35 -53v-86h197z" />
    <glyph glyph-name="Gcircumflex" unicode="&#x11c;" horiz-adv-x="1239" 
d="M639 1655l-113 -103h-333l217 349h452l225 -349h-333zM676 793h522l-41 -115v-412l-225 -266h-584l-266 266v901l266 267h701l81 -471l-333 157h-113l-86 -33l-59 -65v-627l20 -61l78 -41l80 41l20 61v275z" />
    <glyph glyph-name="gcircumflex" unicode="&#x11d;" horiz-adv-x="1083" 
d="M612 1249l-112 -102h-334l217 348h453l225 -348h-334zM662 887v82l380 96v-1155l-258 -320h-489l-133 62l-49 325l196 -106h266l87 109v135l-39 -56l-140 -59h-170l-241 219v586l219 219h233zM616 270l46 101v245l-64 115l-68 29l-61 -29l-14 -43v-352l34 -66l64 -28z
" />
    <glyph glyph-name="Gbreve" unicode="&#x11e;" horiz-adv-x="1239" 
d="M342 1638l-72 121l-8 137h275l24 -75l78 -37l78 37l22 75h265l-9 -137l-75 -121l-113 -86l-168 -41l-168 41zM676 793h522l-41 -115v-412l-225 -266h-584l-266 266v901l266 267h701l81 -471l-333 157h-113l-86 -33l-59 -65v-627l20 -61l78 -41l80 41l20 61v275z" />
    <glyph glyph-name="gbreve" unicode="&#x11f;" horiz-adv-x="1083" 
d="M315 1233l-71 121l-8 137h274l25 -76l77 -37l78 37l23 76h264l-8 -137l-76 -121l-113 -86l-168 -41l-168 41zM662 969l380 96v-1155l-258 -320h-489l-133 62l-49 325l196 -106h266l87 109v135l-39 -56l-140 -59h-170l-241 219v586l219 219h233l138 -137v82zM616 270
l46 101v245l-64 115l-68 29l-61 -29l-14 -43v-352l34 -66l64 -28z" />
    <glyph glyph-name="Gdotaccent" unicode="&#x120;" horiz-adv-x="1239" 
d="M733 1507h-192l-123 123v187l123 122h192l123 -122v-187zM676 793h522l-41 -115v-412l-225 -266h-584l-266 266v901l266 267h701l81 -471l-333 157h-113l-86 -33l-59 -65v-627l20 -61l78 -41l80 41l20 61v275z" />
    <glyph glyph-name="gdotaccent" unicode="&#x121;" horiz-adv-x="1083" 
d="M707 1102h-193l-123 123v186l123 123h193l122 -123v-186zM662 969l380 96v-1155l-258 -320h-489l-133 62l-49 325l196 -106h266l87 109v135l-39 -56l-140 -59h-170l-241 219v586l219 219h233l138 -137v82zM616 270l46 101v245l-64 115l-68 29l-61 -29l-14 -43v-352
l34 -66l64 -28z" />
    <glyph glyph-name="uni0122" unicode="&#x122;" horiz-adv-x="1239" 
d="M676 793h522l-41 -115v-412l-225 -266h-584l-266 266v901l266 267h701l81 -471l-333 157h-113l-86 -33l-59 -65v-627l20 -61l78 -41l80 41l20 61v275zM352 -471l82 416h412l-182 -416h-312z" />
    <glyph glyph-name="uni0123" unicode="&#x123;" horiz-adv-x="1093" 
d="M930 1495l-82 -416h-412l182 416h312zM662 969l380 96v-1155l-258 -320h-489l-133 62l-49 325l196 -106h266l87 109v135l-39 -56l-140 -59h-170l-241 219v586l219 219h233l138 -137v82zM616 270l46 101v245l-64 115l-68 29l-61 -29l-14 -43v-352l34 -66l64 -28z" />
    <glyph glyph-name="Hcircumflex" unicode="&#x124;" horiz-adv-x="1335" 
d="M221 1552l217 349h453l225 -349h-334l-114 103l-113 -103h-334zM563 1434l-41 -185v-381h291v381l-43 185h504l-41 -185v-1065l41 -184h-504l43 184v348h-291v-348l41 -184h-502l41 184v1065l-41 185h502z" />
    <glyph glyph-name="hcircumflex" unicode="&#x125;" horiz-adv-x="1148" 
d="M274 1679l-112 -102h-334l217 348h453l225 -348h-334zM643 0l39 137v543l-14 43l-62 29l-67 -29l-66 -119v-461l43 -143h-465l41 143v1229l-41 144h422v-633l78 90l123 51h213l178 -158v-723l43 -143h-465z" />
    <glyph glyph-name="Hbar" unicode="&#x126;" horiz-adv-x="1466" 
d="M1444 883h-123v-699l41 -184h-522l41 184v299h-291v-299l43 -184h-524l41 184v699h-130l-20 235h150v131l-41 185h524l-43 -185v-131h291v131l-41 185h522l-41 -185v-131h145zM881 778v105h-291v-105h291z" />
    <glyph glyph-name="hbar" unicode="&#x127;" horiz-adv-x="1150" 
d="M645 0l39 137v543l-14 43l-62 29l-67 -29l-66 -119v-461l43 -143h-465l41 143v1004h-104l-41 37v190h145l-41 142h422v-142h236v-227h-236v-264l78 90l123 51h213l178 -158v-723l43 -143h-465z" />
    <glyph glyph-name="Itilde" unicode="&#x128;" horiz-adv-x="657" 
d="M545 1837l153 88l-4 -256l-96 -119l-123 -32l-297 96h-63l-154 -88l4 256l96 119l123 32l297 -96h64zM594 1434l-62 -185v-1065l64 -184h-535l62 184v1065l-62 185h533z" />
    <glyph glyph-name="itilde" unicode="&#x129;" horiz-adv-x="577" 
d="M506 1432l153 88l-4 -256l-96 -119l-123 -33l-297 96h-63l-154 -88l4 256l97 119l122 33l297 -96h64zM473 143l64 -143h-506l61 143v656l-61 164l442 102v-922z" />
    <glyph glyph-name="Imacron" unicode="&#x12a;" horiz-adv-x="657" 
d="M719 1542h-770l-21 318h813zM594 1434l-62 -185v-1065l64 -184h-535l62 184v1065l-62 185h533z" />
    <glyph glyph-name="imacron" unicode="&#x12b;" horiz-adv-x="577" 
d="M680 1137h-770l-21 317h813zM473 143l64 -143h-506l61 143v656l-61 164l442 102v-922z" />
    <glyph glyph-name="Ibreve" unicode="&#x12c;" horiz-adv-x="657" 
d="M694 1896l-8 -137l-76 -121l-112 -86l-168 -41l-168 41l-129 86l-72 121l-8 137h274l25 -75l78 -37l78 37l22 75h264zM594 1434l-62 -185v-1065l64 -184h-535l62 184v1065l-62 185h533z" />
    <glyph glyph-name="ibreve" unicode="&#x12d;" horiz-adv-x="577" 
d="M655 1491l-8 -137l-76 -121l-112 -86l-168 -41l-168 41l-129 86l-72 121l-8 137h274l25 -76l78 -37l78 37l22 76h264zM473 143l64 -143h-506l61 143v656l-61 164l442 102v-922z" />
    <glyph glyph-name="Iogonek" unicode="&#x12e;" horiz-adv-x="657" 
d="M442 -16l-57 -90l-35 -68l35 -62l64 -40h65v-136l-78 -77h-274l-146 133v198l84 92l158 66h-197l62 184v1065l-62 185h533l-62 -185v-1065l64 -184h-21z" />
    <glyph glyph-name="iogonek" unicode="&#x12f;" horiz-adv-x="628" 
d="M399 1102h-192l-123 123v186l123 123h192l123 -123v-186zM418 -236l63 -40h66v-136l-78 -77h-274l-146 133v198l84 92l158 66h-230l62 143v656l-62 164l443 102v-922l63 -143l-143 -98l-41 -76z" />
    <glyph glyph-name="Idotaccent" unicode="&#x130;" horiz-adv-x="657" 
d="M109 1630v187l122 122h193l123 -122v-187l-123 -123h-193zM594 1434l-62 -185v-1065l64 -184h-535l62 184v1065l-62 185h533z" />
    <glyph glyph-name="dotlessi" unicode="&#x131;" horiz-adv-x="577" 
d="M473 143l64 -143h-506l61 143v656l-61 164l442 102v-922z" />
    <glyph glyph-name="IJ" unicode="&#x132;" horiz-adv-x="1593" 
d="M594 1434l-62 -185v-1065l64 -184h-535l62 184v1065l-62 185h533zM1470 266l-260 -266h-481l-102 389l188 -55h129l90 82v829l-82 189h580l-62 -185v-983z" />
    <glyph glyph-name="ij" unicode="&#x133;" horiz-adv-x="1155" 
d="M373 1116h-203l-129 129v197l129 127h203l129 -127v-197zM985 1569l129 -129v-197l-129 -127h-203l-129 127v197l129 129h203zM31 0l61 143v656l-61 164l442 102v-922l64 -143h-506zM684 799l-102 143l483 123v-1217l-217 -258h-307l-97 326l146 -45l76 29l18 100v799z
" />
    <glyph glyph-name="Jcircumflex" unicode="&#x134;" horiz-adv-x="935" 
d="M129 1552l217 349h453l225 -349h-334l-115 103l-112 -103h-334zM813 266l-260 -266h-481l-103 389l189 -55h129l90 82v829l-82 189h579l-61 -185v-983z" />
    <glyph glyph-name="jcircumflex" unicode="&#x135;" horiz-adv-x="710" 
d="M328 1249l-113 -102h-334l217 348h453l225 -348h-334zM143 799l-102 143l483 123v-1217l-217 -258h-307l-96 326l145 -45l76 29l18 100v799z" />
    <glyph glyph-name="uni0136" unicode="&#x136;" horiz-adv-x="1302" 
d="M662 563l-121 -184v-107l61 -272h-541l62 184v1065l-41 185h500l-41 -226v-389l258 463l-15 152h508l-73 -144l-232 -442l232 -705l94 -143h-479zM651 -471h-311l82 416h412z" />
    <glyph glyph-name="uni0137" unicode="&#x137;" horiz-adv-x="1183" 
d="M51 0l62 143v1209l-62 164h443v-877l190 240l-6 145h465l-285 -338l229 -563l117 -123h-463l-149 371l-98 -119v-109l63 -143h-506zM309 -471l82 416h412l-182 -416h-312z" />
    <glyph glyph-name="kgreenlandic" unicode="&#x138;" horiz-adv-x="1163" 
d="M571 371l-98 -119v-109l64 -143h-506l61 143v717l-61 164h442v-385l191 240l-7 145h465l-284 -338l229 -563l117 -123h-463z" />
    <glyph glyph-name="Lacute" unicode="&#x139;" horiz-adv-x="1042" 
d="M104 1552l150 349h461l-262 -349h-349zM1094 438l-146 -438h-887l62 184v1065l-62 185h533l-62 -185v-907h232z" />
    <glyph glyph-name="lacute" unicode="&#x13a;" horiz-adv-x="598" 
d="M53 1573l150 348h461l-263 -348h-348zM494 143l63 -143h-506l62 143v1209l-62 164h443v-1373z" />
    <glyph glyph-name="uni013B" unicode="&#x13b;" horiz-adv-x="1042" 
d="M1094 438l-146 -438h-887l62 184v1065l-62 185h533l-62 -185v-907h232zM586 -471h-312l82 416h412z" />
    <glyph glyph-name="uni013C" unicode="&#x13c;" horiz-adv-x="598" 
d="M494 143l63 -143h-506l62 143v1209l-62 164h443v-1373zM324 -471h-312l82 416h412z" />
    <glyph glyph-name="Lcaron" unicode="&#x13d;" horiz-adv-x="1042" 
d="M-115 1901h334l113 -103l114 103h334l-225 -349h-453zM1094 438l-146 -438h-887l62 184v1065l-62 185h533l-62 -185v-907h232z" />
    <glyph glyph-name="lcaron" unicode="&#x13e;" horiz-adv-x="892" 
d="M494 143l63 -143h-506l62 143v1209l-62 164h443v-1373zM573 1044v472h351l-101 -472h-250z" />
    <glyph glyph-name="Ldot" unicode="&#x13f;" horiz-adv-x="1130" 
d="M1094 438l-146 -438h-887l62 184v1065l-62 185h533l-62 -185v-907h232zM647 748v170l111 110h176l110 -110v-170l-110 -111h-176z" />
    <glyph glyph-name="ldot" unicode="&#x140;" horiz-adv-x="983" 
d="M494 143l63 -143h-506l62 143v1209l-62 164h443v-1373zM555 717v186l123 123h192l123 -123v-186l-123 -123h-192z" />
    <glyph glyph-name="Lslash" unicode="&#x141;" horiz-adv-x="1150" 
d="M791 354l360 138l-115 -492h-1016l123 266v352l-143 -36v235l143 39v311l-123 267h668l-123 -267v-196l305 82l-2 -248l-303 -78v-373h226z" />
    <glyph glyph-name="lslash" unicode="&#x142;" horiz-adv-x="804" 
d="M823 772l-229 -59v-570l63 -143h-505l61 143v469l-203 -53v277l203 55v461l-61 164h442v-519l231 64z" />
    <glyph glyph-name="Nacute" unicode="&#x143;" horiz-adv-x="1333" 
d="M442 1552l150 349h461l-262 -349h-349zM510 727v-543l41 -184h-469l41 184v1063l-62 187h459l352 -772v577l-49 195h449l-41 -191v-1243h-379z" />
    <glyph glyph-name="nacute" unicode="&#x144;" horiz-adv-x="1148" 
d="M967 1495l-262 -348h-349l150 348h461zM643 0l39 137v543l-14 43l-82 29l-68 -29l-45 -57v-523l23 -143h-445l41 143v656l-61 164l442 102v-129l201 88h213l178 -158v-723l43 -143h-465z" />
    <glyph glyph-name="uni0145" unicode="&#x145;" horiz-adv-x="1333" 
d="M510 727v-543l41 -184h-469l41 184v1063l-62 187h459l352 -772v577l-49 195h449l-41 -191v-1243h-379zM743 -473h-311l82 416h412z" />
    <glyph glyph-name="uni0146" unicode="&#x146;" horiz-adv-x="1148" 
d="M51 0l41 143v656l-61 164l442 102v-129l201 88h213l178 -158v-723l43 -143h-465l39 137v543l-14 43l-82 29l-68 -29l-45 -57v-523l23 -143h-445zM272 -471l82 416h412l-182 -416h-312z" />
    <glyph glyph-name="Ncaron" unicode="&#x147;" horiz-adv-x="1333" 
d="M223 1901h334l113 -103l114 103h334l-225 -349h-453zM510 727v-543l41 -184h-469l41 184v1063l-62 187h459l352 -772v577l-49 195h449l-41 -191v-1243h-379z" />
    <glyph glyph-name="ncaron" unicode="&#x148;" horiz-adv-x="1148" 
d="M807 1147h-453l-217 348h334l113 -102l114 102h334zM643 0l39 137v543l-14 43l-82 29l-68 -29l-45 -57v-523l23 -143h-445l41 143v656l-61 164l442 102v-129l201 88h213l178 -158v-723l43 -143h-465z" />
    <glyph glyph-name="napostrophe" unicode="&#x149;" horiz-adv-x="1531" 
d="M-92 1493h418l90 -383l-289 -76zM1026 0l39 137v543l-14 43l-82 29l-68 -29l-45 -57v-523l23 -143h-445l41 143v656l-41 170l422 96v-129l201 88h213l178 -158v-723l43 -143h-465z" />
    <glyph glyph-name="Eng" unicode="&#x14a;" horiz-adv-x="1374" 
d="M1251 1243v-1079l2 -381l-225 -234h-375l-88 353l121 -66h111l77 72v92h-2l-340 727v-543l41 -184h-471l41 184v1063l-61 187h459l352 -772v577l-49 195h448z" />
    <glyph glyph-name="eng" unicode="&#x14b;" horiz-adv-x="1105" 
d="M1065 866v-764h-2v-254l-217 -258h-307l-97 326l146 -45l76 29l18 100v680l-14 43l-82 29l-68 -29l-45 -57v-523l23 -143h-445l41 143v656l-61 164l442 102v-129l201 88h213z" />
    <glyph glyph-name="Omacron" unicode="&#x14c;" horiz-adv-x="1265" 
d="M1030 1542h-770l-20 318h813zM918 1434l266 -267v-901l-266 -266h-570l-266 266v901l266 267h570zM756 1044l-35 62l-90 41l-86 -41l-35 -62v-675l41 -62l80 -41l84 41l41 62v675z" />
    <glyph glyph-name="omacron" unicode="&#x14d;" horiz-adv-x="1095" 
d="M942 1137h-770l-20 317h813zM72 825l198 199h555l199 -199v-626l-199 -199h-555l-198 199v626zM463 328l35 -66l57 -22l57 22l35 66v372l-35 64l-57 22l-57 -22l-35 -64v-372z" />
    <glyph glyph-name="Obreve" unicode="&#x14e;" horiz-adv-x="1265" 
d="M1006 1896l-9 -137l-75 -121l-113 -86l-168 -41l-168 41l-129 86l-72 121l-8 137h275l24 -75l78 -37l78 37l22 75h265zM918 1434l266 -267v-901l-266 -266h-570l-266 266v901l266 267h570zM756 1044l-35 62l-90 41l-86 -41l-35 -62v-675l41 -62l80 -41l84 41l41 62v675z
" />
    <glyph glyph-name="obreve" unicode="&#x14f;" horiz-adv-x="1095" 
d="M918 1491l-9 -137l-75 -121l-113 -86l-168 -41l-168 41l-129 86l-72 121l-8 137h275l24 -76l78 -37l78 37l22 76h265zM72 825l198 199h555l199 -199v-626l-199 -199h-555l-198 199v626zM463 328l35 -66l57 -22l57 22l35 66v372l-35 64l-57 22l-57 -22l-35 -64v-372z" />
    <glyph glyph-name="Ohungarumlaut" unicode="&#x150;" horiz-adv-x="1265" 
d="M262 1552l129 349h379l-180 -349h-328zM692 1552l170 349h461l-283 -349h-348zM918 1434l266 -267v-901l-266 -266h-570l-266 266v901l266 267h570zM756 1044l-35 62l-90 41l-86 -41l-35 -62v-675l41 -62l80 -41l84 41l41 62v675z" />
    <glyph glyph-name="ohungarumlaut" unicode="&#x151;" horiz-adv-x="1095" 
d="M174 1147l129 348h379l-180 -348h-328zM604 1147l170 348h461l-283 -348h-348zM72 825l198 199h555l199 -199v-626l-199 -199h-555l-198 199v626zM463 328l35 -66l57 -22l57 22l35 66v372l-35 64l-57 22l-57 -22l-35 -64v-372z" />
    <glyph glyph-name="OE" unicode="&#x152;" horiz-adv-x="1726" 
d="M1448 307l258 62l-98 -369h-1260l-266 266v901l266 267h1260l57 -367l-254 61h-225v-227h147l156 29l-4 -350l-152 32h-147v-305h262zM631 266l84 41l41 62v675l-35 62l-90 41l-86 -41l-35 -62v-675l41 -62z" />
    <glyph glyph-name="oe" unicode="&#x153;" horiz-adv-x="1566" 
d="M1495 840v-305l-123 -123l-405 2v-54l55 -73l100 -33l125 12l228 101l-66 -367h-557l-76 74l-74 -74h-432l-198 199v626l198 199h453l70 -70l69 70h449zM633 700l-35 64l-63 29l-64 -29l-35 -64v-372l35 -66l64 -29l63 29l35 66v372zM1163 600v100l-35 64l-63 29l-64 -29
l-34 -64v-100h196z" />
    <glyph glyph-name="Racute" unicode="&#x154;" horiz-adv-x="1296" 
d="M915 1901l-262 -349h-348l150 349h460zM1171 143l115 -143h-508l-112 451h-123v-261l41 -190h-502l41 184v1065l-62 185h846l267 -267v-497l-132 -150zM543 1137v-396h102l82 41l41 162l-41 152l-82 41h-102z" />
    <glyph glyph-name="racute" unicode="&#x155;" horiz-adv-x="931" 
d="M831 1495l-262 -348h-348l150 348h460zM825 1044l107 -96v-268l-178 -139l-189 170l-92 -107v-461l23 -143h-445l41 143v656l-61 164l442 102v-182l119 161h233z" />
    <glyph glyph-name="uni0156" unicode="&#x156;" horiz-adv-x="1296" 
d="M82 0l41 184v1065l-62 185h846l267 -267v-497l-132 -150l129 -377l115 -143h-508l-112 451h-123v-261l41 -190h-502zM543 1137v-396h102l82 41l41 162l-41 152l-82 41h-102zM369 -471l82 416h411l-182 -416h-311z" />
    <glyph glyph-name="uni0157" unicode="&#x157;" horiz-adv-x="931" 
d="M825 1044l107 -96v-268l-178 -139l-189 170l-92 -107v-461l23 -143h-445l41 143v656l-61 164l442 102v-182l119 161h233zM272 -471l82 416h412l-182 -416h-312z" />
    <glyph glyph-name="Rcaron" unicode="&#x158;" horiz-adv-x="1296" 
d="M756 1552h-453l-217 349h334l112 -103l115 103h334zM1171 143l115 -143h-508l-112 451h-123v-261l41 -190h-502l41 184v1065l-62 185h846l267 -267v-497l-132 -150zM543 1137v-396h102l82 41l41 162l-41 152l-82 41h-102z" />
    <glyph glyph-name="rcaron" unicode="&#x159;" horiz-adv-x="931" 
d="M672 1147h-453l-217 348h334l113 -102l114 102h334zM825 1044l107 -96v-268l-178 -139l-189 170l-92 -107v-461l23 -143h-445l41 143v656l-61 164l442 102v-182l119 161h233z" />
    <glyph glyph-name="Sacute" unicode="&#x15a;" horiz-adv-x="1044" 
d="M309 1552l150 349h461l-263 -349h-348zM78 0l-78 477l274 -147l117 -37l107 37l57 65v43l-41 41l-348 162l-123 143v383l266 267h609l75 -449l-252 105l-118 26l-103 -26l-61 -70v-57l41 -48l350 -129l143 -143v-377l-266 -266h-649z" />
    <glyph glyph-name="sacute" unicode="&#x15b;" horiz-adv-x="890" 
d="M231 1147l150 348h461l-262 -348h-349zM440 354l-315 105l-88 90v285l190 190h545l53 -317l-159 55l-117 18l-105 -18l-43 -49v-27l29 -33l318 -82l102 -112v-269l-191 -190h-573l-55 348l190 -86l101 -24l106 24l43 47v17z" />
    <glyph glyph-name="Scircumflex" unicode="&#x15c;" horiz-adv-x="1044" 
d="M80 1552l217 349h453l225 -349h-334l-115 103l-112 -103h-334zM78 0l-78 477l274 -147l117 -37l107 37l57 65v43l-41 41l-348 162l-123 143v383l266 267h609l75 -449l-252 105l-118 26l-103 -26l-61 -70v-57l41 -48l350 -129l143 -143v-377l-266 -266h-649z" />
    <glyph glyph-name="scircumflex" unicode="&#x15d;" horiz-adv-x="890" 
d="M2 1147l217 348h453l225 -348h-334l-114 102l-113 -102h-334zM440 354l-315 105l-88 90v285l190 190h545l53 -317l-159 55l-117 18l-105 -18l-43 -49v-27l29 -33l318 -82l102 -112v-269l-191 -190h-573l-55 348l190 -86l101 -24l106 24l43 47v17z" />
    <glyph glyph-name="Scedilla" unicode="&#x15e;" horiz-adv-x="1044" 
d="M500 915l350 -129l143 -143v-377l-266 -266h-188l-50 -53h97l114 -105v-219l-125 -112h-274l-78 77v146l51 -29h160l37 41l-37 45h-160l-57 76l47 78l101 55h-287l-78 477l274 -147l117 -37l107 37l57 65v43l-41 41l-348 162l-123 143v383l266 267h609l75 -449l-252 105
l-118 26l-103 -26l-61 -70v-57z" />
    <glyph glyph-name="scedilla" unicode="&#x15f;" horiz-adv-x="890" 
d="M748 571l102 -112v-269l-191 -190h-163l-50 -53h97l114 -105v-219l-125 -112h-274l-78 77v146l51 -29h160l37 41l-37 45h-160l-57 76l47 78l101 55h-236l-55 348l190 -86l101 -24l106 24l43 47v17l-31 28l-315 105l-88 90v285l190 190h545l53 -317l-159 55l-117 18
l-105 -18l-43 -49v-27l29 -33z" />
    <glyph glyph-name="Scaron" unicode="&#x160;" horiz-adv-x="1044" 
d="M90 1901h334l113 -103l114 103h334l-225 -349h-453zM78 0l-78 477l274 -147l117 -37l107 37l57 65v43l-41 41l-348 162l-123 143v383l266 267h609l75 -449l-252 105l-118 26l-103 -26l-61 -70v-57l41 -48l350 -129l143 -143v-377l-266 -266h-649z" />
    <glyph glyph-name="scaron" unicode="&#x161;" horiz-adv-x="890" 
d="M12 1495h334l113 -102l114 102h334l-225 -348h-453zM440 354l-315 105l-88 90v285l190 190h545l53 -317l-159 55l-117 18l-105 -18l-43 -49v-27l29 -33l318 -82l102 -112v-269l-191 -190h-573l-55 348l190 -86l101 -24l106 24l43 47v17z" />
    <glyph glyph-name="uni0162" unicode="&#x162;" horiz-adv-x="1118" 
d="M1040 1434l68 -414l-135 76l-78 26h-129v-938l61 -184h-206l-50 -53h97l114 -105v-219l-125 -112h-274l-78 77v146l51 -29h160l37 41l-37 45h-160l-57 76l47 78l100 55h-151l61 184v938h-129l-82 -20l-135 -82l74 414h956z" />
    <glyph glyph-name="uni0163" unicode="&#x163;" horiz-adv-x="808" 
d="M682 0h-195l-49 -53h97l114 -105v-219l-125 -112h-274l-78 77v146l51 -29h160l37 41l-37 45h-160l-57 76l47 78l100 55h-41l-155 197v600h-127v86l127 141v123l381 205v-328h254v-190l-41 -37h-213v-408l18 -80l76 -28l186 45z" />
    <glyph glyph-name="Tcaron" unicode="&#x164;" horiz-adv-x="1118" 
d="M784 1552h-452l-217 349h334l112 -103l115 103h334zM1040 1434l68 -414l-135 76l-78 26h-129v-938l61 -184h-532l61 184v938h-129l-82 -20l-135 -82l74 414h956z" />
    <glyph glyph-name="tcaron" unicode="&#x165;" horiz-adv-x="868" 
d="M612 1495h389l-137 -397h-252v397zM537 309l75 -28l187 45l-97 -326h-409l-156 197v600h-127v86l127 141v123l381 205v-328h254v-190l-41 -37h-213v-408z" />
    <glyph glyph-name="Tbar" unicode="&#x166;" horiz-adv-x="1200" 
d="M807 1102v-266h309l-22 -277h-287v-375l61 -184h-532l61 184v375h-288l-21 277h309v266h-149l-82 -21l-135 -82l94 435h956l88 -435l-135 76l-78 27h-149z" />
    <glyph glyph-name="tbar" unicode="&#x167;" horiz-adv-x="829" 
d="M612 281l187 45l-97 -326h-409l-156 197v247h-127v86l127 142v125h-127v86l127 141v123l381 205v-328h254v-190l-41 -37h-213v-125h254v-191l-41 -37h-213v-55l19 -80z" />
    <glyph glyph-name="Utilde" unicode="&#x168;" horiz-adv-x="1249" 
d="M471 1614h-63l-154 -88l4 256l96 119l123 32l297 -96h64l153 88l-4 -256l-96 -119l-123 -32zM711 1434h497l-41 -185v-983l-245 -266h-594l-246 266v983l-41 185h498l-33 -185v-884l45 -62l78 -37l78 37l45 62v884z" />
    <glyph glyph-name="utilde" unicode="&#x169;" horiz-adv-x="1150" 
d="M391 1208h-63l-154 -88l4 256l96 119l123 33l297 -96h64l153 88l-4 -256l-96 -119l-123 -33zM1110 0h-446l2 121l-148 -121h-266l-178 158v723l-43 143h426v-639l35 -43l61 -29l68 29l45 43v496l-43 143h424v-881z" />
    <glyph glyph-name="Umacron" unicode="&#x16a;" horiz-adv-x="1249" 
d="M1012 1542h-770l-21 318h813zM711 1434h497l-41 -185v-983l-245 -266h-594l-246 266v983l-41 185h498l-33 -185v-884l45 -62l78 -37l78 37l45 62v884z" />
    <glyph glyph-name="umacron" unicode="&#x16b;" horiz-adv-x="1150" 
d="M932 1137h-770l-21 317h813zM1110 0h-446l2 121l-148 -121h-266l-178 158v723l-43 143h426v-639l35 -43l61 -29l68 29l45 43v496l-43 143h424v-881z" />
    <glyph glyph-name="Ubreve" unicode="&#x16c;" horiz-adv-x="1249" 
d="M326 1638l-72 121l-8 137h274l25 -75l78 -37l77 37l23 75h264l-8 -137l-76 -121l-112 -86l-168 -41l-168 41zM711 1434h497l-41 -185v-983l-245 -266h-594l-246 266v983l-41 185h498l-33 -185v-884l45 -62l78 -37l78 37l45 62v884z" />
    <glyph glyph-name="ubreve" unicode="&#x16d;" horiz-adv-x="1150" 
d="M246 1233l-72 121l-8 137h274l25 -76l78 -37l78 37l22 76h264l-8 -137l-76 -121l-112 -86l-168 -41l-168 41zM1110 0h-446l2 121l-148 -121h-266l-178 158v723l-43 143h426v-639l35 -43l61 -29l68 29l45 43v496l-43 143h424v-881z" />
    <glyph glyph-name="Uring" unicode="&#x16e;" horiz-adv-x="1249" 
d="M745 1501h-245l-150 150v227l150 150h250l153 -150v-227zM545 1804v-80l43 -43h71l43 43v80l-43 43h-71zM711 1434h497l-41 -185v-983l-245 -266h-594l-246 266v983l-41 185h498l-33 -185v-884l45 -62l78 -37l78 37l45 62v884z" />
    <glyph glyph-name="uring" unicode="&#x16f;" horiz-adv-x="1150" 
d="M666 1096h-246l-150 149v228l150 149h250l153 -149v-228zM465 1399v-80l43 -43h72l43 43v80l-43 43h-72zM1110 0h-446l2 121l-148 -121h-266l-178 158v723l-43 143h426v-639l35 -43l61 -29l68 29l45 43v496l-43 143h424v-881z" />
    <glyph glyph-name="Uhungarumlaut" unicode="&#x170;" horiz-adv-x="1249" 
d="M752 1901l-181 -349h-327l129 349h379zM1022 1552h-348l170 349h461zM752 1249l-41 185h497l-41 -185v-983l-245 -266h-594l-246 266v983l-41 185h498l-33 -185v-884l45 -62l78 -37l78 37l45 62v884z" />
    <glyph glyph-name="uhungarumlaut" unicode="&#x171;" horiz-adv-x="1150" 
d="M672 1495l-180 -348h-328l129 348h379zM942 1147h-348l170 348h461zM1047 1024v-881l63 -143h-446l2 121l-148 -121h-266l-178 158v723l-43 143h426v-639l35 -43l61 -29l68 29l45 43v496l-43 143h424z" />
    <glyph glyph-name="Uogonek" unicode="&#x172;" horiz-adv-x="1228" 
d="M711 1434h497l-41 -185v-983l-241 -262l26 -4l-133 -16l-57 -90l-35 -68l35 -62l63 -40h66v-136l-78 -77h-274l-146 133v198l84 92l158 66h-307l-246 266v983l-41 185h498l-33 -185v-884l45 -62l78 -37l78 37l45 62v884z" />
    <glyph glyph-name="uogonek" unicode="&#x173;" horiz-adv-x="1202" 
d="M743 -236l64 -40h86v-136l-78 -77h-233l-146 133v198l258 185l2 94l-209 -121h-204l-179 158v723l-43 143h426v-639l35 -43l62 -29l67 29l45 43v496l-43 143h424v-881l64 -143h-305l-93 -106l-34 -68z" />
    <glyph glyph-name="Wcircumflex" unicode="&#x174;" horiz-adv-x="1875" 
d="M551 1552l217 349h453l225 -349h-334l-115 103l-112 -103h-334zM1399 1434h467l-234 -1434h-528l-162 813l-162 -813h-536l-234 1434h484l-23 -226l90 -757l195 983h389l190 -983l82 757z" />
    <glyph glyph-name="wcircumflex" unicode="&#x175;" horiz-adv-x="1417" 
d="M270 1147l217 348h453l225 -348h-334l-114 102l-113 -102h-334zM1024 1024h414l-236 -1024h-414l-75 440l-84 -440h-414l-235 1024h417l-28 -106l71 -527l129 633h295l117 -621l66 515z" />
    <glyph glyph-name="Ycircumflex" unicode="&#x176;" horiz-adv-x="1327" 
d="M670 1655l-113 -103h-334l217 349h453l225 -349h-334zM868 518v-252l123 -266h-659l123 266v254l-445 914h568l-29 -144l121 -444l127 444l-31 144h551z" />
    <glyph glyph-name="ycircumflex" unicode="&#x177;" horiz-adv-x="1058" 
d="M528 1249l-112 -102h-334l217 348h453l225 -348h-334zM612 1024h467l-403 -1356l-98 -78h-297l147 410h-164l-284 1024h469l-56 -137l135 -551l142 551z" />
    <glyph glyph-name="Ydieresis" unicode="&#x178;" horiz-adv-x="1327" 
d="M475 1524h-168l-112 112v174l112 113h168l113 -113v-174zM999 1524h-168l-112 112v174l112 113h168l113 -113v-174zM868 518v-252l123 -266h-659l123 266v254l-445 914h568l-29 -144l121 -444l127 444l-31 144h551z" />
    <glyph glyph-name="Zacute" unicode="&#x179;" horiz-adv-x="1062" 
d="M334 1552l149 349h461l-262 -349h-348zM1010 1182l-453 -795h279l217 76l-101 -463h-846l-86 223l486 824h-258l-238 -97l176 484h713z" />
    <glyph glyph-name="zacute" unicode="&#x17a;" horiz-adv-x="874" 
d="M225 1151l150 348h461l-263 -348h-348zM829 848l-335 -543h225l155 53l-71 -358h-729l-64 160l361 565h-211l-170 -70l125 373h635z" />
    <glyph glyph-name="Zdotaccent" unicode="&#x17b;" horiz-adv-x="1062" 
d="M330 1630v187l123 122h192l123 -122v-187l-123 -123h-192zM1010 1182l-453 -795h279l217 76l-101 -463h-846l-86 223l486 824h-258l-238 -97l176 484h713z" />
    <glyph glyph-name="zdotaccent" unicode="&#x17c;" horiz-adv-x="874" 
d="M221 1229v186l123 123h193l122 -123v-186l-122 -123h-193zM829 848l-335 -543h225l155 53l-71 -358h-729l-64 160l361 565h-211l-170 -70l125 373h635z" />
    <glyph glyph-name="Zcaron" unicode="&#x17d;" horiz-adv-x="1062" 
d="M115 1901h334l112 -103l115 103h334l-226 -349h-452zM1010 1182l-453 -795h279l217 76l-101 -463h-846l-86 223l486 824h-258l-238 -97l176 484h713z" />
    <glyph glyph-name="zcaron" unicode="&#x17e;" horiz-adv-x="874" 
d="M6 1499h334l113 -102l114 102h334l-225 -348h-453zM829 848l-335 -543h225l155 53l-71 -358h-729l-64 160l361 565h-211l-170 -70l125 373h635z" />
    <glyph glyph-name="uni0191" unicode="&#x191;" horiz-adv-x="1007" 
d="M528 860h189l155 29l-4 -350l-151 32h-189v-755l-266 -267h-293l-145 97l-80 295l197 -78l108 41l64 61v1288l-58 181h895l78 -392l-217 62h-283v-244z" />
    <glyph glyph-name="uni0191" unicode="&#x192;" horiz-adv-x="1007" 
d="M528 860h189l155 29l-4 -350l-151 32h-189v-755l-266 -267h-293l-145 97l-80 295l197 -78l108 41l64 61v1288l-58 181h895l78 -392l-217 62h-283v-244z" />
    <glyph glyph-name="uni01CD" unicode="&#x1cd;" horiz-adv-x="1286" 
d="M231 1901h334l113 -103l115 103h333l-225 -349h-452zM283 1270l-39 164h798l-47 -164l187 -1004l94 -266h-524l43 266h-299l39 -266h-525l94 266zM684 1112h-61l-103 -551h254z" />
    <glyph glyph-name="uni01CE" unicode="&#x1ce;" horiz-adv-x="1087" 
d="M92 1495h334l113 -102l114 102h334l-225 -348h-453zM963 225l104 -225h-481v123l-80 -80l-125 -43h-160l-170 141v248l123 121l412 82v49l-56 66l-155 22l-144 -20l-143 -74l119 389h526l230 -229v-570zM420 272l57 -34l72 30l37 62v92l-166 -41v-109z" />
    <glyph glyph-name="uni01CF" unicode="&#x1cf;" horiz-adv-x="657" 
d="M-106 1901h333l113 -103l115 103h333l-225 -349h-452zM594 1434l-62 -185v-1065l64 -184h-535l62 184v1065l-62 185h533z" />
    <glyph glyph-name="uni01D0" unicode="&#x1d0;" horiz-adv-x="577" 
d="M-145 1495h333l113 -102l115 102h334l-226 -348h-452zM473 143l64 -143h-506l61 143v656l-61 164l442 102v-922z" />
    <glyph glyph-name="uni01D1" unicode="&#x1d1;" horiz-adv-x="1265" 
d="M205 1901h334l112 -103l115 103h334l-226 -349h-452zM918 1434l266 -267v-901l-266 -266h-570l-266 266v901l266 267h570zM756 1044l-35 62l-90 41l-86 -41l-35 -62v-675l41 -62l80 -41l84 41l41 62v675z" />
    <glyph glyph-name="uni01D2" unicode="&#x1d2;" horiz-adv-x="1095" 
d="M117 1495h334l112 -102l115 102h334l-226 -348h-452zM72 825l198 199h555l199 -199v-626l-199 -199h-555l-198 199v626zM463 328l35 -66l57 -22l57 22l35 66v372l-35 64l-57 22l-57 -22l-35 -64v-372z" />
    <glyph glyph-name="uni01D3" unicode="&#x1d3;" horiz-adv-x="1249" 
d="M856 1552h-453l-217 349h334l113 -103l115 103h333zM711 1434h497l-41 -185v-983l-245 -266h-594l-246 266v983l-41 185h498l-33 -185v-884l45 -62l78 -37l78 37l45 62v884z" />
    <glyph glyph-name="uni01D4" unicode="&#x1d4;" horiz-adv-x="1150" 
d="M776 1147h-452l-218 348h334l113 -102l115 102h333zM1110 0h-446l2 121l-148 -121h-266l-178 158v723l-43 143h426v-639l35 -43l61 -29l68 29l45 43v496l-43 143h424v-881z" />
    <glyph glyph-name="uni01E2" unicode="&#x1e2;" horiz-adv-x="1832" 
d="M1456 1542h-770l-20 318h813zM1554 309l258 103l-77 -412h-942l57 264v2h-328l33 -266h-545l123 266l283 1004l-23 164h1280l99 -371l-254 61h-246v-223h168l155 29l-4 -350l-151 32h-168v-303h282zM588 561h262v557h-80z" />
    <glyph glyph-name="uni01E2" unicode="&#x1e3;" horiz-adv-x="1832" 
d="M1456 1542h-770l-20 318h813zM1554 309l258 103l-77 -412h-942l57 264v2h-328l33 -266h-545l123 266l283 1004l-23 164h1280l99 -371l-254 61h-246v-223h168l155 29l-4 -350l-151 32h-168v-303h282zM588 561h262v557h-80z" />
    <glyph glyph-name="Gcaron" unicode="&#x1e6;" horiz-adv-x="1239" 
d="M872 1552h-452l-217 349h334l112 -103l115 103h334zM676 793h522l-41 -115v-412l-225 -266h-584l-266 266v901l266 267h701l81 -471l-333 157h-113l-86 -33l-59 -65v-627l20 -61l78 -41l80 41l20 61v275z" />
    <glyph glyph-name="gcaron" unicode="&#x1e7;" horiz-adv-x="1083" 
d="M846 1147h-453l-217 348h334l113 -102l114 102h334zM662 887v82l380 96v-1155l-258 -320h-489l-133 62l-49 325l196 -106h266l87 109v135l-39 -56l-140 -59h-170l-241 219v586l219 219h233zM616 270l46 101v245l-64 115l-68 29l-61 -29l-14 -43v-352l34 -66l64 -28z" />
    <glyph glyph-name="uni01E8" unicode="&#x1e8;" horiz-adv-x="1302" 
d="M215 1901h334l113 -103l114 103h334l-225 -349h-453zM662 563l-121 -184v-107l61 -272h-541l62 184v1065l-41 185h500l-41 -226v-389l258 463l-15 152h508l-73 -144l-232 -442l232 -705l94 -143h-479z" />
    <glyph glyph-name="uni01E9" unicode="&#x1e9;" horiz-adv-x="1183" 
d="M524 1597h-452l-217 349h333l113 -103l115 103h334zM592 371l-98 -119v-109l63 -143h-506l62 143v1209l-62 164h443v-877l190 240l-6 145h465l-285 -338l229 -563l117 -123h-463z" />
    <glyph glyph-name="Aringacute" unicode="&#x1fa;" horiz-adv-x="1286" 
d="M1169 2310l-344 -348h-348l232 348h460zM1276 0h-524l43 266h-299l39 -266h-525l94 266l179 1004l-39 164h196l-73 73v228l149 149h250l154 -149v-228l-78 -73h200l-47 -164l187 -1004zM561 1661v-80l43 -43h72l43 43v80l-43 43h-72zM520 561h254l-90 551h-61z" />
    <glyph glyph-name="aringacute" unicode="&#x1fb;" horiz-adv-x="1095" 
d="M1055 1761l-406 -348h-348l293 348h461zM911 795v-570l105 -225h-481v123l-60 -80l-104 -43h-181l-190 170v227l143 133l392 82v39l-56 66l-135 22l-156 -20l-143 -53l119 358h74v197l149 149h246l149 -149v-228l-34 -35zM432 1067l43 -43h72l43 43v80l-43 43h-72
l-43 -43v-80zM535 348v51l-187 -43v-71l47 -45l113 41z" />
    <glyph glyph-name="AEacute" unicode="&#x1fc;" horiz-adv-x="1832" 
d="M1460 1901l-262 -349h-348l149 349h461zM1554 309l258 103l-77 -412h-942l57 264v2h-328l33 -266h-545l123 266l283 1004l-23 164h1280l99 -371l-254 61h-246v-223h168l155 29l-4 -350l-151 32h-168v-303h282zM588 561h262v557h-80z" />
    <glyph glyph-name="aeacute" unicode="&#x1fd;" horiz-adv-x="1562" 
d="M1163 1495l-262 -348h-348l149 348h461zM1368 412l-405 2v-54l55 -73l100 -33l125 12l227 101l-65 -367h-635l-123 123l-80 -80l-145 -43h-180l-191 170v227l144 133l391 82v39l-56 66l-135 22l-155 -20l-144 -53l119 358h518l53 -51l52 51h469l184 -184v-305zM1061 793
l-64 -29l-34 -64v-100h196v100l-35 64zM586 348v51l-187 -43v-71l47 -45l113 41z" />
    <glyph glyph-name="Oslashacute" unicode="&#x1fe;" horiz-adv-x="1263" 
d="M1055 1901l-262 -349h-349l150 349h461zM1346 1608l-261 -342l99 -99v-901l-266 -266h-570l-108 -137h-322l246 321l-82 82v901l266 267h565l136 174h297zM756 369v675l-35 62l-90 41l-86 -41l-35 -62v-675l41 -62l80 -41l84 41z" />
    <glyph glyph-name="oslashacute" unicode="&#x1ff;" horiz-adv-x="927" 
d="M852 1495l-262 -348h-348l149 348h461zM811 913l76 -75l12 -639l-199 -199h-372l-90 -137h-310l152 243l-92 93v626l198 199h389l107 168h317zM543 319v373l-35 66l-64 28l-63 -28l-35 -66v-373l35 -63l63 -29l64 29z" />
    <glyph glyph-name="uni0218" unicode="&#x218;" horiz-adv-x="1044" 
d="M78 0l-78 477l274 -147l117 -37l107 37l57 65v43l-41 41l-348 162l-123 143v383l266 267h609l75 -449l-252 105l-118 26l-103 -26l-61 -70v-57l41 -48l350 -129l143 -143v-377l-266 -266h-649zM502 -471h-312l82 416h412z" />
    <glyph glyph-name="uni0219" unicode="&#x219;" horiz-adv-x="890" 
d="M440 354l-315 105l-88 90v285l190 190h545l53 -317l-159 55l-117 18l-105 -18l-43 -49v-27l29 -33l318 -82l102 -112v-269l-191 -190h-573l-55 348l190 -86l101 -24l106 24l43 47v17zM459 -471h-312l82 416h412z" />
    <glyph glyph-name="uni021A" unicode="&#x21a;" horiz-adv-x="1118" 
d="M1040 1434l68 -414l-135 76l-78 26h-129v-938l61 -184h-532l61 184v938h-129l-82 -20l-135 -82l74 414h956zM272 -471l82 416h412l-182 -416h-312z" />
    <glyph glyph-name="uni021B" unicode="&#x21b;" horiz-adv-x="808" 
d="M592 281l186 45l-96 -326h-410l-155 197v600h-127v86l127 141v123l381 205v-328h254v-190l-41 -37h-213v-408l18 -80zM139 -471l82 416h412l-182 -416h-312z" />
    <glyph glyph-name="uni0228" unicode="&#x228;" horiz-adv-x="1075" 
d="M797 307l258 62l-99 -369h-333l-50 -53h97l114 -105v-219l-125 -112h-274l-78 77v146l51 -29h160l37 41l-37 45h-160l-57 76l47 78l101 55h-388l58 170v1094l-58 170h895l58 -367l-254 61h-225v-227h208l156 29l-4 -350l-152 32h-208v-305h262z" />
    <glyph glyph-name="uni0229" unicode="&#x229;" 
d="M862 412l-428 2v-37l55 -74l103 -33l145 13l219 84l-65 -367h-291l-49 -53h96l115 -105v-219l-125 -112h-275l-77 77v146l51 -29h160l36 41l-36 45h-160l-57 76l47 78l100 55h-145l-209 199v626l198 199h531l184 -184v-305zM469 739l-35 -53v-86h197v86l-35 53l-64 29z
" />
    <glyph glyph-name="circumflex" unicode="&#x2c6;" horiz-adv-x="1206" 
d="M156 1147l217 348h452l226 -348h-334l-115 102l-113 -102h-333z" />
    <glyph glyph-name="caron" unicode="&#x2c7;" horiz-adv-x="1206" 
d="M156 1495h333l113 -102l115 102h334l-226 -348h-452z" />
    <glyph glyph-name="breve" unicode="&#x2d8;" horiz-adv-x="962" 
d="M852 1491l-8 -137l-76 -121l-113 -86l-168 -41l-168 41l-129 86l-71 121l-8 137h274l25 -76l77 -37l78 37l23 76h264z" />
    <glyph glyph-name="dotaccent" unicode="&#x2d9;" horiz-adv-x="655" 
d="M109 1225v186l122 123h193l123 -123v-186l-123 -123h-193z" />
    <glyph glyph-name="ring" unicode="&#x2da;" horiz-adv-x="1351" 
d="M403 1245v228l150 149h250l153 -149v-228l-157 -149h-246zM598 1319l43 -43h72l43 43v80l-43 43h-72l-43 -43v-80z" />
    <glyph glyph-name="ogonek" unicode="&#x2db;" horiz-adv-x="1351" 
d="M733 41l219 -41l-133 -16l-57 -90l-35 -68l35 -62l63 -40h66v-136l-78 -77h-274l-146 133v198l84 92z" />
    <glyph glyph-name="tilde" unicode="&#x2dc;" horiz-adv-x="901" 
d="M666 1432l153 88l-4 -256l-96 -119l-123 -33l-297 96h-63l-154 -88l4 256l96 119l123 33l297 -96h64z" />
    <glyph glyph-name="hungarumlaut" unicode="&#x2dd;" horiz-adv-x="1306" 
d="M61 1147l129 348h379l-180 -348h-328zM492 1147l170 348h460l-282 -348h-348z" />
    <glyph glyph-name="uni0326" unicode="&#x326;" horiz-adv-x="0" 
d="M-242 -471h-311l82 416h412z" />
    <glyph glyph-name="uni0400" unicode="&#x400;" horiz-adv-x="1075" 
d="M719 1552h-348l-242 349h461zM797 307l258 62l-99 -369h-895l58 170v1094l-58 170h895l58 -367l-254 61h-225v-227h208l156 29l-4 -350l-152 32h-208v-305h262z" />
    <glyph glyph-name="uni0401" unicode="&#x401;" horiz-adv-x="1075" 
d="M340 1524h-168l-113 112v174l113 113h168l113 -113v-174zM864 1524h-168l-112 112v174l112 113h168l113 -113v-174zM797 307l258 62l-99 -369h-895l58 170v1094l-58 170h895l58 -367l-254 61h-225v-227h208l156 29l-4 -350l-152 32h-208v-305h262z" />
    <glyph glyph-name="uni0402" unicode="&#x402;" horiz-adv-x="1509" 
d="M1223 901l245 -225v-457l-208 -219h-279l-100 43v227h94l53 56v239l-125 41l-125 -41v-381l43 -184h-524l41 184v918h-131l-82 -21l-135 -82l94 435h956l88 -435l-135 76l-78 27h-137v-283l133 82h312z" />
    <glyph glyph-name="uni0403" unicode="&#x403;" horiz-adv-x="1052" 
d="M338 1556l149 349h461l-262 -349h-348zM1094 995l-330 97h-232v-908l62 -184h-533l62 184v1065l-62 185h887z" />
    <glyph glyph-name="uni0404" unicode="&#x404;" horiz-adv-x="1245" 
d="M784 362h121l279 117l-82 -479h-651l-267 266l-102 459l102 442l267 267h651l82 -480l-258 138l-142 20l-102 -41l-82 -61l-41 -140h512l-41 -295h-465l35 -110l82 -62z" />
    <glyph glyph-name="uni0405" unicode="&#x405;" horiz-adv-x="1044" 
d="M78 0l-78 477l274 -147l117 -37l107 37l57 65v43l-41 41l-348 162l-123 143v383l266 267h609l75 -449l-252 105l-118 26l-103 -26l-61 -70v-57l41 -48l350 -129l143 -143v-377l-266 -266h-649z" />
    <glyph glyph-name="uni0406" unicode="&#x406;" horiz-adv-x="657" 
d="M594 1434l-62 -185v-1065l64 -184h-535l62 184v1065l-62 185h533z" />
    <glyph glyph-name="uni0407" unicode="&#x407;" horiz-adv-x="657" 
d="M-33 1923h168l113 -113v-174l-113 -112h-168l-112 112v174zM492 1923h167l113 -113v-174l-113 -112h-167l-113 112v174zM594 1434l-62 -185v-1065l64 -184h-535l62 184v1065l-62 185h533z" />
    <glyph glyph-name="uni0408" unicode="&#x408;" horiz-adv-x="935" 
d="M813 266l-260 -266h-481l-103 389l189 -55h129l90 82v829l-82 189h579l-61 -185v-983z" />
    <glyph glyph-name="uni0409" unicode="&#x409;" horiz-adv-x="2189" 
d="M1837 848l311 -248v-334l-266 -266h-870l43 184v914h-293v-832l-219 -266h-441l-102 430l168 -76h88l68 80v797l-60 203h1272l-41 -185v-401h342zM1700 319l43 103l-43 102l-84 35h-121v-274h121z" />
    <glyph glyph-name="uni040A" unicode="&#x40a;" horiz-adv-x="1947" 
d="M1616 848l311 -248v-334l-266 -266h-870l43 184v375h-291v-375l41 -184h-523l41 184v1065l-41 185h523l-41 -185v-401h291v401l-43 185h524l-41 -185v-401h342zM1479 319l43 103l-43 102l-84 35h-121v-274h121z" />
    <glyph glyph-name="uni040B" unicode="&#x40b;" horiz-adv-x="1550" 
d="M987 0l41 184v381h-229v-381l43 -184h-525l41 184v918h-131l-82 -21l-135 -82l94 435h957l88 -435l-135 76l-78 27h-137v-201h444l225 -225v-492l41 -184h-522z" />
    <glyph glyph-name="uni040C" unicode="&#x40c;" horiz-adv-x="1374" 
d="M459 1556l149 349h461l-262 -349h-348zM1032 793l228 -650l94 -143h-500l-188 549h-105v-359l62 -190h-541l61 184v1065l-41 185h500l-41 -226v-389h98l234 615h491l-176 -205z" />
    <glyph glyph-name="uni040D" unicode="&#x40d;" horiz-adv-x="1406" 
d="M918 1552h-349l-241 349h460zM1305 1247v-1063l41 -184h-502l41 184v502l-363 -502l41 -184h-502l41 184v1059l-41 191h510l-49 -195v-577l365 546l-41 226h500z" />
    <glyph glyph-name="uni040E" unicode="&#x40e;" horiz-adv-x="1271" 
d="M997 1901l-8 -138l-76 -121l-112 -86l-168 -40l-168 40l-129 86l-72 121l-8 138h274l25 -76l78 -37l78 37l22 76h264zM731 1434h551l-623 -1434h-509l-82 418l317 -96l39 90l-434 1022h532l-28 -144l127 -409l141 409z" />
    <glyph glyph-name="uni040F" unicode="&#x40f;" horiz-adv-x="1363" 
d="M1262 1249v-1065l41 -184h-431l-167 -246l-173 246h-471l41 184v1065l-41 185h523l-41 -185v-913h278v913l-43 185h525z" />
    <glyph glyph-name="uni0410" unicode="&#x410;" horiz-adv-x="1286" 
d="M283 1270l-39 164h798l-47 -164l187 -1004l94 -266h-524l43 266h-299l39 -266h-525l94 266zM684 1112h-61l-103 -551h254z" />
    <glyph glyph-name="uni0411" unicode="&#x411;" horiz-adv-x="1212" 
d="M860 834l311 -234v-334l-266 -266h-844l62 184v1065l-62 185h955l145 -439l-330 123h-313v-284h342zM723 319l43 111l-43 115l-84 41h-121v-307h121z" />
    <glyph glyph-name="uni0412" unicode="&#x412;" horiz-adv-x="1222" 
d="M844 1434l266 -267v-280l-143 -133l204 -154v-334l-266 -266h-844l62 184v1065l-62 185h783zM700 1098l-84 39h-98v-303h98l84 59l43 94zM723 545l-84 41h-121v-307h121l84 40l43 111z" />
    <glyph glyph-name="uni0413" unicode="&#x413;" horiz-adv-x="1052" 
d="M1094 995l-330 97h-232v-908l62 -184h-533l62 184v1065l-62 185h887z" />
    <glyph glyph-name="uni0414" unicode="&#x414;" horiz-adv-x="1492" 
d="M1503 313v-602l-256 287l-999 2l-258 -289v602h155l168 248v670l-59 203h1089l-40 -185v-936h200zM891 313v785h-191v-582l-131 -203h322z" />
    <glyph glyph-name="uni0415" unicode="&#x415;" horiz-adv-x="1075" 
d="M797 307l258 62l-99 -369h-895l58 170v1094l-58 170h895l58 -367l-254 61h-225v-227h208l156 29l-4 -350l-152 32h-208v-305h262z" />
    <glyph glyph-name="uni0416" unicode="&#x416;" horiz-adv-x="2002" 
d="M1616 766l272 -623l94 -143h-479l-213 563h-80v-291l62 -272h-541l62 184v379h-80l-213 -563h-480l95 143l272 623l-190 463l-177 205h488l223 -574h62v389l-41 185h499l-41 -185v-389h62l219 574h491l-176 -205z" />
    <glyph glyph-name="uni0417" unicode="&#x417;" horiz-adv-x="1042" 
d="M1001 266l-266 -266h-635l-57 496l262 -168l119 -37l117 37l53 65v107l-78 82l-139 -21l-23 291h160l61 63v107l-40 70l-144 26l-139 -26l-211 -105l76 447h594l266 -267v-260l-141 -139l165 -125v-377z" />
    <glyph glyph-name="uni0418" unicode="&#x418;" horiz-adv-x="1406" 
d="M1305 1247v-1063l41 -184h-502l41 184v502l-363 -502l41 -184h-502l41 184v1059l-41 191h510l-49 -195v-577l365 546l-41 226h500z" />
    <glyph glyph-name="uni0419" unicode="&#x419;" horiz-adv-x="1406" 
d="M436 1638l-71 121l-9 137h275l24 -75l78 -37l78 37l23 75h264l-8 -137l-76 -121l-113 -86l-168 -41l-168 41zM1305 1247v-1063l41 -184h-502l41 184v502l-363 -502l41 -184h-502l41 184v1059l-41 191h510l-49 -195v-577l365 546l-41 226h500z" />
    <glyph glyph-name="uni041A" unicode="&#x41a;" horiz-adv-x="1374" 
d="M1032 793l228 -650l94 -143h-500l-188 549h-105v-359l62 -190h-541l61 184v1065l-41 185h500l-41 -226v-389h98l234 615h491l-176 -205z" />
    <glyph glyph-name="uni041B" unicode="&#x41b;" horiz-adv-x="1587" 
d="M1485 1249v-1065l41 -184h-525l43 184v944h-292v-862l-220 -266h-440l-102 369l168 -76h88l67 80v858l-59 203h1272z" />
    <glyph glyph-name="uni041C" unicode="&#x41c;" horiz-adv-x="1638" 
d="M809 0l-305 819v-635l61 -184h-504l62 184v1065l-62 185h547l221 -603l201 603h547l-61 -185v-1065l61 -184h-506l64 184v635l-310 -819h-16z" />
    <glyph glyph-name="uni041D" unicode="&#x41d;" horiz-adv-x="1335" 
d="M563 1434l-41 -185v-381h291v381l-43 185h504l-41 -185v-1065l41 -184h-504l43 184v348h-291v-348l41 -184h-502l41 184v1065l-41 185h502z" />
    <glyph glyph-name="uni041E" unicode="&#x41e;" horiz-adv-x="1265" 
d="M918 1434l266 -267v-901l-266 -266h-570l-266 266v901l266 267h570zM756 1044l-35 62l-90 41l-86 -41l-35 -62v-675l41 -62l80 -41l84 41l41 62v675z" />
    <glyph glyph-name="uni041F" unicode="&#x41f;" horiz-adv-x="1363" 
d="M1303 1434l-41 -185v-1065l41 -184h-525l43 184v914h-278v-914l41 -184h-523l41 184v1065l-41 185h1242z" />
    <glyph glyph-name="uni0420" unicode="&#x420;" horiz-adv-x="1214" 
d="M907 1434l267 -267v-436l-234 -246l-82 -34h-315v-261l41 -190h-502l41 184v1065l-62 185h846zM727 782l41 162l-41 152l-82 41h-102v-396h102z" />
    <glyph glyph-name="uni0421" unicode="&#x421;" horiz-adv-x="1093" 
d="M1073 954l-258 138l-141 20l-103 -41l-61 -61v-586l61 -62l103 -40h121l278 116l-82 -438h-651l-258 266v901l258 267h651z" />
    <glyph glyph-name="uni0422" unicode="&#x422;" horiz-adv-x="1118" 
d="M1040 1434l68 -414l-135 76l-78 26h-129v-938l61 -184h-532l61 184v938h-129l-82 -20l-135 -82l74 414h956z" />
    <glyph glyph-name="uni0423" unicode="&#x423;" horiz-adv-x="1271" 
d="M731 1434h551l-623 -1434h-509l-82 418l317 -96l39 90l-434 1022h532l-28 -144l127 -409l141 409z" />
    <glyph glyph-name="uni0424" unicode="&#x424;" horiz-adv-x="1724" 
d="M1417 1249l266 -266v-532l-266 -267h-350v-41l63 -143h-534l61 143v41h-350l-266 267v532l266 266h350v41l-61 144h532l-61 -144v-41h350zM541 461h116v491h-116l-82 -41l-21 -61v-287l21 -61zM1286 563v287l-20 61l-82 41h-117v-491h117l82 41z" />
    <glyph glyph-name="uni0425" unicode="&#x425;" horiz-adv-x="1419" 
d="M391 770l-330 664h545l-26 -138l141 -301l100 297l-28 142h538l-325 -699l403 -735h-594l12 145l-137 340l-108 -342l28 -141h-600z" />
    <glyph glyph-name="uni0426" unicode="&#x426;" horiz-adv-x="1519" 
d="M1262 336h258v-582l-285 246h-1174l41 184v1065l-41 185h523l-41 -185v-913h278v913l-43 185h525l-41 -185v-913z" />
    <glyph glyph-name="uni0427" unicode="&#x427;" horiz-adv-x="1273" 
d="M543 1434l-41 -185v-381h229v381l-43 185h524l-41 -185v-1065l41 -184h-544l63 184v348h-444l-226 226v491l-41 185h523z" />
    <glyph glyph-name="uni0428" unicode="&#x428;" horiz-adv-x="2082" 
d="M1980 1249v-1065l41 -184h-1960l41 184v1065l-41 185h523l-41 -185v-913h278v913l-43 185h525l-41 -185v-913h278v913l-43 185h524z" />
    <glyph glyph-name="uni0429" unicode="&#x429;" horiz-adv-x="2082" 
d="M1980 336h256v-582l-284 246h-1891l41 184v1065l-41 185h523l-41 -185v-913h278v913l-43 185h525l-41 -185v-913h278v913l-43 185h524l-41 -185v-913z" />
    <glyph glyph-name="uni042A" unicode="&#x42a;" horiz-adv-x="1374" 
d="M1042 834l312 -234v-334l-267 -266h-843l61 184v908h-139l-227 -76l104 418h719l-62 -185v-415h342zM905 319l43 111l-43 115l-84 41h-121v-307h121z" />
    <glyph glyph-name="uni042B" unicode="&#x42b;" horiz-adv-x="1849" 
d="M518 834h342l311 -234v-334l-266 -266h-844l62 184v1065l-62 185h519l-62 -185v-415zM1786 1434l-62 -185v-1065l64 -184h-535l62 184v1065l-62 185h533zM723 545l-84 41h-121v-307h121l84 40l43 111z" />
    <glyph glyph-name="uni042C" unicode="&#x42c;" horiz-adv-x="1191" 
d="M518 834h342l311 -234v-334l-266 -266h-844l62 184v1065l-62 185h519l-62 -185v-415zM723 545l-84 41h-121v-307h121l84 40l43 111z" />
    <glyph glyph-name="uni042D" unicode="&#x42d;" horiz-adv-x="1245" 
d="M1061 1167l102 -442l-102 -459l-266 -266h-652l-82 479l279 -117h121l102 41l82 62l35 110h-465l-41 295h512l-41 140l-82 61l-102 41l-142 -20l-258 -138l82 480h652z" />
    <glyph glyph-name="uni042E" unicode="&#x42e;" horiz-adv-x="1914" 
d="M1567 1434l266 -267v-901l-266 -266h-570l-266 266v266h-188v-348l41 -184h-523l41 184v1065l-41 185h523l-41 -185v-381h188v299l266 267h570zM1405 369v675l-35 62l-90 41l-86 -41l-35 -62v-675l41 -62l80 -41l84 41z" />
    <glyph glyph-name="uni042F" unicode="&#x42f;" horiz-adv-x="1296" 
d="M1174 1249v-1065l40 -184h-501l41 190v261h-123l-113 -451h-508l115 143l129 377l-131 150v497l266 267h846zM754 741v396h-103l-82 -41l-41 -152l41 -162l82 -41h103z" />
    <glyph glyph-name="uni0430" unicode="&#x430;" horiz-adv-x="1087" 
d="M963 225l104 -225h-481v123l-80 -80l-125 -43h-160l-170 141v248l123 121l412 82v49l-56 66l-155 22l-144 -20l-143 -74l119 389h526l230 -229v-570zM420 272l57 -34l72 30l37 62v92l-166 -41v-109z" />
    <glyph glyph-name="uni0431" unicode="&#x431;" horiz-adv-x="1079" 
d="M541 1024h264l207 -188v-611l-226 -225h-526l-209 240v784l135 289l281 162h334l268 116l-82 -346l-123 -92h-274l-90 -47l-49 -92v-66zM451 328l34 -66l58 -22l57 22l35 66v372l-35 64l-57 22l-58 -22l-34 -64v-372z" />
    <glyph glyph-name="uni0432" unicode="&#x432;" horiz-adv-x="980" 
d="M715 1026l192 -190v-199l-104 -96l147 -111v-240l-190 -190h-729l45 133v762l-45 131h684zM541 782l-52 23h-49v-203h49l52 37l28 68zM555 389l-53 25h-62v-203h62l53 25l25 75z" />
    <glyph glyph-name="uni0433" unicode="&#x433;" horiz-adv-x="802" 
d="M549 743h-109v-591l41 -152h-471l41 152v716l-41 156h723l70 -356z" />
    <glyph glyph-name="uni0434" unicode="&#x434;" horiz-adv-x="1245" 
d="M1245 305v-530l-215 225l-823 2l-217 -227v530h131l149 252v264l-59 203h915l-41 -184v-535h160zM758 305v404h-170v-191l-121 -213h291z" />
    <glyph glyph-name="uni0435" unicode="&#x435;" 
d="M862 412l-428 2v-37l55 -74l103 -33l145 13l219 84l-65 -367h-610l-209 199v626l198 199h531l184 -184v-305zM469 739l-35 -53v-86h197v86l-35 53l-64 29z" />
    <glyph glyph-name="uni0436" unicode="&#x436;" horiz-adv-x="1486" 
d="M1268 524l151 -422l68 -102h-412l-100 338h-57v-143l43 -195h-445l43 131v207h-57l-101 -338h-411l67 102l152 422l-94 355l-125 145h438l88 -393h43v264l-29 129h416l-28 -129v-264h43l83 393h443l-125 -145z" />
    <glyph glyph-name="uni0437" unicode="&#x437;" horiz-adv-x="856" 
d="M805 201l-236 -201h-526l-51 403l227 -122l94 -31l95 31l43 53v33l-64 49l-111 -17l-18 222h129l51 32v33l-35 55l-114 23l-129 -16l-170 -93l67 369h549l178 -168v-215l-90 -86l111 -111v-243z" />
    <glyph glyph-name="uni0438" unicode="&#x438;" horiz-adv-x="1101" 
d="M1032 889v-756l29 -133h-426l29 133v336l-236 -350l29 -119h-426l28 133v752l-28 139h432l-35 -141v-375l238 366l-29 150h424z" />
    <glyph glyph-name="uni0439" unicode="&#x439;" horiz-adv-x="1101" 
d="M254 1233l-72 121l-8 137h275l24 -76l78 -37l78 37l22 76h264l-8 -137l-76 -121l-112 -86l-168 -41l-168 41zM1032 889v-756l29 -133h-426l29 133v336l-236 -350l29 -119h-426l28 133v752l-28 139h432l-35 -141v-375l238 366l-29 150h424z" />
    <glyph glyph-name="uni043A" unicode="&#x43a;" horiz-adv-x="1130" 
d="M850 543l172 -441l65 -102h-456l-113 348h-76v-213l45 -135h-456l43 131v758l-29 135h428l-31 -166v-235h70l145 401h453l-125 -152z" />
    <glyph glyph-name="uni043B" unicode="&#x43b;" horiz-adv-x="1179" 
d="M1110 889v-758l29 -131h-445l31 131v588h-147v-531l-156 -188h-379l-74 305l119 -53h64l47 57v565l-41 150h981z" />
    <glyph glyph-name="uni043C" unicode="&#x43c;" horiz-adv-x="1325" 
d="M651 0l-223 547v-416l43 -131h-440l43 131v758l-43 135h485l148 -383l133 383h487l-45 -135v-758l45 -131h-442l45 131v416l-223 -547h-13z" />
    <glyph glyph-name="uni043D" unicode="&#x43d;" horiz-adv-x="1110" 
d="M479 1022l-35 -154v-227h222v227l-37 154h450l-35 -154v-716l35 -152h-450l37 152v200h-222v-200l35 -152h-448l35 152v716l-35 154h448z" />
    <glyph glyph-name="uni043E" unicode="&#x43e;" horiz-adv-x="1095" 
d="M72 825l198 199h555l199 -199v-626l-199 -199h-555l-198 199v626zM463 328l35 -66l57 -22l57 22l35 66v372l-35 64l-57 22l-57 -22l-35 -64v-372z" />
    <glyph glyph-name="uni043F" unicode="&#x43f;" horiz-adv-x="1110" 
d="M1079 1024l-35 -156v-716l35 -152h-450l37 152v583h-222v-583l35 -152h-448l35 152v716l-35 156h1048z" />
    <glyph glyph-name="uni0440" unicode="&#x440;" horiz-adv-x="1116" 
d="M846 1024l198 -158v-667l-200 -199h-271l-98 70v-336l23 -144h-447l41 144v1065l-61 164l444 102v-133l160 92h211zM684 356v312l-55 71h-88l-66 -65v-314l43 -69l64 -29l63 29z" />
    <glyph glyph-name="uni0441" unicode="&#x441;" horiz-adv-x="964" 
d="M72 817l209 207h575l57 -446l-180 129l-129 14l-108 -31l-47 -43v-266l47 -43l108 -31l129 12l180 121l-57 -440h-575l-209 209v608z" />
    <glyph glyph-name="uni0442" unicode="&#x442;" horiz-adv-x="974" 
d="M907 1024l88 -383l-135 76l-78 26h-108v-559l61 -184h-491l61 184v559h-108l-82 -20l-135 -82l94 383h833z" />
    <glyph glyph-name="uni0443" unicode="&#x443;" horiz-adv-x="1058" 
d="M612 1024h467l-403 -1356l-98 -78h-297l147 410h-164l-284 1024h469l-56 -137l135 -551l142 551z" />
    <glyph glyph-name="uni0444" unicode="&#x444;" horiz-adv-x="1634" 
d="M1364 1024l199 -158v-667l-201 -199h-262l-99 70v-336l23 -144h-432l41 144v336l-98 -70h-263l-200 199v667l198 158h224l139 -72v400l-62 164h430v-564l140 72h223zM449 328l34 -66l58 -22l57 22l35 66v372l-35 64l-57 22l-58 -22l-34 -64v-372zM997 328l35 -66l58 -22
l57 22l35 66v372l-35 64l-57 22l-58 -22l-35 -64v-372z" />
    <glyph glyph-name="uni0445" unicode="&#x445;" horiz-adv-x="1058" 
d="M1079 0h-489l24 109l-98 219l-65 -226l28 -100h-499l258 553l-222 469h482l-27 -96l70 -230l61 246l-29 80h471l-241 -498z" />
    <glyph glyph-name="uni0446" unicode="&#x446;" horiz-adv-x="1261" 
d="M1044 293h228v-539l-262 228l-21 18h-958l35 156v716l-35 152h448l-35 -152v-583h222v583l-37 152h450l-35 -152v-579z" />
    <glyph glyph-name="uni0447" unicode="&#x447;" horiz-adv-x="1146" 
d="M1053 881v-738l63 -143h-506l62 143v252l-201 -88h-213l-178 158v420l-60 139h506l-63 -143v-189l14 -43l82 -28l68 28l45 58v174l-62 143h506z" />
    <glyph glyph-name="uni0448" unicode="&#x448;" horiz-adv-x="1673" 
d="M1610 872v-716l32 -156h-1611l32 156v716l-32 152h438l-33 -152v-583h213v583l-33 152h441l-33 -152v-583h215v583l-37 152h440z" />
    <glyph glyph-name="uni0449" unicode="&#x449;" horiz-adv-x="1845" 
d="M1616 311h239v-538l-262 227h-1562l32 156v716l-32 152h438l-33 -152v-583h213v583l-33 152h441l-33 -152v-583h215v583l-37 152h440l-32 -152v-600z" />
    <glyph glyph-name="uni044A" unicode="&#x44a;" horiz-adv-x="1253" 
d="M1047 631l176 -172v-260l-156 -199h-766l41 152v591h-109l-253 -75l69 356h713l-41 -156v-256l2 19h324zM866 270l15 43l-15 43l-41 31h-102v-147h102z" />
    <glyph glyph-name="uni044B" unicode="&#x44b;" horiz-adv-x="1554" 
d="M1051 0l55 131v764l-55 131h471l-54 -131v-764l56 -131h-473zM487 631h324l176 -172v-260l-156 -199h-800l61 184v688l-37 152h467l-35 -152v-241zM639 266l14 47l-14 47l-41 35h-111v-164h111z" />
    <glyph glyph-name="uni044C" unicode="&#x44c;" horiz-adv-x="1017" 
d="M811 631l176 -172v-260l-156 -199h-800l61 184v688l-37 152h467l-35 -152v-241h324zM639 266l14 47l-14 47l-41 35h-111v-164h111z" />
    <glyph glyph-name="uni044D" unicode="&#x44d;" horiz-adv-x="950" 
d="M858 817l62 -303l-62 -305l-209 -209h-532l-66 371l203 -101l104 -12l101 33l47 49l10 45h-319l-41 254h362l-12 51l-47 47l-101 33l-104 -16l-203 -109l66 379h532z" />
    <glyph glyph-name="uni044E" unicode="&#x44e;" horiz-adv-x="1527" 
d="M1257 1024l199 -199v-626l-199 -199h-514l-198 199v168h-111v-215l35 -152h-438l35 152v716l-35 154h438l-35 -154v-217h111v174l198 199h514zM1077 369v286l-26 50l-50 20l-49 -20l-26 -50v-286l26 -52l49 -20l50 20z" />
    <glyph glyph-name="uni044F" unicode="&#x44f;" horiz-adv-x="1048" 
d="M975 893v-760l29 -133h-443l31 137v166h-70l-88 -303h-454l81 102l101 301l-86 80v351l192 190h750zM592 539v237h-74l-59 -28l-29 -86l29 -95l59 -28h74z" />
    <glyph glyph-name="uni0450" unicode="&#x450;" 
d="M721 1147h-348l-242 348h461zM862 412l-428 2v-37l55 -74l103 -33l145 13l219 84l-65 -367h-610l-209 199v626l198 199h531l184 -184v-305zM469 739l-35 -53v-86h197v86l-35 53l-64 29z" />
    <glyph glyph-name="uni0451" unicode="&#x451;" 
d="M342 1118h-168l-113 113v174l113 113h168l113 -113v-174zM866 1118h-168l-112 113v174l112 113h168l113 -113v-174zM862 412l-428 2v-37l55 -74l103 -33l145 13l219 84l-65 -367h-610l-209 199v626l198 199h531l184 -184v-305zM469 739l-35 -53v-86h197v86l-35 53l-64 29
z" />
    <glyph glyph-name="uni0452" unicode="&#x452;" horiz-adv-x="1128" 
d="M909 1024l178 -158v-1018l-217 -258h-307l-96 326l143 -45l76 29l19 100v680l-15 43l-61 29l-68 -29l-65 -119v-461l43 -143h-465l41 143v1004h-105l-41 37v190h146l-41 142h422v-142h235v-227h-235v-264l77 90l123 51h213z" />
    <glyph glyph-name="uni0453" unicode="&#x453;" horiz-adv-x="802" 
d="M793 1495l-263 -348h-348l150 348h461zM549 743h-109v-591l41 -152h-471l41 152v716l-41 156h723l70 -356z" />
    <glyph glyph-name="uni0454" unicode="&#x454;" horiz-adv-x="950" 
d="M592 258l104 12l203 101l-65 -371h-533l-209 209l-61 305l61 303l209 207h533l65 -379l-203 109l-104 16l-100 -33l-48 -47l-12 -51h363l-41 -254h-320l10 -45l48 -49z" />
    <glyph glyph-name="uni0455" unicode="&#x455;" horiz-adv-x="890" 
d="M440 354l-315 105l-88 90v285l190 190h545l53 -317l-159 55l-117 18l-105 -18l-43 -49v-27l29 -33l318 -82l102 -112v-269l-191 -190h-573l-55 348l190 -86l101 -24l106 24l43 47v17z" />
    <glyph glyph-name="uni0456" unicode="&#x456;" horiz-adv-x="577" 
d="M41 1245v197l129 127h203l129 -127v-197l-129 -129h-203zM473 1065v-922l64 -143h-506l61 143v656l-61 164z" />
    <glyph glyph-name="uni0457" unicode="&#x457;" horiz-adv-x="577" 
d="M-72 1518h168l113 -113v-174l-113 -113h-168l-112 113v174zM453 1518h168l112 -113v-174l-112 -113h-168l-113 113v174zM473 143l64 -143h-506l61 143v656l-61 164l442 102v-922z" />
    <glyph glyph-name="uni0458" unicode="&#x458;" horiz-adv-x="536" 
d="M367 1569l129 -129v-197l-129 -127h-203l-129 127v197l129 129h203zM66 799l-103 143l483 123v-1217l-217 -258h-307l-96 326l145 -45l76 29l19 100v799z" />
    <glyph glyph-name="uni0459" unicode="&#x459;" horiz-adv-x="1607" 
d="M1401 631l176 -172v-260l-156 -199h-800l61 184v535h-145v-531l-156 -188h-379l-74 305l119 -53h64l47 57v565l-41 150h995l-35 -152v-241h324zM1229 266l14 47l-14 47l-41 35h-111v-164h111z" />
    <glyph glyph-name="uni045A" unicode="&#x45a;" horiz-adv-x="1585" 
d="M1378 631l176 -172v-260l-155 -199h-801l61 184v168h-215v-200l35 -152h-448l35 152v716l-35 154h448l-35 -154v-227h215v231l-36 152h467l-35 -152v-241h323zM1206 266l15 47l-15 47l-41 35h-110v-164h110z" />
    <glyph glyph-name="uni045B" unicode="&#x45b;" horiz-adv-x="1150" 
d="M645 0l39 137v543l-14 43l-62 29l-67 -29l-66 -119v-461l43 -143h-465l41 143v1004h-104l-41 37v190h145l-41 142h422v-142h236v-227h-236v-264l78 90l123 51h213l178 -158v-723l43 -143h-465z" />
    <glyph glyph-name="uni045C" unicode="&#x45c;" horiz-adv-x="1130" 
d="M324 1147l149 348h461l-262 -348h-348zM850 543l172 -441l65 -102h-456l-113 348h-76v-213l45 -135h-456l43 131v758l-29 135h428l-31 -166v-235h70l145 401h453l-125 -152z" />
    <glyph glyph-name="uni045D" unicode="&#x45d;" horiz-adv-x="1101" 
d="M735 1147h-348l-242 348h461zM1032 889v-756l29 -133h-426l29 133v336l-236 -350l29 -119h-426l28 133v752l-28 139h432l-35 -141v-375l238 366l-29 150h424z" />
    <glyph glyph-name="uni045E" unicode="&#x45e;" horiz-adv-x="1058" 
d="M231 1233l-71 121l-8 137h274l25 -76l77 -37l78 37l23 76h264l-8 -137l-76 -121l-113 -86l-168 -41l-168 41zM612 1024h467l-403 -1356l-98 -78h-297l147 410h-164l-284 1024h469l-56 -137l135 -551l142 551z" />
    <glyph glyph-name="uni045F" unicode="&#x45f;" horiz-adv-x="1110" 
d="M1044 872v-716l35 -156h-323l-168 -246l-172 246h-385l35 156v716l-35 152h448l-35 -152v-583h222v583l-37 152h450z" />
    <glyph glyph-name="uni0462" unicode="&#x462;" horiz-adv-x="1228" 
d="M881 834l311 -234v-334l-266 -266h-844l61 184v838h-100l-41 227h141l-61 185h457v-185h225l-41 -227h-184v-188h342zM743 319l43 111l-43 115l-84 41h-120v-307h120z" />
    <glyph glyph-name="uni0463" unicode="&#x463;" horiz-adv-x="1026" 
d="M799 631l196 -193v-219l-176 -219h-745l41 143v654h-105l-41 37v190h146v348l-41 144h422v-492h297v-227h-297v-166h303zM639 270l14 43l-14 43l-41 31h-102v-147h102z" />
    <glyph glyph-name="uni046A" unicode="&#x46a;" horiz-adv-x="1880" 
d="M1806 143l95 -143h-480l-155 432l-62 49h-55v-209l61 -272h-540l61 184v297h-57l-66 -49l-149 -432h-479l94 143l211 459l262 176h102l-377 369v287h1354v-287l-366 -369h73l262 -176zM1217 1137h-525l264 -258z" />
    <glyph glyph-name="uni046B" unicode="&#x46b;" horiz-adv-x="1366" 
d="M1319 115l67 -115h-362l-90 328l-43 34h-39v-247l43 -115h-424l43 115v247h-41l-47 -34l-86 -328h-360l67 115l88 354l146 125h71l-205 180v250h1084v-250l-199 -180h53l146 -125zM879 786h-373l188 -161z" />
    <glyph glyph-name="uni0472" unicode="&#x472;" horiz-adv-x="1265" 
d="M918 1434l266 -267v-901l-266 -266h-570l-266 266v901l266 267h570zM545 1106l-56 -62v-210l60 65h55l90 -70l82 66v149l-55 62l-90 41zM715 307l61 62v194l-59 -59h-58l-88 63l-82 -67v-131l62 -62l80 -41z" />
    <glyph glyph-name="uni0473" unicode="&#x473;" horiz-adv-x="1054" 
d="M784 1024l199 -199v-626l-199 -199h-514l-198 199v626l198 199h514zM451 764l-35 -64v-75l45 49h47l74 -58l71 58v26l-35 64l-83 29zM618 262l35 66v71l-53 -51h-47l-72 51l-65 -53v-18l35 -66l84 -29z" />
    <glyph glyph-name="uni0474" unicode="&#x474;" horiz-adv-x="1349" 
d="M510 1434l-41 -226l170 -778l168 758l162 225l194 41l187 -20l41 -316l-181 21l-77 -115l-252 -1024h-508l-383 1434h520z" />
    <glyph glyph-name="uni0475" unicode="&#x475;" horiz-adv-x="1110" 
d="M1151 1024l41 -315l-180 20l-78 -115l-219 -614h-404l-331 1024h456l-20 -137l119 -463l86 354l149 226l195 40z" />
    <glyph glyph-name="uni0490" unicode="&#x490;" horiz-adv-x="1052" 
d="M948 1092h-416v-908l62 -184h-533l62 184v1065l-62 185h723l310 219z" />
    <glyph glyph-name="uni0491" unicode="&#x491;" horiz-adv-x="919" 
d="M815 702h-313v-518l61 -184h-532l61 184v656l-61 184h600l309 178z" />
    <glyph glyph-name="uni0492" unicode="&#x492;" horiz-adv-x="1101" 
d="M623 881h147l156 28l-4 -350l-152 33h-147v-408l82 -184h-560l62 184v408h-180l-27 289h207v372l-57 181h894l78 -387l-217 61h-282v-227z" />
    <glyph glyph-name="uni0493" unicode="&#x493;" horiz-adv-x="839" 
d="M485 606h105l110 21l-2 -301l-108 22h-105v-217l58 -131h-451l45 131v217h-129l-18 258h147v268l-41 150h688l56 -332l-154 45h-201v-131z" />
    <glyph glyph-name="uni0494" unicode="&#x494;" horiz-adv-x="1294" 
d="M1008 901l245 -225v-457l-209 -219h-278l-100 43v227h94l53 56v239l-125 41l-125 -41v-381l43 -184h-545l62 184v1065l-62 185h887l146 -439l-330 97h-201v-273l133 82h312z" />
    <glyph glyph-name="uni0495" unicode="&#x495;" horiz-adv-x="1042" 
d="M766 606l246 -225v-498l-209 -219h-217l-80 43v227h74l53 56v321l-43 41h-166v-221l57 -131h-450l45 131v743l-41 150h688l55 -332l-153 45h-201v-131h342z" />
    <glyph glyph-name="uni0496" unicode="&#x496;" horiz-adv-x="2045" 
d="M1825 336h221v-582l-285 246h-237l-213 563h-80v-291l61 -272h-540l61 184v379h-80l-213 -563h-479l94 143l273 623l-191 463l-176 205h487l224 -574h61v389l-41 185h500l-41 -185v-389h61l219 574h492l-176 -205l-191 -463z" />
    <glyph glyph-name="uni0497" unicode="&#x497;" horiz-adv-x="1486" 
d="M1343 311h207v-538l-262 227h-213l-100 338h-57v-143l43 -195h-445l43 131v207h-57l-101 -338h-411l67 102l152 422l-94 355l-125 145h438l88 -393h43v264l-29 129h416l-28 -129v-264h43l83 393h443l-125 -145l-94 -355z" />
    <glyph glyph-name="uni0498" unicode="&#x498;" horiz-adv-x="1042" 
d="M836 768l165 -125v-377l-266 -266h-178l-49 -53h96l115 -105v-219l-125 -112h-275l-77 77v146l51 -29h160l36 41l-36 45h-160l-57 76l47 78l100 55h-283l-57 496l262 -168l119 -37l117 37l53 65v107l-78 82l-139 -21l-23 291h160l61 63v107l-40 70l-144 26l-139 -26
l-211 -105l76 447h594l266 -267v-260z" />
    <glyph glyph-name="uni0499" unicode="&#x499;" horiz-adv-x="897" 
d="M569 0h-63l-49 -53h96l115 -105v-219l-125 -112h-275l-78 77v146l52 -29h159l37 41l-37 45h-159l-58 76l47 78l101 55h-289l-51 403l227 -122l94 -31l95 31l43 53v33l-64 49l-111 -17l-18 222h129l51 32v33l-35 55l-114 23l-129 -16l-170 -93l67 369h549l178 -168v-215
l-90 -86l111 -111v-243z" />
    <glyph glyph-name="uni049A" unicode="&#x49a;" horiz-adv-x="1374" 
d="M1188 336h248v-582l-285 246h-301l-188 549h-105v-359l61 -190h-540l61 184v1065l-41 185h500l-41 -226v-389h98l234 615h491l-176 -205l-176 -436z" />
    <glyph glyph-name="uni049B" unicode="&#x49b;" horiz-adv-x="1130" 
d="M940 311h213v-538l-262 227h-260l-113 348h-76v-213l45 -135h-456l43 131v758l-29 135h428l-31 -166v-235h70l145 401h453l-125 -152l-135 -329z" />
    <glyph glyph-name="uni049C" unicode="&#x49c;" horiz-adv-x="1374" 
d="M1210 793l187 -650l94 -143h-500l-147 549h-23v-266l-221 20v246h-39v-359l62 -190h-541l61 184v1065l-41 185h500l-41 -226v-389h39v289l221 29v-318h17l172 615h491l-176 -205z" />
    <glyph glyph-name="uni049D" unicode="&#x49d;" horiz-adv-x="1165" 
d="M979 565l133 -463l68 -102h-418l-103 391h-20v-211l-158 17v194h-26v-256l43 -135h-467l43 131v760l-29 131h438l-28 -160v-278h26v207l158 20v-227h16l119 438h412l-125 -145z" />
    <glyph glyph-name="uni049E" unicode="&#x49e;" horiz-adv-x="1492" 
d="M1120 793l228 -650l94 -143h-500l-188 549h-133v-359l61 -190h-541l62 184v838h-142l-41 227h183l-41 185h500l-33 -185h215l-62 -227h-161v-203h127l233 615h492l-177 -205z" />
    <glyph glyph-name="uni049F" unicode="&#x49f;" horiz-adv-x="1142" 
d="M903 543l172 -441l66 -102h-416l-133 348h-76v-205l43 -143h-465l41 143v1004h-104l-41 37v190h145l-41 142h422v-142h236v-227h-236v-524h70l166 401h411l-125 -152z" />
    <glyph glyph-name="uni04A0" unicode="&#x4a0;" horiz-adv-x="1679" 
d="M1337 793l228 -650l94 -143h-500l-188 549h-105v-359l62 -190h-256v-6l-285 6l62 184v908h-170l-330 -76l145 418h813l-41 -226v-389h99l233 615h492l-177 -205z" />
    <glyph glyph-name="uni04A1" unicode="&#x4a1;" horiz-adv-x="1353" 
d="M1114 543l172 -441l66 -102h-457l-113 348h-71v-196l41 -152h-461l41 152v591h-109l-254 -75l70 356h713l-41 -156v-245h65l146 401h452l-125 -152z" />
    <glyph glyph-name="uni04A2" unicode="&#x4a2;" horiz-adv-x="1533" 
d="M1274 336h260v-582l-285 246h-458l43 184v348h-291v-348l41 -184h-523l41 184v1065l-41 185h523l-41 -185v-381h291v381l-43 185h524l-41 -185v-913z" />
    <glyph glyph-name="uni04A3" unicode="&#x4a3;" horiz-adv-x="1234" 
d="M1044 311h191v-538l-262 227h-344l37 152v200h-222v-200l35 -152h-448l35 152v716l-35 154h448l-35 -154v-227h222v227l-37 154h450l-35 -154v-557z" />
    <glyph glyph-name="uni04A4" unicode="&#x4a4;" horiz-adv-x="1783" 
d="M1505 1092h-231v-908l61 -184h-544l43 184v348h-291v-348l41 -184h-523l41 184v1065l-41 185h523l-41 -185v-381h291v381l-43 185h899l145 -439z" />
    <glyph glyph-name="uni04A5" unicode="&#x4a5;" horiz-adv-x="1390" 
d="M1157 743h-108v-591l41 -152h-472l41 152v200h-215v-200l35 -152h-448l35 152v716l-35 154h448l-35 -154v-227h215v227l-41 156h723l70 -356z" />
    <glyph glyph-name="uni04A6" unicode="&#x4a6;" horiz-adv-x="2004" 
d="M1718 901l246 -225v-457l-209 -219h-278l-101 43v227h94l54 56v239l-125 41l-125 -41v-381l41 -184h-524l43 184v914h-291v-914l41 -184h-523l41 184v1065l-41 185h1254l-41 -185v-430l133 82h311z" />
    <glyph glyph-name="uni04A7" unicode="&#x4a7;" horiz-adv-x="1660" 
d="M1384 606l246 -225v-498l-209 -219h-217l-80 43v227h74l53 56v321l-43 41h-164v-200l35 -152h-440l37 152v583h-242v-583l35 -152h-438l35 152v716l-35 154h1048l-35 -154v-262h340z" />
    <glyph glyph-name="uni04A8" unicode="&#x4a8;" horiz-adv-x="1783" 
d="M1737 907v-377l-62 -118l-104 -80l71 -51h101v-281h-219l-135 57l-89 76l-92 -76l-186 -57h-674l-266 266v901l266 267h494l61 -377l-221 55l-102 -41l-62 -61v-545l70 -82l114 -41h271l-88 74l-60 114v377l199 199h514zM1190 762v-182l33 -80l67 -43l62 43l34 80v182
l-34 63l-64 29l-63 -29z" />
    <glyph glyph-name="uni04A9" unicode="&#x4a9;" horiz-adv-x="1404" 
d="M1329 625v-187l-43 -84l-74 -69l52 -25h69v-260h-155l-117 41l-62 53l-65 -53l-154 -41h-520l-188 188v646l188 190h393l43 -289l-157 39l-72 -29l-45 -45v-350l51 -57l80 -29h192l-61 51l-43 82v228l182 182h324zM940 524v-94l16 -43l35 -22l33 22l18 43v94l-18 35
l-33 14l-33 -14z" />
    <glyph glyph-name="uni04AA" unicode="&#x4aa;" horiz-adv-x="1093" 
d="M674 322h121l278 116l-82 -438h-297l-49 -53h96l115 -105v-219l-125 -112h-274l-78 77v146l51 -29h160l37 41l-37 45h-160l-57 76l47 78l100 55h-180l-258 266v901l258 267h651l82 -480l-258 138l-141 20l-103 -41l-61 -61v-586l61 -62z" />
    <glyph glyph-name="uni04AB" unicode="&#x4ab;" horiz-adv-x="964" 
d="M604 307l129 12l180 121l-57 -440h-260l-49 -53h96l115 -105v-219l-125 -112h-275l-77 77v146l51 -29h160l36 41l-36 45h-160l-58 76l48 78l100 55h-141l-209 209v608l209 207h575l57 -446l-180 129l-129 14l-108 -31l-47 -43v-266l47 -43z" />
    <glyph glyph-name="uni04AC" unicode="&#x4ac;" horiz-adv-x="1118" 
d="M766 1122v-786h258v-582l-285 246h-444l61 184v938h-129l-82 -20l-135 -82l74 414h956l68 -414l-135 76l-78 26h-129z" />
    <glyph glyph-name="uni04AD" unicode="&#x4ad;" horiz-adv-x="974" 
d="M674 743v-432h237v-538l-262 227h-405l61 184v559h-108l-82 -20l-135 -82l94 383h833l88 -383l-135 76l-78 26h-108z" />
    <glyph glyph-name="uni04AE" unicode="&#x4ae;" horiz-adv-x="1327" 
d="M868 518v-252l123 -266h-659l123 266v254l-445 914h568l-29 -144l121 -444l127 444l-31 144h551z" />
    <glyph glyph-name="uni04AF" unicode="&#x4af;" horiz-adv-x="1034" 
d="M680 -12v-254l55 -144h-456l53 144v225l-352 1065h432l-21 -137l119 -525l117 525l-31 137h459z" />
    <glyph glyph-name="uni04B0" unicode="&#x4b0;" horiz-adv-x="1388" 
d="M1317 1434l-328 -670h240l-51 -275l-103 -57h-207v-166l123 -266h-659l123 266v166h-289v332h170l-326 670h568l-29 -144l121 -444l127 444l-31 144h551z" />
    <glyph glyph-name="uni04B1" unicode="&#x4b1;" horiz-adv-x="1034" 
d="M1055 1024l-369 -1022h350l-47 -227l-92 -47h-215l53 -138h-456l51 138h-260v274h247l-337 1022h432l-21 -137l119 -525l117 525l-31 137h459z" />
    <glyph glyph-name="uni04B2" unicode="&#x4b2;" horiz-adv-x="1419" 
d="M1225 336h227v-582l-285 246h-352l12 145l-137 340l-108 -342l28 -141h-600l381 768l-330 664h545l-26 -138l141 -301l100 297l-28 142h538l-325 -699z" />
    <glyph glyph-name="uni04B3" unicode="&#x4b3;" horiz-adv-x="1183" 
d="M965 311h239v-538l-262 227h-352l24 109l-98 219l-65 -226l28 -100h-499l258 553l-222 469h482l-27 -96l70 -230l61 246l-29 80h471l-241 -498l151 -286z" />
    <glyph glyph-name="uni04B4" unicode="&#x4b4;" horiz-adv-x="1734" 
d="M1497 336h258v-582l-285 246h-1214l41 184v918h-70l-82 -21l-135 -82l94 435h793l88 -435l-135 76l-78 27h-35v-766h320v913l-43 185h524l-41 -185v-913z" />
    <glyph glyph-name="uni04B5" unicode="&#x4b5;" horiz-adv-x="1447" 
d="M1325 287h143v-533l-284 246h-944l34 154v589h-77l-82 -20l-135 -82l94 383h751l88 -383l-135 76l-78 26h-77v-456h354v585l-37 152h420l-35 -152v-585z" />
    <glyph glyph-name="uni04B6" unicode="&#x4b6;" horiz-adv-x="1409" 
d="M1171 336h259v-582l-285 246h-477l63 184v348h-444l-226 226v491l-41 185h523l-41 -185v-381h229v381l-43 185h524l-41 -185v-913z" />
    <glyph glyph-name="uni04B7" unicode="&#x4b7;" horiz-adv-x="1259" 
d="M1280 319v-538l-252 219h-407l61 143v252l-201 -88h-213l-178 158v420l-59 139h506l-64 -143v-189l14 -43l82 -28l68 28l45 58v174l-61 143h505l-63 -143v-562h217z" />
    <glyph glyph-name="uni04B8" unicode="&#x4b8;" horiz-adv-x="1228" 
d="M1192 1249v-1065l41 -184h-524l63 184v348h-72v-290l-221 61v229h-254l-225 226v491l-41 185h502l-41 -185v-381h59v240l221 49v-289h72v381l-43 185h504z" />
    <glyph glyph-name="uni04B9" unicode="&#x4b9;" horiz-adv-x="1198" 
d="M1104 881v-738l63 -143h-505l61 143v252l-49 -22v-193l-158 17v125h-248l-178 143v420l-59 139h506l-64 -143v-260l43 -27v197l158 20v-219l49 29v260l-61 143h505z" />
    <glyph glyph-name="uni04BA" unicode="&#x4ba;" horiz-adv-x="1273" 
d="M731 0l41 184v381h-229v-381l43 -184h-525l41 184v1065l-41 185h545l-63 -185v-348h444l225 -225v-492l41 -184h-522z" />
    <glyph glyph-name="uni04BB" unicode="&#x4bb;" horiz-adv-x="1148" 
d="M643 0l39 137v543l-14 43l-62 29l-67 -29l-66 -119v-461l43 -143h-465l41 143v1229l-41 144h422v-633l78 90l123 51h213l178 -158v-723l43 -143h-465z" />
    <glyph glyph-name="uni04BC" unicode="&#x4bc;" horiz-adv-x="1515" 
d="M1454 743l-22 -157h-697l13 -156l34 -61l90 -41l86 41l35 61l6 39h414l-29 -203l-208 -266h-611l-225 266l-37 320h-139l-137 61l-68 158l53 178h258l-16 -102h51l35 286l246 267h569l246 -267zM735 881h271l-13 143l-41 61l-80 41l-84 -41l-40 -61z" />
    <glyph glyph-name="uni04BD" unicode="&#x4bd;" horiz-adv-x="1206" 
d="M1012 408l-406 6v-54l56 -73l100 -33l125 12l227 101l-65 -367h-598l-209 199v211l-68 -2l-174 65l-72 158l64 178h196l-41 -135l35 -53h60v204l198 199h510l185 -184v-305zM606 700v-79h197v79l-35 64l-63 29l-64 -29z" />
    <glyph glyph-name="uni04BE" unicode="&#x4be;" horiz-adv-x="1515" 
d="M1454 743l-22 -157h-697l13 -156l34 -61l90 -41l86 41l35 61l6 39h414l-29 -203l-208 -266h-125l-168 -246l-172 246h-146l-225 266l-37 320h-139l-137 61l-68 158l53 178h258l-16 -102h51l35 286l246 267h569l246 -267zM735 881h271l-13 143l-41 61l-80 41l-84 -41
l-40 -61z" />
    <glyph glyph-name="uni04BF" unicode="&#x4bf;" horiz-adv-x="1206" 
d="M1012 408l-406 6v-54l56 -73l100 -33l125 12l227 101l-65 -367h-166l-168 -246l-172 246h-92l-209 199v211l-68 -2l-174 65l-72 158l64 178h196l-41 -135l35 -53h60v204l198 199h510l185 -184v-305zM606 700v-79h197v79l-35 64l-63 29l-64 -29z" />
    <glyph glyph-name="uni04C0" unicode="&#x4c0;" horiz-adv-x="657" 
d="M594 1434l-62 -185v-1065l64 -184h-535l62 184v1065l-62 185h533z" />
    <glyph glyph-name="uni04C1" unicode="&#x4c1;" horiz-adv-x="2002" 
d="M702 1642l-71 121l-8 138h274l25 -76l77 -37l78 37l23 76h264l-8 -138l-76 -121l-113 -86l-168 -40l-168 40zM1616 766l272 -623l94 -143h-479l-213 563h-80v-291l62 -272h-541l62 184v379h-80l-213 -563h-480l95 143l272 623l-190 463l-177 205h488l223 -574h62v389
l-41 185h499l-41 -185v-389h62l219 574h491l-176 -205z" />
    <glyph glyph-name="uni04C2" unicode="&#x4c2;" horiz-adv-x="1486" 
d="M444 1233l-71 121l-8 137h274l25 -76l77 -37l78 37l23 76h264l-8 -137l-76 -121l-113 -86l-168 -41l-168 41zM1268 524l151 -422l68 -102h-412l-100 338h-57v-143l43 -195h-445l43 131v207h-57l-101 -338h-411l67 102l152 422l-94 355l-125 145h438l88 -393h43v264
l-29 129h416l-28 -129v-264h43l83 393h443l-125 -145z" />
    <glyph glyph-name="uni04C3" unicode="&#x4c3;" horiz-adv-x="1366" 
d="M1294 307l58 -231l-58 -240l-258 -246h-338l-82 349l107 -35h78l98 88l21 84l-21 82l-229 391h-129v-359l61 -190h-541l62 184v1065l-41 185h500l-41 -226v-389h100l233 615h492l-176 -205l-176 -436z" />
    <glyph glyph-name="uni04C4" unicode="&#x4c4;" horiz-adv-x="1069" 
d="M944 872l-135 -327l178 -164v-498l-209 -219h-217l-80 43v227h74l53 56v321l-39 37h-147v-213l45 -135h-436l43 131v758l-29 135h408l-31 -166v-235h70l165 401h412z" />
    <glyph glyph-name="uni04C5" unicode="&#x4c5;" horiz-adv-x="1712" 
d="M1466 336h287l-293 -602l-207 190l39 76h-311l43 184v944h-293v-862l-219 -266h-440l-103 369l168 -76h88l68 80v858l-60 203h1272l-41 -185v-917z" />
    <glyph glyph-name="uni04C6" unicode="&#x4c6;" horiz-adv-x="1302" 
d="M1110 336h193l-293 -602l-207 190l39 76h-148l31 131v588h-147v-531l-156 -188h-379l-74 305l119 -53h64l47 57v565l-41 150h981l-29 -135v-553z" />
    <glyph glyph-name="uni04C7" unicode="&#x4c7;" horiz-adv-x="1376" 
d="M791 1434h524l-41 -185v-1392l-217 -267h-379l-82 349l106 -15h68l64 76v532h-291v-348l41 -184h-523l41 184v1065l-41 185h523l-41 -185v-381h291v381z" />
    <glyph glyph-name="uni04C8" unicode="&#x4c8;" horiz-adv-x="1120" 
d="M1044 868v-561l3 2v-469l-156 -188h-342l-66 285l111 -33h35l47 57v391h-242v-200l35 -152h-438l35 152v716l-35 154h438l-35 -154v-227h242v227l-37 154h440z" />
    <glyph glyph-name="uni04C9" unicode="&#x4c9;" horiz-adv-x="1497" 
d="M1251 336h287l-293 -602l-207 190l39 76h-307l43 184v348h-291v-348l41 -184h-502l41 184v1065l-41 185h502l-41 -185v-381h291v381l-43 185h504l-41 -185v-948z" />
    <glyph glyph-name="uni04CA" unicode="&#x4ca;" horiz-adv-x="1302" 
d="M1044 336h259l-293 -602l-207 190l39 76h-213l37 152v200h-222v-200l35 -152h-448l35 152v716l-35 154h448l-35 -154v-227h222v227l-37 154h450l-35 -154v-532z" />
    <glyph glyph-name="uni04CB" unicode="&#x4cb;" horiz-adv-x="1273" 
d="M1171 1249v-1065l41 -184h-434l-284 -246v582h237v196h-444l-226 226v491l-41 185h523l-41 -185v-381h229v381l-43 185h524z" />
    <glyph glyph-name="uni04CC" unicode="&#x4cc;" horiz-adv-x="1157" 
d="M1063 143l63 -143h-424l-251 -219v538h231v117l-201 -67h-213l-178 137v379l-59 139h506l-64 -143v-148l14 -43l82 -28l68 28l45 58v133l-61 143h505l-63 -143v-738z" />
    <glyph glyph-name="uni04CD" unicode="&#x4cd;" horiz-adv-x="1757" 
d="M1516 336h282l-293 -602l-207 190l39 76h-266l64 184v635l-310 -819h-16l-305 819v-635l61 -184h-504l62 184v1065l-62 185h547l221 -603l201 603h547l-61 -185v-913z" />
    <glyph glyph-name="uni04CE" unicode="&#x4ce;" horiz-adv-x="1507" 
d="M1239 336h268l-293 -602l-206 190l39 76h-205l45 131v416l-223 -547h-13l-223 547v-416l43 -131h-440l43 131v758l-43 135h485l148 -383l133 383h487l-45 -135v-553z" />
    <glyph glyph-name="uni04CF" unicode="&#x4cf;" horiz-adv-x="598" 
d="M494 143l63 -143h-506l62 143v1209l-62 164h443v-1373z" />
    <glyph glyph-name="uni04D0" unicode="&#x4d0;" horiz-adv-x="1286" 
d="M1032 1896l-8 -137l-76 -121l-112 -86l-168 -41l-168 41l-129 86l-72 121l-8 137h274l25 -75l78 -37l77 37l23 75h264zM283 1270l-39 164h798l-47 -164l187 -1004l94 -266h-524l43 266h-299l39 -266h-525l94 266zM684 1112h-61l-103 -551h254z" />
    <glyph glyph-name="uni04D1" unicode="&#x4d1;" horiz-adv-x="1087" 
d="M893 1491l-8 -137l-76 -121l-113 -86l-168 -41l-168 41l-129 86l-71 121l-8 137h274l25 -76l77 -37l78 37l23 76h264zM963 225l104 -225h-481v123l-80 -80l-125 -43h-160l-170 141v248l123 121l412 82v49l-56 66l-155 22l-144 -20l-143 -74l119 389h526l230 -229v-570z
M420 272l57 -34l72 30l37 62v92l-166 -41v-109z" />
    <glyph glyph-name="uni04D2" unicode="&#x4d2;" horiz-adv-x="1286" 
d="M305 1923h168l113 -113v-174l-113 -112h-168l-112 112v174zM829 1923h168l113 -113v-174l-113 -112h-168l-112 112v174zM283 1270l-39 164h798l-47 -164l187 -1004l94 -266h-524l43 266h-299l39 -266h-525l94 266zM684 1112h-61l-103 -551h254z" />
    <glyph glyph-name="uni04D3" unicode="&#x4d3;" horiz-adv-x="1087" 
d="M166 1518h168l112 -113v-174l-112 -113h-168l-113 113v174zM690 1518h168l113 -113v-174l-113 -113h-168l-112 113v174zM963 225l104 -225h-481v123l-80 -80l-125 -43h-160l-170 141v248l123 121l412 82v49l-56 66l-155 22l-144 -20l-143 -74l119 389h526l230 -229v-570z
M420 272l57 -34l72 30l37 62v92l-166 -41v-109z" />
    <glyph glyph-name="uni04D4" unicode="&#x4d4;" horiz-adv-x="1832" 
d="M1554 309l258 103l-77 -412h-942l57 264v2h-328l33 -266h-545l123 266l283 1004l-23 164h1280l99 -371l-254 61h-246v-223h168l155 29l-4 -350l-151 32h-168v-303h282zM588 561h262v557h-80z" />
    <glyph glyph-name="uni04D5" unicode="&#x4d5;" horiz-adv-x="1562" 
d="M1368 412l-405 2v-54l55 -73l100 -33l125 12l227 101l-65 -367h-635l-123 123l-80 -80l-145 -43h-180l-191 170v227l144 133l391 82v39l-56 66l-135 22l-155 -20l-144 -53l119 358h518l53 -51l52 51h469l184 -184v-305zM1061 793l-64 -29l-34 -64v-100h196v100l-35 64z
M586 348v51l-187 -43v-71l47 -45l113 41z" />
    <glyph glyph-name="uni04D6" unicode="&#x4d6;" horiz-adv-x="1075" 
d="M238 1638l-72 121l-8 137h274l25 -75l78 -37l77 37l23 75h264l-8 -137l-76 -121l-113 -86l-167 -41l-168 41zM797 307l258 62l-99 -369h-895l58 170v1094l-58 170h895l58 -367l-254 61h-225v-227h208l156 29l-4 -350l-152 32h-208v-305h262z" />
    <glyph glyph-name="uni04D7" unicode="&#x4d7;" 
d="M240 1233l-72 121l-8 137h274l25 -76l78 -37l77 37l23 76h264l-8 -137l-76 -121l-112 -86l-168 -41l-168 41zM862 412l-428 2v-37l55 -74l103 -33l145 13l219 84l-65 -367h-610l-209 199v626l198 199h531l184 -184v-305zM469 739l-35 -53v-86h197v86l-35 53l-64 29z" />
    <glyph glyph-name="uni04D8" unicode="&#x4d8;" horiz-adv-x="1331" 
d="M950 1434l246 -267l53 -458l-53 -443l-246 -266h-569l-246 266l-53 424l22 158h697l-13 156l-34 61l-90 41l-86 -41l-35 -61l-6 -39h-414l29 202l229 267h569zM748 348l40 62l13 143h-271l13 -143l41 -62l80 -41z" />
    <glyph glyph-name="uni04D9" unicode="&#x4d9;" 
d="M776 1024l209 -199v-626l-199 -199h-530l-184 184v305l123 123l428 -2v37l-56 74l-102 33l-146 -13l-219 -84l66 367h610zM588 285l35 53v86h-197v-86l35 -53l63 -29z" />
    <glyph glyph-name="uni04DA" unicode="&#x4da;" horiz-adv-x="1331" 
d="M315 1927h168l113 -112v-175l-113 -112h-168l-112 112v175zM840 1927h168l112 -112v-175l-112 -112h-168l-113 112v175zM950 1434l246 -267l53 -458l-53 -443l-246 -266h-569l-246 266l-53 424l22 158h697l-13 156l-34 61l-90 41l-86 -41l-35 -61l-6 -39h-414l29 202
l229 267h569zM748 348l40 62l13 143h-271l13 -143l41 -62l80 -41z" />
    <glyph glyph-name="uni04DB" unicode="&#x4db;" 
d="M330 1118h-168l-113 113v174l113 113h168l112 -113v-174zM854 1118h-168l-113 113v174l113 113h168l113 -113v-174zM776 1024l209 -199v-626l-199 -199h-530l-184 184v305l123 123l428 -2v37l-56 74l-102 33l-146 -13l-219 -84l66 367h610zM588 285l35 53v86h-197v-86
l35 -53l63 -29z" />
    <glyph glyph-name="uni04DC" unicode="&#x4dc;" horiz-adv-x="2002" 
d="M805 1528h-168l-113 112v175l113 112h168l113 -112v-175zM1329 1528h-168l-112 112v175l112 112h168l113 -112v-175zM1616 766l272 -623l94 -143h-479l-213 563h-80v-291l62 -272h-541l62 184v379h-80l-213 -563h-480l95 143l272 623l-190 463l-177 205h488l223 -574h62
v389l-41 185h499l-41 -185v-389h62l219 574h491l-176 -205z" />
    <glyph glyph-name="uni04DD" unicode="&#x4dd;" horiz-adv-x="1486" 
d="M547 1118h-168l-113 113v174l113 113h168l112 -113v-174zM1071 1118h-168l-112 113v174l112 113h168l113 -113v-174zM1268 524l151 -422l68 -102h-412l-100 338h-57v-143l43 -195h-445l43 131v207h-57l-101 -338h-411l67 102l152 422l-94 355l-125 145h438l88 -393h43
v264l-29 129h416l-28 -129v-264h43l83 393h443l-125 -145z" />
    <glyph glyph-name="uni04DE" unicode="&#x4de;" horiz-adv-x="1042" 
d="M121 1927h168l112 -112v-175l-112 -112h-168l-113 112v175zM645 1927h168l113 -112v-175l-113 -112h-168l-113 112v175zM1001 266l-266 -266h-635l-57 496l262 -168l119 -37l117 37l53 65v107l-78 82l-139 -21l-23 291h160l61 63v107l-40 70l-144 26l-139 -26l-211 -105
l76 447h594l266 -267v-260l-141 -139l165 -125v-377z" />
    <glyph glyph-name="uni04DF" unicode="&#x4df;" horiz-adv-x="856" 
d="M45 1518h168l113 -113v-174l-113 -113h-168l-113 113v174zM569 1518h168l113 -113v-174l-113 -113h-168l-112 113v174zM805 201l-236 -201h-526l-51 403l227 -122l94 -31l95 31l43 53v33l-64 49l-111 -17l-18 222h129l51 32v33l-35 55l-114 23l-129 -16l-170 -93l67 369
h549l178 -168v-215l-90 -86l111 -111v-243z" />
    <glyph glyph-name="uni04E0" unicode="&#x4e0;" horiz-adv-x="1142" 
d="M1040 266l-245 -266h-656l-57 516l262 -168l119 -37l108 37l54 66v106l-78 82h-154v229l221 246h-303l-231 -90l76 447h860v-336l-203 -254l227 -201v-377z" />
    <glyph glyph-name="uni04E1" unicode="&#x4e1;" horiz-adv-x="915" 
d="M864 -37l-223 -242h-596l-53 469l239 -153l107 -33l100 33l47 59v99l-69 73h-142v209l203 223h-276l-211 -82l69 406h783v-305l-185 -232l207 -182v-342z" />
    <glyph glyph-name="uni04E2" unicode="&#x4e2;" horiz-adv-x="1406" 
d="M1122 1542h-770l-20 318h813zM1305 1247v-1063l41 -184h-502l41 184v502l-363 -502l41 -184h-502l41 184v1059l-41 191h510l-49 -195v-577l365 546l-41 226h500z" />
    <glyph glyph-name="uni04E3" unicode="&#x4e3;" horiz-adv-x="1101" 
d="M940 1137h-770l-20 317h813zM1032 889v-756l29 -133h-426l29 133v336l-236 -350l29 -119h-426l28 133v752l-28 139h432l-35 -141v-375l238 366l-29 150h424z" />
    <glyph glyph-name="uni04E4" unicode="&#x4e4;" horiz-adv-x="1406" 
d="M539 1524h-168l-113 112v174l113 113h168l112 -113v-174zM1063 1524h-168l-113 112v174l113 113h168l113 -113v-174zM1305 1247v-1063l41 -184h-502l41 184v502l-363 -502l41 -184h-502l41 184v1059l-41 191h510l-49 -195v-577l365 546l-41 226h500z" />
    <glyph glyph-name="uni04E5" unicode="&#x4e5;" horiz-adv-x="1101" 
d="M356 1118h-168l-112 113v174l112 113h168l113 -113v-174zM881 1118h-168l-113 113v174l113 113h168l112 -113v-174zM1032 889v-756l29 -133h-426l29 133v336l-236 -350l29 -119h-426l28 133v752l-28 139h432l-35 -141v-375l238 366l-29 150h424z" />
    <glyph glyph-name="uni04E6" unicode="&#x4e6;" horiz-adv-x="1265" 
d="M279 1923h167l113 -113v-174l-113 -112h-167l-113 112v174zM803 1923h168l112 -113v-174l-112 -112h-168l-113 112v174zM918 1434l266 -267v-901l-266 -266h-570l-266 266v901l266 267h570zM756 1044l-35 62l-90 41l-86 -41l-35 -62v-675l41 -62l80 -41l84 41l41 62v675z
" />
    <glyph glyph-name="uni04E7" unicode="&#x4e7;" horiz-adv-x="1095" 
d="M190 1518h168l113 -113v-174l-113 -113h-168l-112 113v174zM715 1518h168l112 -113v-174l-112 -113h-168l-113 113v174zM72 825l198 199h555l199 -199v-626l-199 -199h-555l-198 199v626zM463 328l35 -66l57 -22l57 22l35 66v372l-35 64l-57 22l-57 -22l-35 -64v-372z
" />
    <glyph glyph-name="uni04E8" unicode="&#x4e8;" horiz-adv-x="1265" 
d="M918 1434l266 -267v-901l-266 -266h-570l-266 266v901l266 267h570zM545 1116l-56 -72v-176h287v176l-55 72l-90 31zM715 297l61 72v163h-287v-163l62 -72l80 -31z" />
    <glyph glyph-name="uni04E9" unicode="&#x4e9;" horiz-adv-x="1075" 
d="M825 1024l199 -199v-626l-199 -199h-555l-198 199v626l198 199h555zM498 764l-35 -64v-59h184v59l-35 64l-57 22zM612 262l35 66v63h-184v-63l35 -66l57 -22z" />
    <glyph glyph-name="uni04EA" unicode="&#x4ea;" horiz-adv-x="1265" 
d="M453 1528h-168l-113 112v175l113 112h168l112 -112v-175zM977 1528h-168l-113 112v175l113 112h168l113 -112v-175zM918 1434l266 -267v-901l-266 -266h-570l-266 266v901l266 267h570zM545 1116l-56 -72v-176h287v176l-55 72l-90 31zM715 297l61 72v163h-287v-163
l62 -72l80 -31z" />
    <glyph glyph-name="uni04EB" unicode="&#x4eb;" horiz-adv-x="1075" 
d="M358 1118h-168l-112 113v174l112 113h168l113 -113v-174zM883 1118h-168l-113 113v174l113 113h168l112 -113v-174zM825 1024l199 -199v-626l-199 -199h-555l-198 199v626l198 199h555zM498 764l-35 -64v-59h184v59l-35 64l-57 22zM612 262l35 66v63h-184v-63l35 -66
l57 -22z" />
    <glyph glyph-name="uni04EC" unicode="&#x4ec;" horiz-adv-x="1245" 
d="M344 1528h-168l-113 112v175l113 112h168l113 -112v-175zM868 1528h-168l-112 112v175l112 112h168l113 -112v-175zM1061 1167l102 -442l-102 -459l-266 -266h-652l-82 479l279 -117h121l102 41l82 62l35 110h-465l-41 295h512l-41 140l-82 61l-102 41l-142 -20
l-258 -138l82 480h652z" />
    <glyph glyph-name="uni04ED" unicode="&#x4ed;" horiz-adv-x="950" 
d="M242 1118h-168l-113 113v174l113 113h168l112 -113v-174zM766 1118h-168l-113 113v174l113 113h168l113 -113v-174zM858 817l62 -303l-62 -305l-209 -209h-532l-66 371l203 -101l104 -12l101 33l47 49l10 45h-319l-41 254h362l-12 51l-47 47l-101 33l-104 -16l-203 -109
l66 379h532z" />
    <glyph glyph-name="uni04EE" unicode="&#x4ee;" horiz-adv-x="1271" 
d="M1022 1546h-770l-21 318h813zM731 1434h551l-623 -1434h-509l-82 418l317 -96l39 90l-434 1022h532l-28 -144l127 -409l141 409z" />
    <glyph glyph-name="uni04EF" unicode="&#x4ef;" horiz-adv-x="1058" 
d="M918 1137h-771l-20 317h813zM612 1024h467l-403 -1356l-98 -78h-297l147 410h-164l-284 1024h469l-56 -137l135 -551l142 551z" />
    <glyph glyph-name="uni04F0" unicode="&#x4f0;" horiz-adv-x="1271" 
d="M270 1927h168l113 -112v-175l-113 -112h-168l-112 112v175zM795 1927h168l112 -112v-175l-112 -112h-168l-113 112v175zM731 1434h551l-623 -1434h-509l-82 418l317 -96l39 90l-434 1022h532l-28 -144l127 -409l141 409z" />
    <glyph glyph-name="uni04F1" unicode="&#x4f1;" horiz-adv-x="1058" 
d="M334 1118h-168l-113 113v174l113 113h168l112 -113v-174zM858 1118h-168l-112 113v174l112 113h168l113 -113v-174zM612 1024h467l-403 -1356l-98 -78h-297l147 410h-164l-284 1024h469l-56 -137l135 -551l142 551z" />
    <glyph glyph-name="uni04F2" unicode="&#x4f2;" horiz-adv-x="1271" 
d="M254 1556l129 349h379l-180 -349h-328zM684 1556l170 349h461l-283 -349h-348zM731 1434h551l-623 -1434h-509l-82 418l317 -96l39 90l-434 1022h532l-28 -144l127 -409l141 409z" />
    <glyph glyph-name="uni04F3" unicode="&#x4f3;" horiz-adv-x="1058" 
d="M657 1495l-180 -348h-327l129 348h378zM928 1147h-348l170 348h460zM670 887l-58 137h467l-403 -1356l-98 -78h-297l147 410h-164l-284 1024h469l-56 -137l135 -551z" />
    <glyph glyph-name="uni04F4" unicode="&#x4f4;" horiz-adv-x="1273" 
d="M262 1923h168l113 -113v-174l-113 -112h-168l-112 112v174zM786 1923h168l113 -113v-174l-113 -112h-168l-112 112v174zM543 1434l-41 -185v-381h229v381l-43 185h524l-41 -185v-1065l41 -184h-544l63 184v348h-444l-226 226v491l-41 185h523z" />
    <glyph glyph-name="uni04F5" unicode="&#x4f5;" horiz-adv-x="1146" 
d="M221 1518h168l113 -113v-174l-113 -113h-168l-112 113v174zM745 1518h168l113 -113v-174l-113 -113h-168l-112 113v174zM1053 881v-738l63 -143h-506l62 143v252l-201 -88h-213l-178 158v420l-60 139h506l-63 -143v-189l14 -43l82 -28l68 28l45 58v174l-62 143h506z" />
    <glyph glyph-name="uni04F6" unicode="&#x4f6;" horiz-adv-x="1052" 
d="M532 1092v-756h259v-582l-285 246h-445l62 184v1065l-62 185h887l146 -439l-330 97h-232z" />
    <glyph glyph-name="uni04F7" unicode="&#x4f7;" horiz-adv-x="802" 
d="M440 743v-432h203v-538l-262 227h-371l41 152v716l-41 156h723l70 -356l-254 75h-109z" />
    <glyph glyph-name="uni04F8" unicode="&#x4f8;" horiz-adv-x="1849" 
d="M582 1927h168l112 -112v-175l-112 -112h-168l-113 112v175zM1106 1927h168l112 -112v-175l-112 -112h-168l-113 112v175zM518 834h342l311 -234v-334l-266 -266h-844l62 184v1065l-62 185h519l-62 -185v-415zM1786 1434l-62 -185v-1065l64 -184h-535l62 184v1065l-62 185
h533zM723 545l-84 41h-121v-307h121l84 40l43 111z" />
    <glyph glyph-name="uni04F9" unicode="&#x4f9;" horiz-adv-x="1554" 
d="M649 1118h-168l-112 113v174l112 113h168l113 -113v-174zM1286 1231l-112 -113h-168l-113 113v174l113 113h168l112 -113v-174zM1051 0l55 131v764l-55 131h471l-54 -131v-764l56 -131h-473zM487 631h324l176 -172v-260l-156 -199h-800l61 184v688l-37 152h467l-35 -152
v-241zM639 266l14 47l-14 47l-41 35h-111v-164h111z" />
    <glyph glyph-name="uni04FC" unicode="&#x4fc;" horiz-adv-x="1423" 
d="M971 31l-240 446l-129 -334l29 -141h-621l443 768l-392 664h566l-27 -138l162 -292l121 288l-29 142h559l-387 -678l387 -662v-256l-188 -248h-400l-102 390l119 -56h88l41 45v62z" />
    <glyph glyph-name="uni04FD" unicode="&#x4fd;" horiz-adv-x="1064" 
d="M1085 1024l-262 -498l252 -512v-192l-141 -187h-361l-75 293l88 -43h67l31 35v45l-147 363l-86 -226l28 -100h-499l278 553l-242 469h482l-27 -96l90 -230l82 246l-29 80h471z" />
    <glyph glyph-name="uni0510" unicode="&#x510;" horiz-adv-x="1042" 
d="M41 266v377l166 125l-141 139v260l266 267h594l75 -447l-210 105l-140 26l-143 -26l-41 -70v-107l61 -63h160l-22 -291l-140 21l-77 -82v-107l53 -65l116 -37l119 37l262 168l-57 -496h-635z" />
    <glyph glyph-name="uni0511" unicode="&#x511;" horiz-adv-x="856" 
d="M51 201v243l111 111l-90 86v215l178 168h549l67 -369l-170 93l-129 16l-114 -23l-35 -55v-33l51 -32h129l-18 -222l-111 17l-63 -49v-33l43 -53l94 -31l94 31l227 122l-51 -403h-526z" />
    <glyph glyph-name="uni0512" unicode="&#x512;" horiz-adv-x="1597" 
d="M264 1434h1272l-41 -185v-1392l-219 -267h-440l-103 430l168 -75h88l66 78v1075h-293v-832l-219 -266h-441l-102 430l168 -76h88l68 80v797z" />
    <glyph glyph-name="uni0513" unicode="&#x513;" horiz-adv-x="1241" 
d="M219 1024h981l-29 -135v-1049l-155 -188h-342l-66 285l107 -33h35l47 57v758h-168v-531l-156 -188h-369l-73 305l119 -53h63l47 57v565z" />
    <glyph glyph-name="uni051C" unicode="&#x51c;" horiz-adv-x="1875" 
d="M1399 1434h467l-234 -1434h-528l-162 813l-162 -813h-536l-234 1434h484l-23 -226l90 -757l195 983h389l190 -983l82 757z" />
    <glyph glyph-name="uni051D" unicode="&#x51d;" horiz-adv-x="1417" 
d="M1024 1024h414l-236 -1024h-414l-75 440l-84 -440h-414l-235 1024h417l-28 -106l71 -527l129 633h295l117 -621l66 515z" />
    <glyph glyph-name="uni0524" unicode="&#x524;" horiz-adv-x="1533" 
d="M1274 336h260v-582l-285 246h-458l43 184v914h-291v-914l41 -184h-523l41 184v1065l-41 185h1254l-41 -185v-913z" />
    <glyph glyph-name="uni0525" unicode="&#x525;" horiz-adv-x="1253" 
d="M1044 311h209v-538l-262 227h-362l37 152v583h-222v-583l35 -152h-448l35 152v716l-35 156h1048l-35 -156v-557z" />
    <glyph glyph-name="uni0526" unicode="&#x526;" horiz-adv-x="1427" 
d="M1212 336h236v-582l-285 246h-432l41 184v381h-229v-381l43 -184h-525l41 184v1065l-41 185h545l-63 -185v-348h444l225 -225v-340z" />
    <glyph glyph-name="uni0527" unicode="&#x527;" horiz-adv-x="1261" 
d="M1044 311h218v-538l-263 227h-376l39 137v543l-15 43l-61 29l-68 -29l-65 -119v-461l43 -143h-465l41 143v1229l-41 144h422v-633l77 90l123 51h213l178 -158v-555z" />
    <glyph glyph-name="uni1E30" unicode="&#x1e30;" horiz-adv-x="1302" 
d="M434 1552l150 349h460l-262 -349h-348zM662 563l-121 -184v-107l61 -272h-541l62 184v1065l-41 185h500l-41 -226v-389l258 463l-15 152h508l-73 -144l-232 -442l232 -705l94 -143h-479z" />
    <glyph glyph-name="uni1E31" unicode="&#x1e31;" horiz-adv-x="1183" 
d="M684 1946l-262 -349h-348l149 349h461zM592 371l-98 -119v-109l63 -143h-506l62 143v1209l-62 164h443v-877l190 240l-6 145h465l-285 -338l229 -563l117 -123h-463z" />
    <glyph glyph-name="uni1E3E" unicode="&#x1e3e;" horiz-adv-x="1638" 
d="M594 1552l149 349h461l-262 -349h-348zM809 0l-305 819v-635l61 -184h-504l62 184v1065l-62 185h547l221 -603l201 603h547l-61 -185v-1065l61 -184h-506l64 184v635l-310 -819h-16z" />
    <glyph glyph-name="uni1E3F" unicode="&#x1e3f;" horiz-adv-x="1695" 
d="M1290 1495l-262 -348h-348l149 348h461zM1200 0l29 135v545l-15 43l-71 29l-66 -29l-35 -57v-523l33 -143h-444l28 135v545l-14 43l-72 29l-65 -29l-35 -57v-523l23 -143h-445l41 143v656l-61 164l442 102v-121l199 80h172l198 -100l189 100h203l178 -158v-723l43 -143
h-455z" />
    <glyph glyph-name="uni1E44" unicode="&#x1e44;" horiz-adv-x="1333" 
d="M438 1630v187l123 122h193l123 -122v-187l-123 -123h-193zM510 727v-543l41 -184h-469l41 184v1063l-62 187h459l352 -772v577l-49 195h449l-41 -191v-1243h-379z" />
    <glyph glyph-name="uni1E45" unicode="&#x1e45;" horiz-adv-x="1148" 
d="M668 1102h-193l-123 123v186l123 123h193l123 -123v-186zM643 0l39 137v543l-14 43l-82 29l-68 -29l-45 -57v-523l23 -143h-445l41 143v656l-61 164l442 102v-129l201 88h213l178 -158v-723l43 -143h-465z" />
    <glyph glyph-name="Wgrave" unicode="&#x1e80;" horiz-adv-x="1875" 
d="M1182 1552h-348l-242 349h461zM1399 1434h467l-234 -1434h-528l-162 813l-162 -813h-536l-234 1434h484l-23 -226l90 -757l195 983h389l190 -983l82 757z" />
    <glyph glyph-name="wgrave" unicode="&#x1e81;" horiz-adv-x="1417" 
d="M901 1147h-348l-242 348h461zM1024 1024h414l-236 -1024h-414l-75 440l-84 -440h-414l-235 1024h417l-28 -106l71 -527l129 633h295l117 -621l66 515z" />
    <glyph glyph-name="Wacute" unicode="&#x1e82;" horiz-adv-x="1875" 
d="M780 1552l150 349h461l-263 -349h-348zM1399 1434h467l-234 -1434h-528l-162 813l-162 -813h-536l-234 1434h484l-23 -226l90 -757l195 983h389l190 -983l82 757z" />
    <glyph glyph-name="wacute" unicode="&#x1e83;" horiz-adv-x="1417" 
d="M500 1147l149 348h461l-262 -348h-348zM1024 1024h414l-236 -1024h-414l-75 440l-84 -440h-414l-235 1024h417l-28 -106l71 -527l129 633h295l117 -621l66 515z" />
    <glyph glyph-name="Wdieresis" unicode="&#x1e84;" horiz-adv-x="1875" 
d="M635 1923h168l112 -113v-174l-112 -112h-168l-113 112v174zM1159 1923h168l113 -113v-174l-113 -112h-168l-112 112v174zM1399 1434h467l-234 -1434h-528l-162 813l-162 -813h-536l-234 1434h484l-23 -226l90 -757l195 983h389l190 -983l82 757z" />
    <glyph glyph-name="wdieresis" unicode="&#x1e85;" horiz-adv-x="1417" 
d="M354 1518h168l113 -113v-174l-113 -113h-168l-112 113v174zM879 1518h168l112 -113v-174l-112 -113h-168l-113 113v174zM1024 1024h414l-236 -1024h-414l-75 440l-84 -440h-414l-235 1024h417l-28 -106l71 -527l129 633h295l117 -621l66 515z" />
    <glyph glyph-name="uni1E9E" unicode="&#x1e9e;" horiz-adv-x="1249" 
d="M143 1167l246 267h602l146 -154l-213 -414l284 -164v-436l-245 -266h-283l-84 240l166 73l41 172l-41 177l-158 102l148 350h-201l-12 -1114h-478l82 205v962z" />
    <glyph glyph-name="uni1EBC" unicode="&#x1ebc;" horiz-adv-x="1075" 
d="M383 1614h-64l-153 -88l4 256l96 119l123 32l297 -96h64l153 88l-4 -256l-96 -119l-123 -32zM797 307l258 62l-99 -369h-895l58 170v1094l-58 170h895l58 -367l-254 61h-225v-227h208l156 29l-4 -350l-152 32h-208v-305h262z" />
    <glyph glyph-name="uni1EBD" unicode="&#x1ebd;" 
d="M385 1208h-63l-154 -88l4 256l96 119l123 33l297 -96h64l153 88l-4 -256l-96 -119l-123 -33zM862 412l-428 2v-37l55 -74l103 -33l145 13l219 84l-65 -367h-610l-209 199v626l198 199h531l184 -184v-305zM469 739l-35 -53v-86h197v86l-35 53l-64 29z" />
    <glyph glyph-name="Ygrave" unicode="&#x1ef2;" horiz-adv-x="1327" 
d="M854 1552h-348l-242 349h461zM868 518v-252l123 -266h-659l123 266v254l-445 914h568l-29 -144l121 -444l127 444l-31 144h551z" />
    <glyph glyph-name="ygrave" unicode="&#x1ef3;" horiz-adv-x="1058" 
d="M713 1147h-348l-242 348h461zM612 1024h467l-403 -1356l-98 -78h-297l147 410h-164l-284 1024h469l-56 -137l135 -551l142 551z" />
    <glyph glyph-name="uni1EF8" unicode="&#x1ef8;" horiz-adv-x="1327" 
d="M518 1614h-63l-154 -88l4 256l96 119l123 32l297 -96h64l153 88l-4 -256l-96 -119l-123 -32zM868 518v-252l123 -266h-659l123 266v254l-445 914h568l-29 -144l121 -444l127 444l-31 144h551z" />
    <glyph glyph-name="uni1EF9" unicode="&#x1ef9;" horiz-adv-x="1058" 
d="M377 1208h-64l-153 -88l4 256l96 119l123 33l297 -96h63l154 88l-4 -256l-96 -119l-123 -33zM612 1024h467l-403 -1356l-98 -78h-297l147 410h-164l-284 1024h469l-56 -137l135 -551l142 551z" />
    <glyph glyph-name="endash" unicode="&#x2013;" horiz-adv-x="1351" 
d="M1176 500h-1104v331h1218l-39 -274z" />
    <glyph glyph-name="emdash" unicode="&#x2014;" horiz-adv-x="2170" 
d="M1995 500h-1923v331h2037l-38 -274z" />
    <glyph glyph-name="quoteleft" unicode="&#x2018;" horiz-adv-x="587" 
d="M567 1516l-116 -594h-371l-39 41l219 553h307z" />
    <glyph glyph-name="quoteright" unicode="&#x2019;" horiz-adv-x="591" 
d="M41 922l117 594h374l39 -41l-243 -553h-287z" />
    <glyph glyph-name="quotesinglbase" unicode="&#x201a;" horiz-adv-x="591" 
d="M20 -379l117 594h379l35 -41l-244 -553h-287z" />
    <glyph glyph-name="quotedblleft" unicode="&#x201c;" horiz-adv-x="1048" 
d="M567 1505l-112 -594h-375l-39 41l219 553h307zM1028 1505l-117 -594h-354l-39 41l203 553h307z" />
    <glyph glyph-name="quotedblright" unicode="&#x201d;" horiz-adv-x="1048" 
d="M20 911l117 594h367l39 -41l-215 -553h-308zM481 911l117 594h371l39 -41l-220 -553h-307z" />
    <glyph glyph-name="quotedblbase" unicode="&#x201e;" horiz-adv-x="1048" 
d="M18 -379l117 594h367l39 -41l-215 -553h-308zM479 -379l117 594h371l39 -41l-220 -553h-307z" />
    <glyph glyph-name="dagger" unicode="&#x2020;" horiz-adv-x="1159" 
d="M1061 1303l88 -400l-135 76l-78 27l-199 22l-6 -63l103 -88l-224 -1190l-35 -74l-30 74l-215 1190l102 88l-6 63l-199 -22l-82 -21l-135 -82l94 400h299l-26 294l41 41h325l41 -39l-24 -296h301z" />
    <glyph glyph-name="daggerdbl" unicode="&#x2021;" horiz-adv-x="1159" 
d="M1014 262l135 76v-2l-88 -399h-301l24 -297l-41 -39h-325l-41 41l26 295h-299l-94 399v2l135 -82l82 -20l199 -25l6 63l-102 88l110 259l-110 256l123 88l-7 65l-219 -24l-82 -21l-135 -82l94 400h299l-26 294l41 41h325l41 -39l-24 -296h301l88 -400l-135 76l-78 27
l-219 24l-6 -65l123 -88l-115 -256l115 -259l-103 -88l6 -65l199 27z" />
    <glyph glyph-name="bullet" unicode="&#x2022;" horiz-adv-x="860" 
d="M565 262h-272l-180 178v283l180 180h272l180 -180v-283z" />
    <glyph glyph-name="ellipsis" unicode="&#x2026;" horiz-adv-x="1873" 
d="M604 381v-287l-94 -94h-293l-94 94v291l94 90h293zM1178 381v-287l-95 -94h-292l-95 94v291l95 90h292zM1751 381v-287l-94 -94h-293l-94 94v291l94 90h293z" />
    <glyph glyph-name="perthousand" unicode="&#x2030;" horiz-adv-x="2351" 
d="M709 1157l-197 -190h-258l-213 196v271l199 188h258l211 -207v-258zM1008 1522h487l-944 -1522h-479zM274 1245l56 -57h92l55 57v101l-55 55h-92l-56 -55v-101zM930 180v279l200 180h252l62 -33l149 -147v-279l-184 -180h-297zM2310 457v-279l-201 -180h-268l-194 180
v279l184 180h297zM1161 268l56 -53h92l55 53v103l-55 53h-92l-56 -53v-103zM2079 369l-56 53h-92l-55 -53v-103l55 -53h92l56 53v103z" />
    <glyph glyph-name="guilsinglleft" unicode="&#x2039;" horiz-adv-x="888" 
d="M807 137l-311 469l311 490l-55 82h-318l-352 -525v-82l352 -520h309z" />
    <glyph glyph-name="guilsinglright" unicode="&#x203a;" horiz-adv-x="888" 
d="M82 1092l311 -469l-311 -490l55 -82h318l352 524v82l-352 521h-310z" />
    <glyph glyph-name="lira" unicode="&#x20a4;" horiz-adv-x="1267" 
d="M1049 313l178 41v-299l-37 -35l-14 -20h-1106v158l143 155l33 119h-205v221h233v86h-233v222h233v206l267 267h594l75 -416l-252 84l-118 26l-103 -26l-61 -70v-71h446v-222h-446v-86h446v-221h-477l-31 -119h435z" />
    <glyph glyph-name="uni20A9" unicode="&#x20a9;" horiz-adv-x="1937" 
d="M1907 918v-222h-221l-105 -696h-553l-78 696h-45l-78 -696h-553l-122 696h-183v222h144l-93 516h484l-72 -127l47 -389h164l55 516h435l61 -516h162l45 389l-49 127h442l-76 -516h189zM586 387l32 309h-110l37 -309h41zM1296 387l35 309h-112l36 -309h41z" />
    <glyph glyph-name="Euro" unicode="&#x20ac;" horiz-adv-x="1308" 
d="M842 313h133l260 76l-64 -389h-675l-267 266v140h-209l109 221h100v65h-194l108 221h86v254l267 267h675l76 -410l-252 96l-153 21l-103 -41l-61 -62v-125h547l-109 -221h-438v-65h409l-108 -221h-291l51 -52z" />
    <glyph glyph-name="uni2116" unicode="&#x2116;" horiz-adv-x="2332" 
d="M530 727v-543l41 -184h-469l41 184v1063l-61 187h459l352 -772v577l-49 195h448l-41 -191v-1243h-379zM1378 1235l193 199h502l198 -199v-586l-198 -198h-502l-193 186v598zM1726 774l37 -67l66 -31l65 31l35 67v340l-35 66l-65 30l-66 -30l-37 -66v-340zM1378 -2v332
h883l-20 -332h-863z" />
    <glyph glyph-name="minus" unicode="&#x2212;" horiz-adv-x="1228" 
d="M1077 807l64 -57v-244h-1059v301h995z" />
    <glyph glyph-name="uni2215" unicode="&#x2215;" horiz-adv-x="1343" 
d="M385 -303h-467l1049 1941h458z" />
    <glyph glyph-name="uni2219" unicode="&#x2219;" horiz-adv-x="860" 
d="M565 262h-272l-180 178v283l180 180h272l180 -180v-283z" />
    <glyph glyph-name="infinity" unicode="&#x221e;" horiz-adv-x="1644" 
d="M1563 430l-287 -246h-295l-158 119l-159 -119h-295l-287 246v430l287 246h295l159 -137l158 137h295l287 -246v-430zM627 532l37 107l-37 106l-103 29l-100 -29l-37 -106l37 -107l100 -28zM1221 532l36 107l-36 106l-101 29l-102 -29l-37 -106l37 -107l102 -28z" />
    <glyph glyph-name="approxequal" unicode="&#x2248;" horiz-adv-x="1232" 
d="M293 760l-211 -88l6 223l131 119l170 33l504 -97h88l211 88l-6 -223l-131 -119l-170 -32l-504 96h-88zM981 541l211 88l-6 -223l-131 -119l-170 -33l-504 96h-88l-211 -88l6 223l131 119l170 33l504 -96h88z" />
    <glyph glyph-name="notequal" unicode="&#x2260;" horiz-adv-x="1222" 
d="M1182 1280l-176 -295h135v-301h-314l-69 -119h319l64 -57v-244h-563l-140 -235h-360l139 235h-135v301h311l72 119h-320l-63 57v244h559l174 295h367z" />
    <glyph glyph-name="lessequal" unicode="&#x2264;" horiz-adv-x="1173" 
d="M1063 1255v156h-385l-637 -461l637 -465h385v133l-465 334zM1028 356l64 -57v-244h-1018v301h954z" />
    <glyph glyph-name="greaterequal" unicode="&#x2265;" horiz-adv-x="1173" 
d="M111 641v-156h385l637 461l-637 465h-385v-133l464 -334zM1036 55h-954v301h1018v-243z" />
    <glyph glyph-name="Napostrophe" horiz-adv-x="1753" 
d="M121 1018l-182 416h411l82 -416h-311zM909 727v-543l41 -184h-469l41 184v1063l-61 187h459l352 -772v577l-49 195h448l-41 -191v-1243h-379z" />
    <glyph glyph-name="i.loclTRK" horiz-adv-x="577" 
d="M70 1225v186l123 123h192l123 -123v-186l-123 -123h-192zM473 143l64 -143h-506l61 143v656l-61 164l442 102v-922z" />
    <glyph glyph-name="uni0414.loclBGR" horiz-adv-x="1492" 
d="M1503 313v-602l-256 287l-999 2l-258 -289v602h155l168 248v670l-59 203h1089l-40 -185v-936h200zM891 313v785h-191v-582l-131 -203h322z" />
    <glyph glyph-name="uni041B.loclBGR" horiz-adv-x="1587" 
d="M1485 1249v-1065l41 -184h-525l43 184v944h-292v-862l-220 -266h-440l-102 369l168 -76h88l67 80v858l-59 203h1272z" />
    <glyph glyph-name="uni0424.loclBGR" horiz-adv-x="1724" 
d="M1417 1249l266 -266v-532l-266 -267h-350v-41l63 -143h-534l61 143v41h-350l-266 267v532l266 266h350v41l-61 144h532l-61 -144v-41h350zM541 461h116v491h-116l-82 -41l-21 -61v-287l21 -61zM1286 563v287l-20 61l-82 41h-117v-491h117l82 41z" />
    <glyph glyph-name="uni0432.loclBGR" horiz-adv-x="980" 
d="M715 1026l192 -190v-199l-104 -96l147 -111v-240l-190 -190h-729l45 133v762l-45 131h684zM541 782l-52 23h-49v-203h49l52 37l28 68zM555 389l-53 25h-62v-203h62l53 25l25 75z" />
    <glyph glyph-name="uni0433.loclBGR" horiz-adv-x="802" 
d="M549 743h-109v-591l41 -152h-471l41 152v716l-41 156h723l70 -356z" />
    <glyph glyph-name="uni0434.loclBGR" horiz-adv-x="1245" 
d="M1245 305v-530l-215 225l-823 2l-217 -227v530h131l149 252v264l-59 203h915l-41 -184v-535h160zM758 305v404h-170v-191l-121 -213h291z" />
    <glyph glyph-name="uni0436.loclBGR" horiz-adv-x="1486" 
d="M1268 524l151 -422l68 -102h-412l-100 338h-57v-143l43 -195h-445l43 131v207h-57l-101 -338h-411l67 102l152 422l-94 355l-125 145h438l88 -393h43v264l-29 129h416l-28 -129v-264h43l83 393h443l-125 -145z" />
    <glyph glyph-name="uni0437.loclBGR" horiz-adv-x="856" 
d="M805 201l-236 -201h-526l-51 403l227 -122l94 -31l95 31l43 53v33l-64 49l-111 -17l-18 222h129l51 32v33l-35 55l-114 23l-129 -16l-170 -93l67 369h549l178 -168v-215l-90 -86l111 -111v-243z" />
    <glyph glyph-name="uni0438.loclBGR" horiz-adv-x="1101" 
d="M1032 889v-756l29 -133h-426l29 133v336l-236 -350l29 -119h-426l28 133v752l-28 139h432l-35 -141v-375l238 366l-29 150h424z" />
    <glyph glyph-name="uni0439.loclBGR" horiz-adv-x="1101" 
d="M254 1233l-72 121l-8 137h275l24 -76l78 -37l78 37l22 76h264l-8 -137l-76 -121l-112 -86l-168 -41l-168 41zM1032 889v-756l29 -133h-426l29 133v336l-236 -350l29 -119h-426l28 133v752l-28 139h432l-35 -141v-375l238 366l-29 150h424z" />
    <glyph glyph-name="uni045D.loclBGR" horiz-adv-x="1101" 
d="M735 1147h-348l-242 348h461zM1032 889v-756l29 -133h-426l29 133v336l-236 -350l29 -119h-426l28 133v752l-28 139h432l-35 -141v-375l238 366l-29 150h424z" />
    <glyph glyph-name="uni043A.loclBGR" horiz-adv-x="1130" 
d="M850 543l172 -441l65 -102h-456l-113 348h-76v-213l45 -135h-456l43 131v758l-29 135h428l-31 -166v-235h70l145 401h453l-125 -152z" />
    <glyph glyph-name="uni043B.loclBGR" horiz-adv-x="1179" 
d="M1110 889v-758l29 -131h-445l31 131v588h-147v-531l-156 -188h-379l-74 305l119 -53h64l47 57v565l-41 150h981z" />
    <glyph glyph-name="uni043F.loclBGR" horiz-adv-x="1110" 
d="M1079 1024l-35 -156v-716l35 -152h-450l37 152v583h-222v-583l35 -152h-448l35 152v716l-35 156h1048z" />
    <glyph glyph-name="uni0442.loclBGR" horiz-adv-x="974" 
d="M907 1024l88 -383l-135 76l-78 26h-108v-559l61 -184h-491l61 184v559h-108l-82 -20l-135 -82l94 383h833z" />
    <glyph glyph-name="uni0446.loclBGR" horiz-adv-x="1261" 
d="M1044 293h228v-539l-262 228l-21 18h-958l35 156v716l-35 152h448l-35 -152v-583h222v583l-37 152h450l-35 -152v-579z" />
    <glyph glyph-name="uni0448.loclBGR" horiz-adv-x="1673" 
d="M1610 872v-716l32 -156h-1611l32 156v716l-32 152h438l-33 -152v-583h213v583l-33 152h441l-33 -152v-583h215v583l-37 152h440z" />
    <glyph glyph-name="uni0449.loclBGR" horiz-adv-x="1845" 
d="M1616 311h239v-538l-262 227h-1562l32 156v716l-32 152h438l-33 -152v-583h213v583l-33 152h441l-33 -152v-583h215v583l-37 152h440l-32 -152v-600z" />
    <glyph glyph-name="uni044C.loclBGR" horiz-adv-x="1017" 
d="M811 631l176 -172v-260l-156 -199h-800l61 184v688l-37 152h467l-35 -152v-241h324zM639 266l14 47l-14 47l-41 35h-111v-164h111z" />
    <glyph glyph-name="uni044A.loclBGR" horiz-adv-x="1253" 
d="M1047 631l176 -172v-260l-156 -199h-766l41 152v591h-109l-253 -75l69 356h713l-41 -156v-256l2 19h324zM866 270l15 43l-15 43l-41 31h-102v-147h102z" />
    <glyph glyph-name="uni044E.loclBGR" horiz-adv-x="1527" 
d="M1257 1024l199 -199v-626l-199 -199h-514l-198 199v168h-111v-215l35 -152h-438l35 152v716l-35 154h438l-35 -154v-217h111v174l198 199h514zM1077 369v286l-26 50l-50 20l-49 -20l-26 -50v-286l26 -52l49 -20l50 20z" />
    <glyph glyph-name="uni0431.loclSRB" horiz-adv-x="1079" 
d="M541 1024h264l207 -188v-611l-226 -225h-526l-209 240v784l135 289l281 162h334l268 116l-82 -346l-123 -92h-274l-90 -47l-49 -92v-66zM451 328l34 -66l58 -22l57 22l35 66v372l-35 64l-57 22l-58 -22l-34 -64v-372z" />
    <glyph glyph-name="uni0433.loclSRB" horiz-adv-x="802" 
d="M549 743h-109v-591l41 -152h-471l41 152v716l-41 156h723l70 -356z" />
    <glyph glyph-name="uni0434.loclSRB" horiz-adv-x="1245" 
d="M1245 305v-530l-215 225l-823 2l-217 -227v530h131l149 252v264l-59 203h915l-41 -184v-535h160zM758 305v404h-170v-191l-121 -213h291z" />
    <glyph glyph-name="uni043F.loclSRB" horiz-adv-x="1110" 
d="M1079 1024l-35 -156v-716l35 -152h-450l37 152v583h-222v-583l35 -152h-448l35 152v716l-35 156h1048z" />
    <glyph glyph-name="uni0442.loclSRB" horiz-adv-x="974" 
d="M907 1024l88 -383l-135 76l-78 26h-108v-559l61 -184h-491l61 184v559h-108l-82 -20l-135 -82l94 383h833z" />
    <glyph glyph-name="uni0448.loclSRB" horiz-adv-x="1673" 
d="M1610 872v-716l32 -156h-1611l32 156v716l-32 152h438l-33 -152v-583h213v583l-33 152h441l-33 -152v-583h215v583l-37 152h440z" />
    </font>
</defs>
</svg>
